<mxfile host="Electron" agent="Mozilla/5.0 (Windows NT 10.0; Win64; x64) AppleWebKit/537.36 (KHTML, like Gecko) draw.io/27.0.9 Chrome/134.0.6998.205 Electron/35.4.0 Safari/537.36" version="27.0.9">
  <diagram name="PÃ¡gina-1" id="GjMmEqNfqz9ljPuSOcdZ">
    <mxGraphModel dx="2129" dy="280" grid="1" gridSize="10" guides="1" tooltips="1" connect="1" arrows="1" fold="1" page="1" pageScale="1" pageWidth="827" pageHeight="1169" math="0" shadow="0">
      <root>
        <mxCell id="0" />
        <mxCell id="1" parent="0" />
        <mxCell id="d-dwPR9BG6M5_yMjoHCZ-1" value="" style="group" vertex="1" connectable="0" parent="1">
          <mxGeometry x="-390" y="180" width="200" height="390" as="geometry" />
        </mxCell>
        <mxCell id="8edfGr-UJgzJI8FCnGSd-16" value="" style="verticalLabelPosition=bottom;verticalAlign=top;html=1;shadow=0;dashed=0;strokeWidth=1;shape=mxgraph.android.phone2;strokeColor=#000000;" parent="d-dwPR9BG6M5_yMjoHCZ-1" vertex="1">
          <mxGeometry width="200" height="390" as="geometry" />
        </mxCell>
        <mxCell id="8edfGr-UJgzJI8FCnGSd-17" value="" style="rounded=0;whiteSpace=wrap;html=1;" parent="d-dwPR9BG6M5_yMjoHCZ-1" vertex="1">
          <mxGeometry x="8" y="328" width="185" height="27" as="geometry" />
        </mxCell>
        <mxCell id="8edfGr-UJgzJI8FCnGSd-24" value="" style="whiteSpace=wrap;html=1;shape=mxgraph.basic.roundRectCallout;dx=168.6;dy=18;size=6.67;boundedLbl=1;flipH=1;" parent="d-dwPR9BG6M5_yMjoHCZ-1" vertex="1">
          <mxGeometry x="10" y="38" width="180" height="277" as="geometry" />
        </mxCell>
        <mxCell id="8edfGr-UJgzJI8FCnGSd-26" value="&lt;b&gt;&lt;font style=&quot;font-size: 7px;&quot;&gt;IMG&lt;/font&gt;&lt;/b&gt;" style="ellipse;whiteSpace=wrap;html=1;aspect=fixed;" parent="d-dwPR9BG6M5_yMjoHCZ-1" vertex="1">
          <mxGeometry x="18" y="53" width="20" height="20" as="geometry" />
        </mxCell>
        <mxCell id="8edfGr-UJgzJI8FCnGSd-30" value="Ph" style="ellipse;whiteSpace=wrap;html=1;aspect=fixed;" parent="d-dwPR9BG6M5_yMjoHCZ-1" vertex="1">
          <mxGeometry x="77" y="219" width="15" height="15" as="geometry" />
        </mxCell>
        <mxCell id="8edfGr-UJgzJI8FCnGSd-31" value="Username" style="text;html=1;align=center;verticalAlign=middle;whiteSpace=wrap;rounded=0;fontStyle=1;fontSize=8;" parent="d-dwPR9BG6M5_yMjoHCZ-1" vertex="1">
          <mxGeometry x="92" y="220" width="48" height="14" as="geometry" />
        </mxCell>
        <mxCell id="8edfGr-UJgzJI8FCnGSd-34" value="&lt;b&gt;&lt;font style=&quot;font-size: 7px;&quot;&gt;IMG&lt;/font&gt;&lt;/b&gt;" style="ellipse;whiteSpace=wrap;html=1;aspect=fixed;" parent="d-dwPR9BG6M5_yMjoHCZ-1" vertex="1">
          <mxGeometry x="18" y="76" width="20" height="20" as="geometry" />
        </mxCell>
        <mxCell id="8edfGr-UJgzJI8FCnGSd-35" value="&lt;b&gt;&lt;font style=&quot;font-size: 7px;&quot;&gt;IMG&lt;/font&gt;&lt;/b&gt;" style="ellipse;whiteSpace=wrap;html=1;aspect=fixed;" parent="d-dwPR9BG6M5_yMjoHCZ-1" vertex="1">
          <mxGeometry x="18" y="99" width="20" height="20" as="geometry" />
        </mxCell>
        <mxCell id="8edfGr-UJgzJI8FCnGSd-40" value="" style="shape=image;verticalLabelPosition=bottom;labelBackgroundColor=default;verticalAlign=top;aspect=fixed;imageAspect=0;image=data:image/png,iVBORw0KGgoAAAANSUhEUgAAAb4AAADkCAYAAADn70HMAAAAAXNSR0IArs4c6QAAAARnQU1BAACxjwv8YQUAAAAJcEhZcwAADsMAAA7DAcdvqGQAAJnYSURBVHhe7f1/iFPX9/+PPucyhQQsJNBCAhaMWDDDCM2g4Az1j4n4ATP4AjNYMEHBV6zQZizUiYU685J7fWcs6IwvaGda0EkLLYmg34nQMvHyLkb4jiTl6k0EZeKlYgoKCSgkUCGBCueufc4+yTmZ/Jwf/pr9gOicX/vsvdbaa+29zzl7d0kEBAKBQCBYJ/w/+P8CgUAgEKwLROATCAQCwbpCBD6BQCAQrCtE4BMIBALBukIEPoFAIBCsK0TgEwgEAsG6QgQ+gUAgEKwrROATCAQCwbpCBD6BQCAQrCtE4BMIBALBuuKVBr789QkcPXYURy+l+R6BQCAQCNaWVxr4UpfHEbqUgK3fzvcIBAKBQLC2vMLAl0H6Nv23bxyjvQZll0AgEAgEa8yrC3wvMlh8ADj3OSHCnkAgEAheFq8u8N1NIQ4L+h0WvkMgEAgEgrXnlQW+fDqJPPrQs5XveIUkT1jR9c4ApqgHKhBoSZ7eDGNXF9mHFcOXMnyvQCB4k3llgS97LwEYbLBt4DteGTGE/psHXiQROBfj+wQChdzDLMrsjxd5RI8NYOSWvFsgELzBvKLAl8fifXInW2x49QOdlIdNyl/9jj7lD4GA8SIL05FHKEkFzB8y0Y4iQleSyjGBQPDG8ooCXxZp5j8cdgo7q0+5LLfR28SO4MINhK+kEPtsBWH4eRH54tL7lp8VUX7BN95GXpRRzFMZ+abKW1Huv6hZtMcGA0xwfeGXG2nlYkE5JhAI3lgaBL44Roxd6GLPNio/I6wn4pXjgQ/M+uNGa81xK8zvaI6bhzBDjkTmeRZZ8pQGk5nvWCX+msFuyrfxmJqPNtnohOeAA6Zuvr0Msj8MwGo2VsvLf8b3B6rlfhshmQ9YzcpzsLet3Fts1YYZ2apsrSuwEYFA8HrQIPA5MV2SsHiWf1i+dxYFqYTcBaeyTccnHxcgZYLUXyK2BrFYytUcz6HwzyKCWynAHZxDoTAPPx9SRD5HfT5qTX+wygOd1PvIUUC1b3v5H8TbTi5CkjQy62UykWjfIka3KLveSraMYpHKLf0zD4+8w4XZp29hucm2GM5+MRwuELzpNB3qtB8fh5v9QXW+dihLx4MU0s/53zqKyP1lgO9zN9gTkgqZFNj7cVaTUdleLfLUk6T/DK+wVW7f75UbA/bDHtjX0weK3Xb09dL/vU4431N2vVX8uUg2a4dr8NU/lRYIBCuj+TO+DR74PyPvfTOGeJ3Alv0tjPJW5uajCF3OKzu13AojBB+8H/NtFf7sx2LROJEHU+jjw2Te3/g+LS+KSJ4fhlUzfLr7knrPGLxs364ZOUCnT2xWzrFPyAG2EeWHcUSvzmD82BD6PjDjqPa+T6IYOR1B/q8QvJUh3DboXk60o7J950WfmZetfwoZWUbs+VkG8asRTJ3wYveHA5h6qOxPfzNA53qp5FWKf0xh+EM+3GrsQ+B6EXjOr/9qBEM7rPoyEpnzffL53mt8h0wR8RM9SjqeKN+3HMrI/E73PhVA4JM+WM1DCHGVFe9HMPIhpW8eQVL3LJDpOYCZP/KInz7Kh0tZOmSDv81gxLMbm42UDhVNS9TDZMflsQZlzj5Ik8G64Xybe+8CwTqh5cstzgM+GCiwhX+r7fNlEf25DM/VOYxtAuI/zqE29CWvhGD60od+vq2SfVgzKTU5qmTZi8A+vl3LiwymdlnhfexD+m8Jqa+VJy/VwOlCWJLw6IKD/rZj8k821Ea/zJgyFNuA8gYbBvb4MFCOIf3EAIuVH6CShP49jPi7/bBscqLP2rS/u0KKiB22wZmk+z0tYfEsleGPAIbOsJBdRJb+69njhv1ZBPGHRpjY5x+3AnCeLsL1qROVLFPDwdk/juLnKZSo7IVvrZhyDVOAoDLu88D9fhyxO3mU+OmMzHcjiJX5UyxNLznz3wDSViZLkqZD+X95GGDb4cboWT+smTTydK8eprK/sihs9cDFDKMYR0L7LPCPIFxf5WDbaYFzh52/IGOAfdAF56AZ2ctxZDcNYEA7hPAihrnL9L/FpsjDsPplztzLwHBgCCuRhkAgeD1oGfgw6McoBbbYtyF9YLsfwsxzD7y9doycIA9GvY3p+/wY40Uc4UtW+DyNXIUBZva2wIssYkkD+j+ywKQbD1WhwPBvJ8LuFB5964KFOlSOHcxj2tHzoXJGBfk5jAP2NlvlJnKUFpPaQzPDXLl/CvHfKUA/ZiW2YfSkS9m9Ftwcx/AvBoyecMNEvUX7yUn4KUvZq1HqrVrgGLRr8miB1ZLHzOkExu8tYv6ijzti2neEHPfOSYS/tJNkqWyDTpJQHPG0AQbakcmwQGpHn9oSuDWB0KYg3Aa2n+uCwfZvmcQon1jAsWVl790a5LyXlQDWyz5fySL7wgZbg+Ho7EKMNJ5Hjol+32j1OSE7nz8bxg7SMfufU6Ree4T98Z5ZGVInOa5umZV5Zd17aptwAoHgTaR14CPHoQS2MOae8F1E5koEhs99sgOy7PdSry6Lqe81Q4ILUYQsLDDy7SWQ86PWf/ZmFvY9jZ1r5rwTQ8UpxE9WXV36NruPlQKCsq2Sfyy7xWViVXpTMhQEyXGWv/Ov+WwusZ/Y8OwQBrbzHd3Um9lD/z9YVJy8TBbUYZIp3wwiuneu4qRlHoYx8wf1zqmXWhk8Lhage/Ge95zkAFKMIRB1YHyfKkBFF9r92Yc8OLwvn7BCsvK8rLDbYX0IGJs0TIwm1meLI/AVC4D10b289CKNyW/LcDJ5sBirZbXK/DyNxAOy5b18WyAQvNG0EfgosB0ZgRtJTF1kjoGRQfgXC/wHecDa6MPIPnLKP0UR589r4ldDsPHAWIvSEieeJZG1OquvjNfyJISRU2bMfu+pvhxDPUl5phW596PsUinU+Y6ufbTp9cP7KbtjGoH+3QitWfAjh0o9S1CvuSonA+/5lrGkOBYz4j/k4PtML7H8zZj84oVzl1KAcjGNic8mqN/kQN82eReH7rOpiMgXUTjPuGSZVhsLZcTOxDBwWtmv9J55cFgl7HYDcqzBwrfrYdnrAXs3uPjLEPq+iOuDH395Sdsjy34XQPYrH2w8sC61pVUo890E4vuG4GzQSxUIBG8WbQU+9SWX7C9h5WWR+2FELF4Mb5SPEga4D7rJj8xg5io5DwpO0Z8c1cBYCw+OsYWC8iagjNqrqQ5hxs+OIPHpGHyV+5BDvEr3YP5pa0+Nk6NA0aiL0A4G/p0Wp/8CBff95A6LcRztP4pY3bdWV8gLcuQshm8jZ6vs0UABsLYHUwwh9p4fnppp3nLZRfo3i9CRPvQ5vRi5kID93CIKpZQ8TF2RLZWxfNmHub2TcPE0lMaCA7b8OEL2cbjlCKA2Tmi/+gnKKlCg3n15U7VQyvM7m74BQ42oueSYPISb/W43nP/V9OILBdIy9QrVJKhhdHTBhxnSk/Y5nsLqlTl7O4EBsYqIQPDW0F7gI5yfj8L21xRmblI/JUK9Oe2wGmHYNyx/+hD9NoTs9RBm+n2awFiPLOzbeUub8SKNFHtGaHAqw1bPI5j5oQz3XvXbQOJFEsFrLkwfor83GGocUY4CAP+zI7iD1EyfVmaOsdsCTzSLG6x3RQFnqt5bqyvlryz1+Yh6b4LqAnFGkU3ZBM+/NfLg5J6wvLkxnUwhFQ9j9owf7kH70sBpimP8gh3jBypS5yQROFlG4IhGo7xxsiqfhvyVkRtMeYsV9kp6FPTv0X/a+VrLRbmXa9oZRCozDSflP31qinKnhXpwrGHEXng6EIPvRw9M+Zz8/Nlur9PQWoUyZ+6ZyQ611i4QCN5k2g586PXCs6mM0NUJhH/qgWdfjSOgXqGPBaQ/ZjB8JgLnwaGmQ1qwjMI3yP9m/EG9RPrPdtKvvAV6c562NS8msJdcjgVhPetTekd1h7VqSSN0SQ4trakEiRhG9syQW2aY4Px2VnnZ5HFO3rMq3J+B95uk3HtZSp4CGf23Z0Du9egwDGNIfRaoRXbUFDSW9EqzmPlXAHG6k9y7ymdgOjwChyb4KL3sLCyecfTX7q/pBS8bujcrq3OX9uNvHswPuCpv/WZ/cMLPhn4ZW/0In6Mj5Zw8yw9DeQbHYC88DSH1VQgeFs+KJDO2W9eAWK0y03644GraiBMIBG8S7Qc+CkK+z+0o/zCOKbsHQ3WimusAm7sjg/QdF3wHm7eQa18Nj1MvskwOJnhCiXTyd1PkdFL3iuTD8oh9MYDgtmmMbulgSPNJAtF79cNLFeqNMAesCaQl7SXdZvmZm4OOdwJ7/b0RmStTyL9nk3sWsqu+nZZ7RDLP44hRr5oNHWvdOMPwKXuJaCnOPeyt0xjmaj85KSYRN/RhgOQov1xCvcIRbQ+ngqv+fk0vuG0eZuXe11Jq1l68k6CAbID/iOaNWT47iorpPQpBm+xwqILgx1NnnPBhWh7ilJE/Lif5VIIYY7XKbMPoxdE2GlkCgeCNQeqEPyclcv+S/dwjvqOGf25I1DuSsC8slfiupTySJnshOS5o0vg7LLkpXe2+3EWnxLKn/kx7ZulKxqIU3Er7DA6pf9AujcbUOynpkqOSRpO07+9FaXa/U5r8kx9uBN2bXK+EI/PKdnZScsAkeaIF2ihJj350SyaTX0r8oxxuRSHi4nk2Sc7/zEuLuUJVFn8XpMWYn9K383wtSmOblHPl+/1TkBIn7RK2T/KycrjcXZEGUv17XvKZKB2TW5rNKOeUMnOSb2u/NJlhW/MSNUnq6CUljVnq7efnW0al+duLUo7vbUbpXlDOY0X+Wm6PSRa4pPDffJu48ZlBMh2al5iUVeaP0PXbg9Iiu/xpQhrbDsl5sXr3R+dINuweJJ9FjT7U/fb9o5KH2cT/sr2rVGZWLotPmtfkXSAQvNl0Fvhkp2GQ/At8sw7MoTV00DKPpGkKSNNpvkmkvrYtdfYFckTMmXdbJPe5hFRQHd0/c5LH4pIm47kax1WSUhc9EvUOFOe40S1NJrVutQHklO0Wu+S7wl3dPzlp7lOHZOpW0jF8RI7wqXKoGY++d0m2TTbJstHS/MfyZxkjSXIys5J7i0HJc7dJcnw6Jz2qFZ8c+BzSZJZv1+MxBbrtJiUd+pm2+6S5P3lCPLjrGhsyirPXBhcZkrHPZJecB8ek6Sup5oGPB2X1vtqf51d+zq8eTZkfSeGD1GihcuZqGhOF5KRGFqT3bxd1OpYDo8kjzdeodf6kUxr9MSU9eqo5e5XKnPu2n/Jjk8Y09ioQCN5sutg/5GheHWyqssEUgpkwXLXvHwjeDn7zouvSEEq/epYM37723J9Azw6yz6dzcNe8TSsQCN5MXm3gk6ci8wE/JfQfZAveKrL/7UNPdgalb+s9oRQIBIKXSwcvt6wy5Qwm+p1InYqJoPe286IM+2p+CS8QCAQr4NUFvu4iLMfiCFemkBK8rbAPw+1L5r8UCASCV8MrDHz98H3a2ScCgjeUFxbYKstICAQCwavl1QU+wTqBfRhu1qx8IRAIBK8WEfgEa0wehfedsIs3IgUCwWvCq/+cQSAQCASCl4jo8QkEAoFgXSECn0AgEAjWFSLwCQQCgWBdIQKfQCAQCNYVIvAJBAKBYF0hAp9AIBAI1hUi8AkEAoFgXSECn0AgEAjWFSLwCQQCgWBdIQKfQCAQCNYVIvC9zjxJInonzzdWgyIy1+PIPOeba0IM3q4eTD3kmysii6ltXfD+xjcFq0r+shfWd7rQ1dUF6+k039uM1dTtClmNurHq9WutWYf1YY101Dzw/eaVK0XX4Rjf8eYRO6xU7DfRWLJX/Rg+NY/VU3sCU65hhO7zTcFLoXx5CD3ns3xr5axKei9iGPUk4UtKYNP15k47+IEq6VPW17bedFw3nkcwtG2KQkeV1a9fr5o0xq1eap68CdTL69J9a6Uj0eN7jbF9mYL0vz6s3trlLsxKBUzu5JuCl0I6Ged/rQ6rkt5fGXIz/RjYzre7+f8V8kj98fqGhI7rxt0EaqW2+vXrFZNPIfmmRPF6ea2zb810xFZnaMivHrZyg4RD83zHUnJRn+Qw0TnsvG6T5Ph0Tsr9ww9K85KH9huOJ6RCfFRyGOic3knpkXysJD26ornWYJPc5+g8+RjB7+2LJKTJ/ZZq+l/ekAqZWcm9xcCvc0ij8cpVS5g/pKTv+ZXv4Ok6v01I4UNquhbJfXGRn0A8npN8203KMfYz2SXn2QTlWJIenbMr+zQyWbpPKTeOhKXEObdk6VbSMW0flW48XZRm99skAzsOg1IeflUtcrpqmv8UpPkvHZKJp8Xk5fpek+cKJWnxW7dkY7Jm56kyk4+xfNmlyT/lDTl9+9kb0tynDn1+WPk/qi9f+RrS0w3Ki3qNbf+stKjTuXKP3Lf9EgZnpRw/IvN3WHJr8qCjtChN63Q9J03v0+iuJv8Kq1SmDq5pv1wFae4zu6J/g0WybKQfpSvzT05zP0iW/ZNSgmcpd9FJ9SRYlek/i1KwF5Lz4v+vcXq1FFi9Ue1Mn34h6pf6tyr2bWJp7J3mdVIlJU0O8mtNyn1c37MzFFkHr0xL7o1KukwuvqhOEopPUO1vo1uaTFZlreeRNNlLMkvekEYrciY/oK2LrL4empMKsVHJLtu+j3Kh6Exf3zzS3D3Kl8YvqPli5bVb2LUGRWYbqR7S/k7SkFF1ZjBJFpNBMlgU2dgOhPW2wHkU8UgOC09LtSl+TC2Xtq4aPvJJc4/5cUbL+qAhPSk5Nyn3knW60SVNR/yUV7+U4KcoLEpjm3gaah4u1vgorbqa2Gkrn1RITta3k3p5na+zL1urI8Veggvz0qjqn5nv1saNNnW0osBXiLiU40yp+1wVYzfR+UpGmDHRPlZ55PPot10JfHLllo/1S6PnSEBblOPOizx76r3Zb6NTcg1yA+A/y8ceybVV3fZI8xXHq6dR4JN/W12Sp5KuTRq7zU7ISbODynHbXp/k+9QjOUl5/d8q+ZIVwc7XyGTpPl5u9iPFOPc5K4Yl/yz9kmcfv4Z+dQ2Z0Cq9FHHrneHfOSn3lP+t5d4YVSSqwKollArSo5y6oTgubZAATJInyo8/nZVccv7o+hwL86TjKx5d5VGusUi+Kzm5IcAqZ3A76ZwaNwqae8jBoF+a1lTmErOZndN1HEWJdGUg2yEnJ5eRGkbfKjbSaeBbXpk6uKajclEOyQbt5/ShJXHcpCvr4hnKw/6wIlNug44LyjWPLjh0gbZeenr49V+TQ1DTP0tpaO3nz0nJzuoN31wKczK1tsntentQSv2t7CndC1I6binMt6UFv2Qykdy4bS45rkO5Byzk8Lmc2fkO0oV/Qd5U6usmm9S/Z1q5J8+/tm5U8rVTk6/kqGTT3pelU2l0K3SaxuJ/bBL2zXKZ0vZZrc6WUsqkpEX1/qWENKoGHAb3Q/1nU1KJ6yhxktKvpNdOfahhiU5ZkDNI/jjfZNwekyxkxzdYmrV5oEA2d4gCisbWmtlpU5/0eFZydjuk4D0unadzkocC49g9ZbOu/dXZp9fRUntR6mo13XZ1tILAxzNBQc/zK09Wdghsn+qIuDHRr1oJGeq1GiU+npb62bmqcar3VpVEWQ9Ta0fepxbkHzX9WmdYpWHgs4xRu1bhxmdKS4P1TLV50+dZQXGSdFwjk6X71HxVjU52jPK+akVS89bIiWmVLl/PjKxWg7XIhl11PHpYvmqCBG+IKCgytp/V9iTrXFPjQOR78pZ47fl6J604ZFekTiHIdlxL9JiQ/NSYqlZ0fdoKq1SmDq9pu1zEkkAl261LHwxy5Ci0+7jjmPx1UnJ0O6VZTZBdkl4tsj5qG4MpaYx6H5WAsoLAp99HDZ+t1XRZ3vRyaCYb5R61ZUl9TY3RIzxncn11SbNq242jrRvt5EtOp43A16psuryyNE2jNT2qxuiul8tVo6MMNRI0javW9aGGloGDBTLq9X7NPV+9PMj3Jbuj3lYrO23mk9h9K/fh6O69gsBXay9zB1HpMLWroxU848sgJb8kYUOfnTrCjA39GOhlf9CxjLyH48H4mX5Ql5ijXkv9wL+iiF6lX5I/dr6foqMa9jvhlK8zwGSS98De309bRLcdffL9lsGeAaiP8wd2OeX/y8UC/UttvGMUgon0NwMwG60YPp9E8YW8q0PccO5S/jJs4JnvHUA/X43cvs2u/NEGhgMhhB3T6HnXit0nQkjny/xIDdsDiJ7Mwms1ou/wFGIPGpynYrdTiVUUGds2VffUxaG9hvioD06Q3v7i2xpcR/zIfh9SdPpkDqGbbnj3cXvRks8hSxqxb+HbMhbYdNttspwydXhN2+Wqh/x8LQbvu8qLV/LPehRxkkBOfcax0YfZc0DgXwGYvw/Dt5Hvb4dcFvnePth1z+0cGNhTRlytZ8uG6pzObA0wdJdRYFWH8p9JAzGPsVquLiuO3qQjT3Ly2fVwbNXL2bGD6uO9TPVFlF7yAbz6NKZZvtqleRrMHjIL5AuUTWTuU2F31NQFDcVbM/DusML6gfLzXuYHVGp11E32Uy5Avt0q1QfbQT/6fwkhwt7kfhFH+JIVPo/mRabaPGwgO9maRoYZdgs7beaTMqS//Dd9GjvowsB3ZeSb2EG71NqLgfKfK5bkv9vV0Ut7uYVlbil5RL4YxvAn7DeFJN+rgxnDS8Z2PIFSZg6jgxSYX+QR/WoAtmMxtAghdalf7mXQTW34n3MoPY5RMyIEl5WM7ad6TsyE/jOU/0IKwW0pBLYZsflEsqO8mzZ0KPNymQzNDFO9ywb9GMUUZm6Rtq+FkTzkg4cH/pdJx2Uiml6z4nJ5QO1Y+Y3K6m8RoxrHVnxK1ZfsJ5tdubN4mVCPpKZcEhZPNm5E1FIuU7nfNcHIt18X7KfnMfnUKzeGrWYzBqIu3LjS4MWLWyOw7Qqhh+po7nFO/oUP8mMvE2pAjeyPInSZItUC/b/FD1/TzkIZpSIF/Hf5ZjM7beGTqOdVcx39fnbxo2tDuzpaQeBTe1sZxG/z+FpMIi735GpbTrWo19owdrtGMFIYaysazu9xJHkvLrGgvO9l2WiV/wftN2x1YzJOSl0YlYVWvBan1g+hBuJnOd6qKCJ+U9dHXVMMFgd8FxLIxb1IXIhWW8W1bLDDdTKMxew0LP+dXvJG24q4TS1C/qcMe2POYEdPXQ9gx8gJB0JXIpiLpOE/0kC7FitZQ5Z6BnxbpojCM/5nI54XK627l0ub5aoHldVOzbxEs89K7oxj+Id+zGfm0f/DMMbv8P3tYKdWPBs50Y1SpJH43QBnf/sBqHPI2XwIJG93Vh/S9/Xns7dWDb099QPKq+ROCMH8GFJ/UyCjbmDh9mTDnmiWylA8FMRYr9p4yiOns+0WLLc+LMEAz3E/EpfnELkaguOYV9/7ITtJa+1EfrNyAA4W2NqxU6KeT5J7XsnOGtyrQps6ai/wsQ9deXdd/rlmqHA2+M56qH/Bhjas6PvXEPrUbzD2jcPXtEuuXpvFRH8Pho4dxVH6De2gCL2K3zs1JT+Fgff70OcwYvcPTD2UJ3kIIIupfuolOb1ynnxfh5VvSHh32bbHpRjO9aOw7xrC7g+tOHqd7Vhbyg8o2BRVMyojcyuOsrVOq/hJBuknVXMrJhNIm6zUH1tFHkwieDWvGHU5g4kvZ2D90gdlgHgpliMjcF7yIfDXKHyDfGctG9zw7k9i/FSUDyuXkb0UxIzu9WYbVagMtV4zyr1fFBH9fLTmW6CXR1vlIszUFc6m09UAvcGDwPECJo6MI6k6MurlZO6q5Upj/MAU+n+cgWuLCzM/9mPqwHjFQS1Jr5YtXowORhA4pQ7Rk71848PEe+Pwt/0pixGm95cGpeaQkz3hR+F/vBi/peaujOJ9st0mkyZkzgUR5cNk5fsT8H9nxejhRta0TKj1b3hITn4lraQtTrieT6CPf/TPfkZHAPE6aVo3kpegBnVSqSTIXx3H+IJ8qD3aqg81bDBR0yON9AO+rTLow2gmAN9PTowcqW1ORBA8n0aZ3YPVp6+oPPt8GGantbDTZj7JfmwMzmt+eKkHWDnjCZ2vBvJ6eW2U/05oU0ftBT4SSP5Jvvp7rBTFtC+MTNQHh6mM9G8xqpgmOD6dQy6qBMRmKNeOwrkpi9ilEEL0iz+xUU/wJQ1wHAxiejCH9F0qi4FaLNEEgnIv1AjbNhsKCxE5TxGqwLb9k0io3eXeIOYvumHppth5K4bEBi/mktNQnhKuHcVsCF6b+uzEiIFfXZiP1BlmeRZHYNBcUbr1VBmTC8GGQWlZkOyGf3fBzO5h7MOcYw6JM0s/gK6wwQX3YBnWT72V56pLIaf5YwLjz/0wM6N9x4ZAMYCZI/ywjB3B67OwX+yBkd37XSdi+8OYVL9Fe9m0VS6g/6sQ3AvDiryOKX3v/gtZzO9Nwm1V9NRltsN7MSsHs/TpYWp8hTGzX6lFpv0zCG2bwDCfXaVeenos8MUWMZr385lZjHDeptb4wljNc79mWOClgGQ60yPnb+C7NhukH08jG3MheVC1QTPsR0LINgl8njPDiO1VzjfumEMfq4urrdOPxxE6EMewmfL0DntO1SEvkghs8wHf51BSR6eoVxGyz2Do9NKHNIYDk5h1hDFgVGTgSnoQ/74TL9FOfajB4sXkWROCdnbPAcxUnrk7MHTIgPJeL9y1w/G9o/B3B2Fj+XzHDP/zcSR+rvrvZnba1Cdt9GH+3iQM3/K6Sj/rHgpAagCtl9eG+W+TTnREB9cX8ptM+rcyBe1T+5ZYW8hvh9W+ofYW8LaW66VR783R15SYb+nbzMSy6sNLp4GcmS+sU6Y3lg509NJebhGsV9gwWwCRlsPfbxpva7kEddnmQP/9MCL31YE7soB8FONnM3DvXevxnpVRZMOsz8cQ2Mt3vK10oCMR+ARrRvY8GyYzoo+9WaUZPnnTeVvLJWjCRj+i0T7M7TKiy2iWh++sgzOwXnyE8MHO3xh+KfC5ls0nypi+HoRjtd4wf13pQEddrNvH/xYIBAKB4K1H9PgEAoFAsK4QgU8gEAgE6woR+AQCgUCwrhCBTyAQCATrChH4BAKBQLCuaB74niQRvdNsjpw2YK/U1iz5LxA0Q/5c4PDLnYjsVdxz+cTg7erB1EO+uZqsQp1/s2T5hrBWfnTZ6WYxta0L3t/45htG08CXverH8Kl5Za7K14HnEQy9rCD6cAo9XXzu0TeSN9swBVXKl4fQ85LmsH0r6/xa1uWX6ZMEq0bTwGf7MgXpfxssu/EqYKsA8D8FgvUCW63gZfHW1nm27hz/c1URPumNpHmPTzdkwYZXvIjen8Hwh3xiUmMfjl7Ttw2L1wPokydm7YLxw2GEnlk1laheL6Rm37MYAjuqkywbPxzCzH1K99oIeg7MoHx/HAPyKhEB2eBYHnvOZ5D5bghWds2O/yfO9Hdh9yV9vsqXh1d3qKCYxJR7c3UCVvcUkpoZwJfmi9+bre93rK/BdYqMQ39MYfgD5XjXByTDB0Ukzw/zCYfZNaGaJWfagA1pHI4ic6majnmHftbysla3uuP1htZq9snph5bm8xmTk1VJ8x0rhi+1Odv/ixxiJxrJieR72Ys+a3WC3L4T8epqBQ1sqCUvshrdUJrHoshr5SzrnJelzvGiVm+1dUOV/3fD2KzWD8dRRJsuVcNWn+iB+4cyMqcHlJVRqJwq5TTpq9H9iKb5aUDndZ7yRmXS2lTaoF34pg3b6ajOM39B197PYMal6KJvKoIRoxEjt3h6nMzpzUpZ5Fn/VZT8qjpgEzPrbKceHfokPE9iwtmjTC7NrpHrsJwSoeR/4pYmTVYv2GLX/AxGcz9Kpbg1gd32ap70PoHrjeVbnvC5q7KCTKt0G1ImeVfqMZNZGjo11xsyrdkn+8Rv4vo6xmT/JIqjjqp9BW6qkuCy+n3p8fy1o9VyVFZfyGOmXd8vz9jZAP3knsrS/NgZlFJ8KfpSclSywV1dml5eOt4hBe/xteif3pD8W+maysSh9SZL1e4rSeH9kOxnF+UjjNLjnFRQl8avM6kqy6Nhk03qPz4v5dht6dxSxE35nJaUxegZlO4+SP3fVve0pN7S+BVy0uwgJMfXCZ63krR41kF5C0qLPK/18sVIHDdJpkNz1evOkIz3h+kvBpfxdnU5/5KUOGmTJ9XuP5uSSuya0qIUJHmpS+03pkbWfHLuSjr/FKS5QyYJg7NcTovS2CaD5IkW5C1270KWZC//XW8y5pp9PH0H6U7JekIa3URl6e6XgmmldKV7QZKpU5ptkXXZ7mCSPFdySlosrwcNku0/GrvIpKRF1e74vdqyoQZU7qmWv/RImt1nkEzHE8q2qnO1fLV5ejwrObu1tj8neQw2aeyesrlE/pSKrNuK7hszf4jKc05r9VU7qdRFWbaautgqPw3otM6XqFwGk0eae8q3/5ym+9I1ujSa2U6ndZ7ZNcl9S7/k/1W1D7Le/9gkw2c35DMUUtKYxSD54+xvup9q5/fGJJuB8lsx84L0KKdu1KNzn8RsZfE2zxtR+NG1xAfC4pPmZMdAPJ2VXNDopqUfJR4vSin1erLFWfJvVRth8rVJtp1OaZrXPdn/tJNuXUpkg1QXNH7r0bdO2Z51/qU2nZp9S+qYXG4mC9IHL0vhCtmTwS8ptY7LSmNfsizpGgvlRfGrSj008Hraru/vOPDpgxY54a1kXAvKVupry5JZsHMXSUA1Stenod2nZNJ+hjuXWuoIV86jZVRKqIbIqJ01P0dOAK6qU2iHZoHv9phkYce091QrGpdF43zV5EOXN0XGvph8RIHfa06Tjl4vjaiRNZNdbZ7/DpPhOaTJLNtQ8u+5Us8J1MhTpmafnL5PJy/ZHg7O8S1GPf0vRS5fbSWKUvqVIL2UanBoYUMNqHtPWfa8TMweLGMkJQ0LfsnA97HrLV/rjlIjx1DdV0/+GQpWlUremEaBr1ldbJmfBuhtq9V9uKx1eVPu01Hg66jOKzZkOVkjNbW+qvLV6EYH0ykLfNyRtqZzn7QEnS9R8l8rs7mDqDRmW/vRpdTTm+tHfV1eTroysp+o1WFC8htq/EttOjX75Dxu157DZatpVOhtQ5GV44ImVZ6XYIZvM7T3adP3d/g5Q+3K6gYYussoFJSt3JM87Nv0I+kWSydPCwzwfB+Gg6239sFuBH5Kg69P2Zw9TvRrJ2DtdsH3WRYzPyvDavmrIcT311mLarnkssizZwa6SV8dGNhTRjyp6VDX5uuvDNJsGOJdpYsu/6xsbbAscpXeuR32D/mfDJMZZosNttWYYLY2zxsoz1vTyMhiciBwbRTZw2YYHV5MXc8oi1N2Qi/lnf/JMJnNsGzSjod0gENZ+LcCy/fTIkrKFoq3ZuDdwYaXlJ/3Mj+wXBti1N5zaw/6kEKGrQuWof/zE+hT9cZ+u2ZQzpPu2OF7GeS/6aseo9/Ad2Xkn7CjnFr5s9X8ywXw6tMhzetiW/lpi2b3ybGqAMdWvY4tH3Si8+Xpy7mrZoXJLV74d0YQuqpcHI+E6q+TuD2A6MksvFYj+g5PIfag1c2Wkb9yFtETu9HDbdO6axy1A/y1MjOQXeSKinW340fLD6MIOHsq9j9wuvYOdpKRfvr0ZfvnfI48lAN23SokFtiWsyqJXVvHDDBRFtlq7c2wb9Ec32CCiS1IvZFv19Km7+8w8L0ENnoQflxC7hq1WX50wWrdjdAyXtt2fj4KnJ9BEnnMRZLwHPGQmF8HPKA2l7JIYuW3iNFmRvSeeY1WACijVCRH9q6yZdoZROLvElJnyd2foIpuDyDZZAHRdjCb1yDnt0Zg2xVCz08UdB6T86Vf+CA/xlglG1Ig2auG0zsJalXW6C4MFz9MrfiaY/T7WT368nnd8tOQVdEX9c2/cCN6KYz8iziiP9ngP6x38gom9J9JoFRIIbgthcA2IzafSFJNaEJH+csj5NoM3zM/ElnFNnMLQV2DcMU8CWHoQx9yxxMV+0+cWdU7vFRMGzr1zBT8mnRi2vH9qxr4rBstyGZ1jxBRft70sTFRREFdlbeCAZbtPkwu5HDjYAJT1/RptkXvCEY/CiH8yxzCd/3wreZaVHZqud+nHoCuR5RG4ncDnP1NWi8WK1WAJBLtvGixFlCe09o851NI5gfg0AZd6oXY944inMlh+r0pTN/k+2shvbbS7FqRTcZRPBTEWK9qznlqzfI/KyzDhtIZ/QPwB4tIGezoYY1iG7Uy7ycaNgRYqzWTbOFAXyIvJz/U2yBzz/5V81KN2u1sRF3bWXmdNxzww5+MYO5yFKGP/PA2a0xusMN1MozF7DQs/51u483MdvOXQvymHeOn3TCpvft8Vm9XLWjpR9NxxHvHEeQr9DPyj1vfYXn+mSC/ZaMSZHV1rJ7f1tNW2mtBG75/VQOfw+OD9YcAJtSFAJ8lMX5B+/UMVZQPgSgZZlF2wGwxTz8mKvWGtu9mUFRrazmD5EIZ1veMyrbZDMNDct5tyZO1AJ0IHQsg+6UPzsoQUx6Rw30Ypt7CstnixehgBIFTSU05fJh4bxz+nfIZ9dngQeB4ARNHxpFUjaZclMv8chxmBMHzaWUI80UR0a8CiO/zYVge7cgjcydfHd58lkDirgnW99kGOf1NGYQu83yya6lVtSbfRbWBdSN524U4knJmysizhTYX5ENECxtqxv1JjF8lGbC/6bqJzyZgJNuRB9WoMo0NRqkXEUJWTft5Hun7ivHaj43BeY2cLdlV5dZP0sg0fWuzPczU5cym0x01NNYyP1UMcB90I3l6FFFuz+WHIQR/0AbCVrazinW+2wnfl4sIHAvB+UWDTzKeZJB+ot6M3HcygbTJSv36RnSaPwoSlgziC3zH8zQmvg5VdNAOLf0otTYs9yn4qTK/O4HRS63v0No/N2CDG979dO6pqt/OXgpiRqdm1jAMVReBfRaF78Sr8hCNfH+V1R3q7A0iwRYC3KG8emrcE8LAuUnNOLsBnh9vwJ/xKq/6vmPDePcUwkf4Yara2Yte2NRnYO8OYG7PPOYOcRP+eByhA3EMm9m17NlYcwx73XCWrfB5tCP9BWRvU+8so2+l1ieCIc0zEvZTPiQmwcYWMZr389e4jXDe9iKxMFbz3G8p/ReymN+bhNvK0zTb4b2YfTm9p95R+LuDsLHXgN8xw/98HInKQqo5xL8a0LyCHUD5XAJBOZDbEbw+Czt7zsGOvetEbH8Yk9vlC186hgOTmHWEMSC/zmyGK+lB/Ht1heUWNtQE57dRDP/ugpldZyQ7dswhcUa1HUXnkxtm0MNfo+76wInATf7MbKMP8/cmYfiWy4h+1j3UsGjRKm6H/q9CcC8MK/k61rpvIrOG+dFiOBhC4lQZfm7Ptq+KCHzv40cZrWxndeu8419eGMouePc1GD57FkdgUPMZAOV9ciGoNG7q0mn+HAhERpH7nN/DHoTl0jz8nYzmtfKj2wMIf5nDyPtKnmxnLAjF/ORdW9DSPzeC+e0Exp/7K347UAxgpuK3CUp7/qId0/yzA+OeGIYj7aS9NtT3/VW6JDbw/7bCviM51YdH90Y1D1TXKUIWgnUA+1ZsMwX81/JZpuDl0cLfvX4vt6wWbKjqVASuUz7h6AWC9cCzKMZPlzH2hQh665o2fP9bGPiUmWDkoao9NxA+uDbvQwoEgtcFNlMJ1XmrH+Vv5xF8RUPwgldN+77/7R7qFAgEAoGghrd3qFMgEAgEgjqIwCcQCASCdYUIfAKBQCBYV4jAJxAIBIJ1hQh8AoFAIFhXiMC3HJ4kEb3TzswvL4t6i30K2kW/+Kqg7qKi64ViBrHfX9YUgq8K5bV//YLgrxdLF0ReXf/WPPA9j2BoVStAGuNW7yub43G1yF71Y/jUPF5V6CtfHuJTp70citdHsLmrTkV5OIUe9v2U9ldjL2zF92Yrjrc6LhC8VJJTGPokRJ6qXdbWp73sur5eaB747ibamLW8A+TVAPjfbzC2L1OQ/rfBJLgvgXRyVbXShCKSpwdgPZ2DvV5h2azztUv1aKcIujWCga8MmMyW6FgJ2VMl+LaNIKlOhN3quEDwstk7C6kw2WTuzhrW2Ke9vLq+vmgY+IrXRtBzYAbl++MYkBc7DFSCYP7aUfRVJuodxtQffIrlF0mMmI3wXqtOuVy85oXRTM7s/zuF3f0jlEYEXjm9IcywBT4b0Ogechf4XxH9UATrmXYNYIb3FhrmT+7iU5f5fgYzLqt8vO+/DVpTL4qIneirTtps3IyhH5TFDZd2w72I3p/B8IfKBK1s5oCj1/S1ofjHDLx8Alc2qXXP/1TblI3zWwub2b4H7h/KyLCAxOR4oloxymnKwwc8nbp5mGp6fAl/hTF5x4dUchLO9/g+LYUCyrWLt2qIXZyB/cwU3BY2fa4BlgNBjG+cwfT19o6XtTKln3kH2WAj0WhgreSuHZqe54s4Rki+1lOadjwFXaN1vNqyf5GT9V2Z0Nk9haT2XsUkptyKzTD99R2LIl8J0O3ZQC3lWxPYbddMmOwOaZa6Umx14lYMgR38nHesGD6fJCtoTL1hW/2+ztMt3qQeP1uD7gHbau962dZUWeiOlxH5V029o/SNXVaM3+HbRPILI9fX8mTLytxD94xXdGrEZp18ebrPqBx2drwLR5nd6YZ5W5T1bmOf1rSusXscjqJ4PYAe2b8crdNjbFLXX+QRPVb1TfVGShrLvw4vMgj9Hys2fxFveE5zW62P4teMMH9ghtHI5EM/2zAiLK/Pk5hw9mgmxR/m9tUe9X1mHjP9Xdh9SW8b5cvDS4fu2cwtDam3nPyCXzKZqkv3l+4FJTvc1aXd5eM+aZ5t/z0v+Uwmyb+gHNIvwd+EZvd4PC311ywlX4q4JOycluSF+5vmjy1lb5BsW/ol/685qcR2/cP+WUop4qayB6VF9fjfOSnH06y3zD92BqUUz1MpOSrZtDJ5zJa/N0meK/yepQKlJf/VWp51mD8EyX5OqxWeh+2aPNSmw/LQ7ZCC9/h9n85JHoNNGrunbDaHyQ2S51e+yZHlXpFDLYtScKuhqnvO/BE1762Pj20ySJ5oQTlAkitkc5K61ZQck7fGRkjGBotFsmhsmenQcDxR+Rta/fxTkOYOkp38Z1E+TglKs4OQHGcXGxxvwwbq8XhRSuW4PijN2X1avSoyh8UnzannPJ2VXGiuM71tKuj3tZGutt5nJiUH2c1kRj5CtHE9t7WxBa6tEul6O5WN5MfIXXRK2BdWZEkkjhskC+lHX3bVNpYnW0WnFslXqXNKHkxc50q6Nsm20ylNp3lOWF3X+bw2ylrPp7Wqa+wem2xS/55ppUwNfBBjaV1n8jJJpv2z0iOefCHqkUwG8iFq5Wghf7VcSn0u0D0oPbKPpnWrqa3W4d4Y6cglzXK/JmVq/VpOWrzNdUMUfiRfUlM/9T7WLk3+yTeb+EzZb6uxQKYkhSmv/d9W9zA6DnxMEa6Iml2G4hS0+2TFHAlL4SP0f8XQiDYDX/N75KTpndrjSsGcF5WCNb9WUbjlpCZPDZCdOgt82qQ4S5VSGxT0Tj31taVhgGhHnrUsrQyt88DybPk6pWxwZIdTs68+2opS5dEFh4RucgzMMdHPsMUpjUZVA6sxVk5Vdq2Op6QxCwW+K22Fuhq0jlORv+PCrOQ3OKVZOXt6Gcv3rLFziZwJBmfpTILZrWWMcqRBDqbqvtbybwe9XSkyr3Uucwertl4PfRoKHaer1vsClYsarp5ftTpofX1de789JlkMfkmueUye6t+ynimw/kjyVOWta7gsT7Z1dcryAGqUyxtKuq4fa+yrTuBrKqs6Po3du2ldY/dgQaEN015S1/8OU+CtrTd6H9hS/rxcTKaL56gOb5+sNvDbpJ6d6VgSO5i8TdJokm/WUiNHffrs2mqZm/rMf/TnLmkEczp8qzOLTBqIearDT11dVhy9SUee8HXJiP6zYQxf88JLv9iFtkfLOa3uYcHwv52IXY4qw535MEK/ueA7yB5CtZc/567WeTIcCCHsmEbPu1bsPhFCOt/sPS87+nQr/xtg6C6zkUCZ3JM87Nt0J3Day297NM9D5l4G+W/6NPfpwsB3ZeQ7vk8V25cJUOdVebbHntFd7EfcPYDxVVlh3oHAtVFkD5thdHgxdT1TXSS3JTYMDALxBTY0ncbcT0a49vjgOhBH9Cbp8QVbJdsJ96BmBTNHzZAtW1fxaREl9ncmhUx+An0a2XXtmkE5n0VVes3lX4/ywygCzh5lCIh+A6eVoXQtjq36gWQD5StXlHO1IlqmSzIa3zOEyH6qX/uWTvbb7Pq69r59AM5yHAn2Zt4W+htxxNnQ1p05hAwuuA654L4ZRZytcH+bjg264dzALmR0LluZWp1+1Ef3JV1WHrHYyRe0nsS+Ux20Vdd6nXAuZ/78fI68hgN23eryBvTvspO9p+StlvLnFK96MfAVMHl5tOU6ou3Yqg55Ydp49XHBgzTVxD7YN/HtchbRE7vRw9Oz7hpHixQ5LXxmN8WCz7KY+VlJLX81hPh+L9wVW1JY1ucM1FLgzq76WzypMY4XReSYAT/PIsv+XwbN7mE5SE7stzCilHb+t8iSgrXMXzt0W+D5OYfS4xg8CMFlpQC4klXbm7Aq+W0Dajkuuc/K1i0jB1SRuwGWwSDGD5JBX2dyImfVS/qveRSTyWRgt7OytToOmHYGkfi7hNTZPqRO9MBoDyDZpj3173Ej83sC+YcU7EiDw73U4NnrQux6HPgjhmivC85O3k6qfYlH/oWxbOk9CWHoQx9yxxPIPc7Jv8SZGmf1KnkQQ/6TMbh+8mLk+mq/3N9PjRC2SnkeWQp2ODhMjteJoX0xzJMDS/4ehX2vc/VfHiuXUYQZpk4WhV0mq1/XVp9Y0ozxz4oIHGzx5v5ybJUtTHuhAK/ZSIHNDHP/HFzxOfhkpeYRcm2G75kfiaySXm4hSB6hfZr5TOfno8D5GSTpPnORJDxHPOSd9HQY+Cgyf0iGebtZbC4ictiL3NlFLJ7NwXs40vihal3auIe8FH4M4d+ymL8ch/uAmxesnfx1hsHigO8CKTzuReJCtLmBNMC60SK3Apey+vlthG2TDZlkco2/TyqjTIGJtYhZr8vuKCOV1kY2cnRUVEcvM/FWxzndBnKCowhncph+bwrT5BjbYnAIrptxzF2PIXtgSF4J2rDPC9cvUczcTtDxAX1voBly6zXRdtBtizT1anrHEdxfbfbnH69Nw6rYsmtUB8rb7MkgwlEXwh4fYh1UYtbbWGLvdxKIG5wY4D0V1giJ35yjhkgWwy5ZO3AfdCFybQaJJB3vX4WG3+20vhfB3lI32NGz6hFVz5rWtU12smUql+6btjKSCxnqvfbJW+3In+G5MI1RtoxTOYDh8zXna1mWrSYROpPHWLpEga1AvfMUJgfV69mIix3jp90wqT1N9oY4/7M5bfjM3hGMfhRC+Jc5hO/64dvL92toHvjMZhgeppCuGL0BnhN+FP7Hi/Fb6k5qRd0nRXCnULzshTdLFeZLO+xfhhHM0vZlfu4GE2WburxN395pfQ+5klCwi/0yguhND3wH1HjezrXtUaaueaaomm4ZmVtxlK0mGPmeTnD8OwAH5XXktzylRJSLZLjM4S8vv2ZqsmbT6Y4aFPZjY3Be88NLvdZKqZ7QfZb93VweycuxqoxekIyod+D/zQn/AcVpuY75kTk9iugztlVG/uooxh/4McINsfnxPDJ3SF7q8OazBBJ3yX7eZxtZTO1Y+vaWjg39cPamMXMxBd8nfGh7AxveTNC+NNx7OhiCp4o0NhiF/3AIWVV4z/NI329y/1ZYbbDcJ4cil51Kf3cCo5fUxJePdSM1Gq6GuUwp3fsT8J9ffj5N+2cwRz0x7xextu3NdnAUzl8CCKg2zRYG/WwC5tP+ymcChh1O2NMzmEn74P2Y72PDm8kZhO644dqp7FsRDyYRvKrWOcrDlzOwfulr/1OFdqjj01azri2p690ujBzPYfxE1RaL13zw/+6heqdE9HbkX6HbjrGrk8ApL6Ya+eVl2aodzn0FTDiqw73s7dbATZYnK2wW1uPn+XuexsTXoYqsmtOOz7TA94UToWMBZEnfzjrDuM0D38fjCB2IY9hMmX7nqPI5w8fTyMZcSB5UX201w36ElMBuWozA68mSsY0pY8ZMqD+NIePxIsLyaPFi8qwJQfn14YHKq79LaHYPjuGADx5qzcc/88GlLVgb17ZDMRuC16aOIxsx8KsL85Flfru3ZRTxpB+5Ezbl1WqjFUM/8/bNMvLb/1UI7oVhmNn5x6qfMzRlow/z9yZh+Lan+sr+nkDFmDuHWm8PpzBk5TJ6xwzn92aE/pyHbyM/hcqW+dGIoPxatxG2U2VMJqfRr+qr6fEc4l8NaF53DqB8LoEgc4gv0kjd6Yd7bzNt2OSKl7nv0jhRC/U0gMwDF4YG+a62oIoUW8Tkhhn0VF6hdlIlXv7zUWwPUOMwh5H3lfRsZywIxfxUrVeG4WAINz7LwKume9qAqZ99/OhyMMH1bRiu34aqDdhWyLY2itxx/vnHu06kPqGGy9eanvwWaoQUM8jsc1WdscVJdZntG6rrrDrmYBDDv7uUekJOd84xh8QZ1rtcRer5tFWsa/Xqev+FLOY+imDgXZ72GSPVuzDcaoeqHflr2TqK8FkgsHcc6XrP0Zdhq8kTdvgQQq7EhyL/oZ7fj3bMuMapL+hAIEL5+5z7PHsQlkvz8Ldr/O3Eh73UiCpb4fPU13cXZYq9kScQvDncGsHmiy4s/uxacaAQvJ2w7/g2U/B53Z6rrQ9iONoVgP3PRYxqX8JhMz19mMLkSp6Ntwv7VvJUHx5pJ9TQsKyXWwSCVwq1+B6JoCcQvKb0wbEzg/BVzZyn5TyiZ4LI7KfePN+1ZrCh3VMRuE75Gj7HF4FPIBAIBKuIBf6rc+iLDsDYZYSZPR6wOjHzXgiPIkvfsFw92Ew7dC82rL3nBsIHqy/j1CKGOgUCgUCwrhA9PoFAIBCsK0TgEwgEAsG6QgQ+gUAgEKwrROATCAQCwbpCBD6BQCAQrCtWHvjYdDO71Nk7hpUZWtYlyqu03t/45hsLW6CzB1O6uQD11FvstDNa30OhiMz1eMfTzb0prFyOglWlmEHsd823Z68VL8e/vHqbfDnlXHHgy/7gxbg5hAKblqY0B0/jTyeQPmV9CwKD4OWRwJRrGCF1mSO20n7tSspNEPbWGWzl+p7z7Ur3LSQ5haFPQkjzTcFyWRq8Xre6uOLAx2YBt+/qZzM3Ql7DrCF5pP5YwaS+gnWIC7NSAZPqXJtsdn3+Z2uEvXVKOtm+dN9K9s5CKkyu7iTWAuL1q4stA1/+2lH0sUmq2VCmsQ9Hr6kFSFNrvA++yxT8Tg/IiwkGfueHlkDnOgcwchOIHLbK5w7NRDBiNGLkFj+Fkzm9mXe12XCYF9EHIQzLkxjTz6zO7l2l+MdU9bguf83JXvaiT51gucuIvhPx6gzobJ63w1FkvhvGZj4psdFxFFHt7OrlDGbcfBLYd8x0fRqGtlZSKevSVa7V3LuYxMzhvsrktkb7hNwCZUMQPeczdO0QrOzYDqXnU741gd12dbLWLljdIWQqE80qMgxpZfQB9aAeFJE8PwwrnwBaf41CbkF/zdQfTcawX+QRPVbNs9U9VV2AkvEshoCDy9q4GcOXcrC2Ndt3dUi0eG0EPQdmUL4/jgF58cpAkyBYx95+4D0Zku+Ue3PjvDZCtonQUrk9Y+mpdmClsmmXS8nS/ftgVXVdmZ2+PplLu2H9cARxfsqa2HZdioh+3gP3D2SbvC5bT/xfmOlfugJG+fIwuuReN2vVk27+iNfoVr9czLLK8KKI2Im+6gTllO7QDzxdtW5equrBvINsQVvAVvbIjp8gWavpm/kk+ixtzYiCXOe+iWvS4rJ8EsXRSplrdNr03orMJm5RfdjB6yyzmfPJFvrR8Jf+3rXylOX9IT9eL22eP1W2S/xaDbU22TlN6mIz8hqfUaccTW2c+RtVvqyMHw5hpnZxbDZzS0MW/JLJ5JZm/+TLvD+dkzwmg+SJVtfMX7I0fkOqy92rLP7HJhk+u8G3GClpzGKQ/HH2N1tCHhJ2BqUUXza+EPVIJjil2cfKtvR4VnJ2O6TgPU3+DDZp7J6y2YxSJiUtqsvRlxLS6CZN3tiy+XTv/rMpqSQvyV+SEidtEvaH6S9le/6QQTIdmpMK/Pijb53yNdry1eXemGQzeKQ5VYSlgvQop24oS+izdHPyjUpS4XFBvidbit+wySb1H59Xjsn3JR4vSinlZNpXkGb3afXBZbg9KC3y9ORyaMtWWpSCpBfnxRw7gai9huS+MCrZNXJnecGheWWDSBw36WSxeIaOV2Sl6N1xdlHZpjze+IyOwy5N/imf0ASWF815TC+9k5RiOyy1N1W+jq8T1byedVCaVFZVno3gNlEpB7cZdPdLwbRS0tK9oCInVZQs/TSdz9MuJUclGzzSPN/WyrFA6ZtMdEw1hbWy7SbU1uVSxE31b5qkplKSwmRf/d+yPYp8YfFJc9z+WPkdMEn+BXlz2WWQ76vVyd85KfeU/11bN8me5g6ZJAzOVvLZ3B6V48y+Vb9SepyTZLHX2JesHypPxd89nZVcrG5YqP7yMheueCSDwS8l5K326oJWZkqa7eiVX0s2MsdlUfqTrjUslffYAs8vq9vbSadksypy/vbPSo/47WWfqvFHTW2ybWrrXr262AhNOSsyWmo3jW2cbHS/vsyyflVb4jQJfIqR1wa1UsSlM7KVBD7pz0lyFFVHwAKtwTJG4Y+hOGC9sJQ8OS4o92NKsnytnK2SOG5Ysq8ddOWQK5cmX4wMOTXVwP8Ok7HWOu6E5De0odzbY5KFGZpakbWwY7X35cgGaRmVEnWOadEaripDX4xvMvg95jTp1Lumldwr5//DzndJYdUIGTmqgOq+emWSj7+CwFdXvryxpTqPRsg24aMcVUl9bZFwcI5vMVpVcH15KnLMTEoOcliTGWU/gx1bE9tuwpLzZN1q5K/VKy9rbbqyTI4oUlpuGWQfwwIf93s66tVNuT6S/LL0dyt7rFt3OTX2Jetnu9beuE/UOFWdTlvdu4HM5g5C0/BsRGt5y39X6jFH9jfN/JZSJvX+zWyyfWrrQat6oWV5MqraLtfRGd5AbUCToc4cctQjdWzVj9/JC0jejCPFt1fEFi/8OyMIXVXeo4pHQrB+6pVXy1awo0+3hJQBjn470nx1YfZ8Mf9NX6VLy34D35WRf9J6nbTirRl4dyhdb/bzXuYHVHr7lDUFVboNQLkAeS3rfA5ZyqVdu+QGLLDpthuwPYDoySy81E3vOzyF2APNO2Qk8HztfbXscVbXsuOUH0YRcPZUyjFwunZlYjvsH/I/GSYzzBYbbE2fxy6Vu73XUpG7jr8ySLMhSb42mPyzsrUbs8ixUZh6ZbJYl7eu4UqpK18HBvaUEU+2MfzSS7LkfzJMZjMsm5qMb78oIvmdF31cN9YPvIjwQxWeheHtDwBn5zC6le8j1tS226XbBd9nWcz8rOg9fzWE+H4v3BvkTZla/+Ag/wDKO5PmcstgOBBC2DGNnnet2H0ihHS+5j3LWh1uIB1uTSPDstnKHuvW3SbY7ZoZ/g0wmZQV1uvS6t6cJT6VypIrlvhWc2qvtW/rq8g79yQvr76uY/sAnOU4EuwN6rplN6B/lx3xBY1Hb2CTL5NWMmps4wZ4vg/DcbEHxg92I/BTGrXmw1j55wwrgq2U60b0Uhj5F3FEf7LBf7jBYomc8t8FGDaY+RYp/twjZaFD7a/VGly3RmDbFULPT2SQjynA0y98kB9bc0zoP5NAqZBCcFsKgW1GbD6RXN4r1E9CGPrQh9zxRKUciTPN5Sfznll5GalDtHLX4wG1EWv0ULMW11uK2dxYkskTNgz83IPwn4puco/DJKkaridhPuVH8avhJZ93vA627fx8FDg/gyTymIsk4TnSfHb9crkIvGuCkW8vqwzd1C//OYfS4xjJKwSXlQIglacxZZSKBhje5ZtrbI+mDc0k8Arqgkbeq0ITm3wtaGXjGz0IPy4hd41q248uWK27EaopR5PAZ4Odul7pB3qDK9+OIzPoBLUzVgXDAT/8yQjmLkcR+sgPr85AMkjd43/KKG8HDWxTWgOs5ZVJdh40ssk4ioeCGOtVDThPrSX+ZztQj8VGbaes7poiCp2ssLzBDtfJMBaz07D8d1p5UUNe4j+15EWThqTjiPeOI7i/6nzzj9voubSE5K7r3JWRuV+Vuw6ShZ3cYqL24bEKK9NDkpW2TM+L7T/MX03s1FNYIt80Er8b4OyvU7YVkUXiZhGe02OwV8wsR5ZWw6FpTJ+cxvzZMgIHpyp5e2W2XUvvCEY/oh7YL3MI3/XDt5fv56Tv60cB2Juhht4euUe/3DKoGCwO+C5Qoy7uReJCVO7VyJAOdSuF51NI5gfgYL6jlT3KdZd6h2vh0FvdexWo9ceZe6mKvFlvj/WyddxJIG5wYoDJZpOd+nu1ZS8juZCBc5fGozewydeF9mzcAMt2HyYXcrhxMIGpa3q5Ne3xuY75kTs9QtGSm+6zKHyfx+E5PryMoSojTO8vrSjodsL35SICx0JwfuFbkm7k7ATS/APm4rVRBG664DugnGU/NgbnNQqWFPnVylV+QoptUdGtG8nJLcSRlC8qI391HOML8qH22OCGd38S46eiKMpGUUb2UhAzS7xaHZ5kkH5SdQXFZAJpkxVyX4oUFdgewcgXMd49L6N4P7vUWarIgZKCHw+45bsTGL1UTXsl6OXug/+3qtx1bPAgcLyAiSPjSKqBn1r9mbv8Q+DtXvgsMwic59ts+O/MJJb1iazZDMNDcnptRc069rbFi9HBCAKnkhW9Zb7xYeK9cfjVTyZWDStTDzkV7vjZQpynxhu+iWo/OYdJBOD9r5LfV2HbZpMB2XS6plHCRmWcCB0LIPulD07dMDE53nNBRPlYUvn+BPzfWTF6WPkgYLllKD+gc4qVK5C5FUfZqu3VRBA8n0aZ6ZDsKfpVAPF9Pgwz82xlj1R3/UdyGD82VbHvMtXJ/GpMktDq3qtA5sK4Tt6+b4wVedsOjsL5SwCBW1yDbEHWzyZgPu1XPtHodmHkOJX9RAhZniG5bv/ugb9O3a61SbxIY2JHH6XfaWka+P5l0tzGyV5I3lXzyVAdLMP6nr5P3Hyo8+NpZKMORAb5a6MfBGH8MYuwpofRPhZ4qZKYzvTIaQ18V43Ajn95YSi74N1XO4Rgx+jnBgTtyni5+YsyxpPh6kfyG32YvzcJw7c91deH91AlaNHzMhyYxKwjjAH5NXMzXEkP4t93si6wAZ4fExh/7ldeC37HhkAxgJkj/HAznsURGNR8fnCqTK2SIP92yIbR3xPw56krL+fNCOt+MlL5WB22BxD+MoeR95W0bGcsCMX8TYei2sLgx9x/m8i9hv4LWczvTcJtVc7vMtvhvZjlDtSO4MIc+q7wV7zfJSfaP4nJ7fLBzvh4HKEDcQyzz2veYc9OmlHP3siJxxYxmvfzV9mNcN6m3sQC9cpqHPrKIRs5NwvHZbYYJ5OJC4lDccwO8sO1dJOt/zIJfDWE8Tu0/Qpsu/+rENwLwzCz+x2rStew1w1n2Qqfp/r0XcVzZhixvYo9G3ewxUcTCKq6XWYZitkQvLbqq+oDv7owH9E0intH4e8OKnXkHTP8z8eR+NlTGb5vbo8GuC5mEN4ShpN/pmXcRg2SVZodqPm9V4oT09dayXsUueP88xqqa6lPEkh8XX38wfI391EEA/w5pPWMEaE/w3DXq9u1NlnOInWXGiXZTkvT2Pcvh+Y2XkT2ohc29TnruwOY2zOPuUP6wN4lsUHoVwz7XmYzVRD92D/7hiuAvj/Xx7MigeC1hX3fdqoPj8ipVgeE2Tdpm5E6KyG8j+96GdTNi0DQGa/45RbiWRTjp8sY+6LFA2+BQPDyYcNlpyJwnfKJQCN4a3iFgY/16KgravWj/O18tbsuEAheA5T5FtnsIHN7biB8cDmPNwSC15PXYqhTIBAIBIKXxasf6hQIBAKB4CUiAp9AIBAI1hUi8AkEAoFgXSECn0AgEAjWFSLwCQQCgWBd8XoFvidJRO+0M+/XcmCfTyiLmr5drE658pe91QVWTyeR/yOK5ErmeHxbKGYQ+331ppxqjvIJgfc3vvnKeRV1Zu1kwCbKUBa5fpUUkbkeR2aVZopZXV43+2uXzmX6WgW+7FU/hk/NN56b8g2hfHkIPedXNi3PS+VFDKOeJHxJZTb53GkL5r4cxvjvb6gmnkcwpFlJe0UkpzD0SQhsFfw3hTfJ/t64urJiEphyDSPUwUTWb6KMXm6eO5fpaxX4bF+mIP3v0omq3zTYDPVvFPI6Yv0YUCcR6LbBT0HwxpE3VBN3Ey3m8eyAvbOQCpN8LtU3gzfJ/t64urJiXJiVCpjsYFL0N1FGLzfPncu0aeAr35/B8IfqZLFdMO8IIC7PT1qvS1yzj82pdziK4vUAeuQhtKP4iQ01/CuiHzZirfOuAcw80QxFUA/E22VVJkbVkD5lhfFzLtBiElNuPhlrlxF9x6LIa5fPeBZDwMHzbtyM4Us5WFv6cVaGHkzcomt38Imk37Fi+HxSN8ls8Y+pqlx0x4uIft4D9w9lZE4PKIsknmhhAHI5Nlcn8XVPIam5GZNJzzdJxE70KRNi1zlHJf/dALqcIX2PmeQ73GS4qnhtBAP7gsggAi/Lr2uGpKDRJdOjdbymx5PGuNWIkZvKliyPD5S8sZk+jl5ro6f4Io/oid2V4dUusxcRtUzNdMvtKvPdMDbLk9R2weg4iigflmXl6TkwQ7Y7jgF5kUqyWdpfb5hLv4/ZnBdRZjd8cu6j12k3u5+298jyfYxPuE0/vS5I75p8sQmU+0j/dVTVnL+iOFqx3Rp51uaHUdnXuf2Vb01gt10zabo71HAZmsb+gGhhx0tpkde8pv7WqYMt6387tEgje9mLPrLzynGtLlU7vDRcsWGdPBqiHz5uXr+byIjboXqNtg60In/tKPpUG/1gGFN/NM50q7pd/GMGXlVPJKOe//m/G+RZ8a1T9zOYcSky7/svt+IV+8ClQ/JL81UzZsNmbqnPojS2ySB5ogW+XZIK2ZykbNVbSr5mH1vGf5NN6t8zLaXYsvv/0O/xtNRfszR/KeKSsHNaYovKV5a9J258ZpAsX6fkvxVS0pjFIPnj7O+cNDsIyXGWLy//T0GaO2iQbP9ZZFuEkhft8RufUdpLlt2vRbkOFp80l+ML1z+dlVywSWP3lE3p8azk7HZIYwtcLqVFKbgdkp3upVJdBr8VvBxfJ6QCkw/ldvGsQ0JvUFqUt7lMYJF8V3KVsszug6as85JHLdffYcmNfmn6sXKEoZVvQ/6clOzwUEoqGl3+c0PyGyzS2G3liMztMcli8Es3ZJ0q8gjeU+U1J3kMGnk1IHHcJGF7ULENovRYta0WumV2RWbbfzYllbjMEidtEvaHlfMZ7JzeSSpFFa1tqej3MTnaJNtOpzSd5imx9GvSYvk2HZqr6usMpaHe+96YZDN4pLlKlSlIj3LqRjtw+zNRGk+VPaU/yf4MJsm/oGzXK1vtvvbtj3i8KKVUW+e2Vb1WY1tN/UFrO27E0rxqZFCpg7U21ar+10ev79ZplDIpaVH1VaWENLqpxr9p7ZBdf4hsenC2eV3TyZTnqWn9rq9P2Q73z0qPuIgKUY9k0tpeIxb8kklrX/eCVPfd3Cdr6j2jVd1mx2GSPGreyd5zT5Vz6+uV5LulX/L/qpaV/bPKPpDRJF8qTQKfEmg8V+pJskZAMjX7ZMNwSbO6y3PS9E5IroiaiZIUpgI4LyqmojPMuF8yWMYoFxzubBPsb+aotccYpNDK+exc5si1lS7HhNFe4Ks1srmD1TymvrYscaC6vBFtO556+VQDPHd0skxqHR0ZebWC6ZWuv7diVFV5N6BZ4CNqGyFMBobjSmlZ/vQNFFYpaxstNVCAdjXSRSvdynZVI7MMVV6N/OsFB51tcfT7mBxJVj/W2Ls2rX/YOfqGm2JXfJ9sB1Wn0jn17U+2uSM8n3XKVruvbfurw1KZqHpq4g/asONG1HeQS/OvrYMtbaQBurItIw1dXuvZoWzXDmkyy7froq+vcp6a1u86Mqpbf/S+tBEsLb0/0PoIfb1neWtWt+v6Qk4jvVpOVmqpwhr4wGb5Umky1OlA4NoosofN1I32Yup6Rln4sRN6nXDq5ra1YPjfTsQuR5XhznwYIbbA6cE6Y5CDXviKIczx4c7kz1PAlz7lWUsmhUx+An28ayz/ds2gnM8ix47nssj39unXWLNY23526Niqn4feQOnkiiX579yTvLzSsY7tA3CW40h0+vZbvXyS3Af2lBFPagazHHb9zPjs/KdFKDnS4zriR/b7EOQlH5/MIXTTXWedw85wenwo/jTHhzuTCP0XlcUv2YrP+W/6qnqg38B3ZeSfyJqoTz6HLJXTXm+5qVa6ZdTKrJvKVy6gwDeXjx3OXU0mY5afhcbgVdf6Yj8rWxeQ8sZGgLYHED2ZhddqRN/hKcQeLO9d0Fr7s2/rA0jOa/GqQPlhFAFnjzIkRb+B040WC23iD9q14w5oVgfbspFWtJFG8dYMvDsUubCf9zI/oFJb5g1U5q1pZDpdb7WD+i1Tt/4Y0L/LjvhCim/XI4sMVeKYpzpc3dVlxdGbdKROfW1Vt+v6whY4d9U8LV8DH9hOvpo+4zPtDCLxdwmps31IneiB0R5AcoWv4VoO+uD6LYwopZP/LYL4fi/cG/hBHf3wfQmEoszdJhG+VLMQZu8kqAUgv4VY/YWx7hc3GvRjFFOYucXG8sNIHvLBU1e+HfCxj9LkjZBb1Fix+ODVrKZBLbsaPdBPt7Zih7zWuvWA2pI1eVPXjDSh/0wCpUIKwW0pBLYZsfkEX4F9pbyrXYF8lXgSwtCHPuSOJ5B7nJN/iTONHcZa+INlsxo20iyNWyOw7Qqh5ycKhFw24YPyVU0oo1Q0wPAu33xNoR5dTZklLJ7UNzRUVr1uvya0fquTWtP2vaMIZ3KYfm8K0/yFhqUUUWixsrLMBuqB7I8h/FsW85fjcB9wN1wx3EE9DSPracjO1gNvLz9gs8F2P9G40lltsDzMIqvtoT4v6h+OLxPWkmAtIR13EogbnBjodMFcO7V07lPLU9eTTiPxuwHO/vqG2Bo7Rk44ELoSwVwkDf+R1TBSB7yfGuVGSPJKCNZDXrqLgm2TDZlkh86det82KmemXg+5lW5XkWKhwz4i5dtOjbBEq9emN9jhOhnGYnYalv9Od/yGafqBvpeUuZeCoben4YhFmWx7WaTjiPeOI7i/2svNP27RQ6vnD9bEjpuwGjbSIo1sMo7ioSDGelXvlKeeBP9Thcqc1pY5n0IyPwDHWi+cvclONbK2/pSRXMhQj6qPb9eDeq4fUjfidntd0lZ127rRstQXdsoa2E47+WoS+PLI3MlXhzOeJZC4a4L1fbahCDB6OYqifLyMzDd+TLTxMh/rkrNgF/tlBNGbHvgONBmG6/XCY4hi/OwcbJ/7Ks4WvSMYG4zCfziErKqV53mk7/MMbPfCZ5lB4Dz/8PhFEckzk1iNT1dtB0fh/CWAwC3ubNhCnZ9NwHzaX3nl3WwyIJtOtw60W7wYHYwgcCqpkaMPE++Nw9/Bq7m1WI6MwHnJh8Bfo/AN8p0rxP6JB8Zr5CSv2kju1V6B/dgYnNf88FLLWFVF+QlVymZvmFHjx38kh/FjU0hzx1N+kkGe/d1Kt+1gNsPwkJySRgHWjZTnq2FEeeOsfH8C/vMdpMnY4EHgeAETR8aRVBt55SIyd7mdURnST9RMs5fVEkibrDCzjetH0WUcobDZmsyFcUTzSjosn75vjJWhZcVhhxC5z+/zLArfCb1lt21/rIF4n4KfKpO7Exi9VM2/nib+YAV23HZetayGjbRIw7qRnO5CHEn5WBn5q+MYX5APaYggeD6tyIR8TPSrAOL7fBhe5a+Alsio24WR41R/TlTzXrzmg/93D/wHmt3cAM8JPwr/48W46r+obMX7VF/rNABa1W3HvwNwkB8f+Y3sgu1gdeGhIr9X6QOb5UulSeDLIf7VQOX10a4PAiifSyAoZ4YE+OMN+DNe5fg7Nox3TyF8RL6wJYYDPniuxxD/zAeXbmy3Fjt8nwOx6+RsD2qjvwW+2CImN8ygp/JarhOBm+o4tR3BhTn0XeGvnb/rRKh/EpOrsdjtRh/m740id5y/Bk1ppz4hJ/B1NRj0fxWCe2EYZnb8WLP2vlKO0byfvxJthPO2F4mFsZox7w7Z4IJ7sAzrp15qGa4SvVSxumOIbaKKoG3RyvKYhOHbnurryHvIATTt/RvguphBeEsYTrNyjXHbOOJy5Wul2zb4eByhA3EMs7TfYc/g6I4HQ7jxWQbe95U0bacNmPrZp5zfAf0Xspjfm4TbyvNmtsN7kX1IQDyLIzCo+TTgVBmTC0G5QZS5m4DhiLuN7wGdmL42jNheJR3jDrLjKNU71XZ7g5i/aMc0f1XbuCeG4cikTs9t29/2AMJf5jCiyuSMBaGYv8EITDN/sHw7br+uaFkFG2mRhuHAJGYdYQzIx8xwJT2If++Uj1XoHaU6EYSNnfOOGf7n40j87MFqL9lbT0bMDuc+imCAP2+2njEi9GcY7lY3/3ga2ZgLyYOqnZphP0IBtF7Pt1Xd3jKKeNKP3AmbctxoxdDPyojBK/WBTfKl0iWxQVvB2wX7DvKdAPr+VJ89CV4teYScThQvCn28NbDv+E714RE1gtdgMFewxrR+xid4w2BDBQFE9o3DJ5zsawK1auMi6AkErwsi8L1FyDORdBnRF3XhxhoMuQgEAsHbgBjqFAgEAsG6QvT4BAKBQLCuEIFPIBAIBOsKEfgEAoFAsK4QgU8gEAgE6woR+AQCgUCwrlh/ge9JEtE7HU5V9aZTzCD2O59Wqy2KyFyP153GaH3RiRzqLMRcu2Dsa8HSRTtff2pkK1hFVsMe1tJfNM9f/o8o0m0uwKuleeBjq6O/lpW3DvXyWmdf9qofw6fmsa5CX3IKQ5+EULMGcRMSmHINI9RqMua3DLbCv965rk85vOnEDneh53y11pcvD+m2BavNq6onWYSPDyPwe+fevHngu5voeGb5V0a9vNbZZ/syBel/fVjleWRfb/bOQipMtjFPpIoLs1IBkyuYKPvNI4/UH7UVaD3K4e0jnXxjvNgbyquqJzaM3pZw40jn3rxh4CteG0HPgRmU749jQF6IMYD/67sBdDlD+t4S9aqGeVeUzRzScz6J+Ak+OXSXEZvdIf2SE8Ukptx8gmc2y8ixKPLq8RdFxOjaykS4xs0Y+qG6vETxjykMf6Ae68PRa0pO6uX11zr7mPnLs5scVmezZ91oL6L3ZzD8IV+cUZOuDM+v0UhpGI0w80Upe061nmdfkUcGme+GYGVp7+C9zxd5RI+pMuqC1T2FZGUacyVPIW1ZP6DW1IMikueH+USu7Bq9XLOXveizqgtMklxPxKszo+uG3diwUQ8mbsUQ2MEnqn3HimHSW3Umdf3wglyOb5I63ejzTGHj2lH0yfIxK7JicrINI1JvGKJp+cskr2FsVicOfsdcLcszTZ7pZ/xwCDOaVqaSB34dyWzqj2oGm5chjSnnAEZuApHDSt6HfmDSqhlmeZ7EhLNHM1Ez0ws/1pA8Zvq7sPuSPqiWLw83GAqtN7TTuT5kGZ/YXbGXLrMXEc3xcppsvk5dkmlazjbsR9Wv0Qyr2QijVZHp5k8iFd/RTFdsxZMZ1UfI+k/DsKwJMYuIft4D9w9kU6cHFJskW9JxZ5zq5lGSsIqir65/RaqPBvIh7O4aQkQeysuSjfSRL+B5J9kFblbzXtb6EvqZd5Df0epFhdXJw1FkLlXr9JJzuRxVPRgdRxHV1qeWadQbIm4xbNyG7qfuk35cin76/ru0njSVQTP/z2B1nE/Azvz/8KUcrA3jWk1ZVHlo/McSmamwmVsawpbX1y75/ndYcqNfmn7Mt4lSxCVh57S8BLy8RDwsku9KTpIXty8tSsHtkEzH1eXmlWXuHWcXleP/FKS5gwbJ9p9F+Wgp4qb7BaVFdRn6v3NS7in/+/Gs5Ox2SMF7fNn8p3OSx2CTxu4pm0vyyqizT85jZVl6tmQ9KP9BKfW3sqeUHJVscEthebskhfdDsp1MKPmV9PltBbuXYZNN6j8+L+VYArxcieMmyXRoTirI2yVp8QzlaX+Y34PnaTvJQd5RkhInbWx2Han/bEoqsWuYXHshOS8qC+8zSpmUtMjLIJUS0ugmSJ5f+bZODo+kSboWFp80J2eKeDoruaCRZc1S/kv0Snqb3UdyUeVwb4xk5pJmVV1lgpK9IsOlNC0/S8vgkeYKbIMoFaRHObah6MJOtqNSepzjaRALfslkout4Hkr39HloWQYul4rMZPRyYPa7eJtfTxR+JNuvkWs9mct2zeuIApWF7t3/bXVPldp7MjrUB8FkzGyoYtdMVvJfVfuqHKuRVTvlbGY/i/8he91HfQCum8WzWvsmmuqqJM0fMujs49G3Ttn+9bppzPwhspNz1Vpfu60nIfkNFmnsNt/MkZ+xWCQLPNK8altMl4OzXH9kr2nyX/yY4i/UcxelsU0GyROtGK9UyKpyr4Glqa3TzBceIp1V7sPryf5Z6REXXCHqkUzautEyjXo2XbuvUxsn/7elX/L/qtoe+0ebRjMZNPf/at60x298xmy9tj6o1JSlVh6Uiuw7tbbH6ezllg0e+A4lMXNZbafmEb4Ug+sLzdBhbwBjByzK0iYGO8Z+GIPhu5DSonoYxlRmDKGv7crxbhPcn/uQuxTmz594G0ttAWywwPKe8mf28hQWT4aqC0O+58bIpzmEIu0/uWqE59QYHHyVcsNOH3xbY0jcZVs55P4E+nf186VaTHA4bMj+kdD0jppTLrsxdcEFC0uALbPxIoZp6jnPfO+GSV52wwD7p6NwXlNWpVfxnRmDXREi+j/xkHw9CJx0wMCuIbl6DtsRX0ixE2QMWx2wqyutG/rh3EX9mJoFTbXYT4zBLWeKeI/KfDCLZFLfK9Gh1SvpzXfEg+ythNKCz2aR7XXCyXUFyouD+tepemP+rcpPJlCSz2P/EAYTbBY+6yjbRz+1JW7YaOFpUJvz4gwGvg/BzfNg6PVhdDCK8G+aV3qalaEtLLBv59cTpl1OZRFNvt0IeRmuP2YQVntx+TBCv7kwsowhmgrNyvI8guB3Vkxe1tg1k5Xyp4zntOZYrxveis0zWpezmf1k/8rCTteourH3OoCbqcoz5qa6eh7FzC82jJ+u2ofteBB+NTOrTj9cB/JIppW8l29GEd8bRJDyE/tD3oXk71FYdvZxH0f2+hH5L142w04npZBG5i+2Rfln5lbpwRhg2qSXux4PxtU6zXzh9zNw3SQ7YWlxHY6f88HGy27aH8LMnghmrmottkkay6KV7sso7Z/C9D7V9uSdGprIoJX/vxPC5H0Pgierx52nyTewv9tGIw9Kpf/fPtivJyq2p9LxW52uI35kyWhlQTyZQ+gmVZp9qpgIh12/TMdHfZRxEhxTRIb+z0+gT+7m8t+uGZTzWQoxlM0DIYQd0+h514rdJ0JI88U4GWxF3fw3fdXr6DfwXRn5J52swVUPO/qqS+kRBhJaGcri3FZlxeKkKrYi0uksTL097U8AvYcqhtY4/sqQEmLw8nW05J+VrRlHMqjYsx12um8Fkxlmiw22JUZWpXhrBt4dypAS+3kv8wMNcGzVjx0xQ8kV5ZBTn1q9srw8LSpBSl4cNV4danuQpjL2wb6Jb2tpVf7tAURPZuG1GtF3eAqxB6oNGOD5PgzHxR4YP9iNwE9pVM0jiwypKOapDq90dVlx9CYd0dpHszK0QzkrDx/2cBlbd423DHoy3S74Psti5mfl7PzVEOL7vXCrDZXl0Kws+RxJhBpCDVeDaGbzRBvlbGY/8srdC9Whz8x9Us4ONb8tdFU37xbY1nBliz5y7vGbCfqrjOjlGNx7vHDutWEuxup9FgnK27CLr3jIFrX+zos+VTYfeBFRjhAOBK6NInvYDKPDi6nrmerCvfXopTrC9KaywYGBrRREmbDryoEc+S59g7dpGsuhDd07qSPQmCYyaOH/kcsiX1sei5U3ONqk9vpuik3lAlTTVuk48GHQj1FMYeYW6YZa6clD1JptVoHLZaoAZpjU2Ng7Ceo2syFWzS8MFzvWTf2an3MoPY5R3A7BZaUA+FO112I/96jmOvr9LF+5RrAFd+fh/IkCrpmMwGxDoDyNxLn2XxOpjwfzteWQWixb8x7JkP+5hFsjsO0KoYdklXtMvVT6hQ/yYy8DtjjqhQK8ZiNVFgrS/XNwxefga2ixzcpvQv+ZBEqFFILbUghsM2LziaTciMRGD8KPS8hd8wA/umC17kZI8yzM82ttmhIWT+od9PLJI+TaDN8zPxJZRca5hSCFkPZwfj4KnJ9BktKZiyThoR6aprn4GrGycjLsp+cx+dQLM3vWazZjgK0WckX/Qtna6qozLIMu2K9Rw+1FHPPUEx+mhrxt0A38Rs2xfByx+264+IsbyRM2DPzcg/CfXDaPw2TNVUw7g0j8XULqbB9SJ6iRZg8g2fZr/tSbKlIj5F2+uSxWksbKdc9oKoNm/v8l0nngIzGMnHAgdCVCFTgN/5GaLN+m1gb/U4a9WWmwo4dZvdwzSLQ0BIPFAd+FBHJxLxIXotTy4a3IJHeAL5H8tSmEdoTJEZMRUJP4UZS6ztoWRadQC8ZO7i+xiq/+ZpNxFA8Fq8PAZMC5ZXzbsnySCJ3JYyxNQekxta4oaE0ONgjT7ZZ/gx2uk2EsZqdh+e+05u1cAyzbfZhcyOHGwQSmrjHrIAfLeua3l9vMbYcU9QrsmiE4glqqjQeTa+gdwehHIYR/mUP4rh++vXx/Ozwvtj20LkMytlG/OqN7QaZdVlhOxp0QgvkxpP5W6kzh9iScFXNooSs573Q/nf0WUWi6ov8K2eKE2xRH/IcYohTwnKwhv32YAkAY0atJxAed6JNlwXp/RXmYWHkMQVDPTDvwKEO9DPveUYQzOUy/N4Vp6jHW5X4KaW2PMJ9CMj8AB2sAbrJT36lWh2UkFzLU4+rj20SzNOrSTJaroHuVejJo5f+tNlge0v205enU9tukeeCj1prhIQm25s6WIyNwXvIh8NcofIN8p8qDSQSv5pUAVc5g4ssZWL/0Ka/SU+UfG4zCfziErBrBnueRvs/H1x+QoovqgTIyt+IoW00w0pb92Bic1/zwUq+mcsYTOl+tIPXy2iD/nWDpd8Lxm7fyBiL7Vd+ozGJqx9I39pqywYPA8QImjowjqRpguYjM3U4+MNdj3Ugt5QVqsSpCR/7qOMYX5EMvCTuc+6hMDs0QRs3bbhValf9JBuknVUkUkwmkTVaYmT3QOVXzyJATKMP6HrMO6pmf8KPwP16M31LvWUbxPtlH261tI0zvg2yxUfAkh2zJIL7A03+exsTXoQ50ZoHvCydCxwLIUn1wNmw8kXPYlEHoMpfHC/Zm4qjmrcM22OCmBmkO48emkOblL5Nc823JYqXlJCiQuJ5PoE99M5B+Rof6Zl8LXVHevfuTGD8VRVGuY2VkLwUxo61iLyhPO8i+brWXK7PJgGw63cSBOjCwJ4PwxTgGDg7xnqkDQwdID98nyIE7+T4K2lTVkgu8AV7OI3pqXNMoyyNzh3yf6rifJZC4a4KV7Ko+EQTPp5XzmZ6/Ihnt82GY3azbhZHjpMMTVV9ZvOaD/3cP/Ae0fecmafBGRvRyVZaZb/yYaOiuVkH3zWTQwv9juxc+ywwC56u2nzwz2Zntt0nzwPfxOEIH4hg2k/G+w57DcDa44B4kp/Opl8yjhoNBDP/ugpk7vznHHBJn1LOo8scWMblhBj2VV5md5CCV5zDFbAhemzr2b8TAry7MR/gQyUYf5u9NwvAtdZ15ZbLuISWrzrNeXhvlv12ehLCb8j9MPRm1W86G4Eb+PIqRn0hZVAFTd/rh3qs1xNb0X8hifm8SbqtSji6zHd6L2WW3bAwHJjHrCGNAlqkZrqQH8e87eyS8EpIn7PAhhFyJD138Qz2/H+2YcVFw4+doaVr+Z3EEBqufLFhPlal3F6SGUxHZi17Y1GeD7w5gbs885g5x2X88jWzMheRB9Voz7EeogrUd+CzwngvCdIYt5sueH9e2cx0IREaR+5ynbw/Ccmm+o5cuDHupN1G2wudZUms02BG8Pgs7e5Ypl9OJ2P4wJrfzw21hgOsiOfItYTiZ7VM6xm3koNuSxQrL+SKJwDYf8H0OJXUoi3p+IfsMhk5za2iqK/Z4IYHx537llfp3bAgUA5g5Il+pUM4idZcCZba9GtP/VQjuhWHFJx2r7wWce13I3Adcg9W63L/HjcyDAvk6dQiW8nZuFo7LA4puzC4kDsUxW2n85xD/akDzKUAA5XMJBBt939Y7Cn93EDZWb98xw/98HAnNAtKsnsx9FMEAt3nrGSNCf4apd8pPYDRNg8nyBvwZb0WW491TCGtlqWPlNt5cBs39v2z7C3Pou8I/dSLbD/VPdmj7bUKG2Tn/1HvlWqr5VODN59EFR93yVF6PXvBLNjpe+6rs+mJe8tV73fjPScnOXvPmmwJC84nDW0vMV7eMb5tvWDGrYQvrwZ7WiGU842Pd5QAi+8bha/YyxluA7aMBGH4LI6oZEy/fncD4Lzbq5VErkFquj352UbtqPdMHx07qXVzVDNWyIaAzQWT2D3X4KvJbDBv2PxWB65RP/zbm28Y2B/rvhxG5Xx0gK+ejGD+boTojrEHwetBR4JNnPWFf27O3tDRd8reWwSDip8oIsBkuzKz7b4Tt00X4FlII9vJz1j0W+K/OkU2w4R8jzGwIw+rEzHshPIq8rm8uvkyU2SXkYf89NxA++JbXmo1+RKNU1l1GKrNZHrKyDs7AevERlV1Yg+D1oIt1+/jfAoFAIBC89SxjqFMgEAgEgjcXEfgEAoFAsK4QgU8gEAgE6woR+AQCgUCwrhCBTyAQCATrio4Dn/xJQ2UhV0FnFJG5Hm86jdaqy5ctzlh3wdNXx9thQ3l50Vp59okuK8bv8N2CJrRYBFXQnCdJRO90MD1iMYPY78ufCvFtpnngex7B0CtwmmwF393mLvScr72zsgp5ZXXdD4cxo/lQVoEvG8Knaurq8urmeiveDFSP1a78vOYkMOUaRkidoHnV5ZvGuFVfXsEa8dsovAs+pP5hU7TlEGw2rdLDKfTU2GEnpE9ZX3mweB3y0B5vSh3oPJ/Zq34Mn5pfOil2I5JTGPokRHdaa968Bk3zwMdWVuB/vizyl4dh2xOHqc4H4vlLwxj42YbwY2UOwNxPdoQcQwhVZnIvI/ZvtmyIDZMZdX5NzZIXT0IY/j9xDN9UjpV+60N4FwWil7aSgQuzUgGT6tx9qy1feWZ2/rdgTck+IHeyawAONtl0wwmnV4M8Un+8aqW+DnlokzelDiwjn7YvU5D+V7+8U1P2zkIqTCoLBAj0sA/Y61GI+iW7BRJgkCwbLfQblW7QfnnOvYOz0vyXDslAl7MkLPsnpYR2ff1CQprcb5GPsesdn85JOXkp+BaUbkj+j/3SDUqrMh9mhZIU3gfJFdHPjJn62lI9796YZINLCmvzooHl3fAZK0UV3X2ezkuj200835AMW1zS9D3lUH1S0hjJyBfjm0Tu2366lvLwN9/Bl9tX8l2d43RF8q1HelJybjLI55vk9CjvWdovz+cXlOa+dUuWbl6uj3zS3GPlMpl/ctLcpx3eT4aVxyPNMbltVa5VZVFITkrujco+GBySL5pTDhBL5m1sYS+PIh7JYVHKJh//8oZUyV4znS27XIScJ1udawvS3PF+yW6i/d0mWXeu71vMlthq3tKG5U9Jk4M8DyamU/VejeT+SAofckgWg7KPyX00Xi1w6d605N6iypHsZDvZnHq44zw0oaFOHkmTvZA8F+n4Rzwf3RbJfS5R1SejhT00tK1GdaDjes2hfEyTPFUbMGwNkjT4IZYHVZZLysDKaZeCC5r7as9plM8W+tPXG24DWp3W1DP9XJ4t8sRQ64uB7NpkkAwWRd+2A2HyYs3gev2Vb9bC0zU18j8sn4fmpEJsVLLL5/gqdSUX9UkOVR4b3dJkUi8P+9kbmjrOfcPjOcmn2leNDFUaBj6ZOpOgysKHSfJcySmTM/9DjuCgQbL9Z1E+rjp6x9nFBsfbY2ngI+FuJ+FG+San8KOrYgyNJpVWmTsIyXlRr8LqNRRY99M9Kd8qpcc5qdAiYCeOU+D6Wq0OrOxkLBTQKkYgT+jtlGbl21YDn8yy5NuEeg6W3YMMwHE2JZXkspSkxTN0j/1hJX0icdwkmZjhNTjeGFYem2Tb6ZSm0/xslsbjWcnZ7ZCC9/i+p3OSx2CTxriz0Vfg1vZSyqSkRbUhUUpIo5tU+TbX2fLLxfP0NTkF9dqzZCfUgFjkaevL0IKmga9V+es5lQZyZ/lMUzo8j6XkKDUE6b7y9qI0Rs7WE1WdQEkqZElW8t/LyUMjmulESQcmctg5nu8a22iZlxa2tVTWy6vXaj6Y/ShZJXk9Lih54nkYW+CyLC1KQfJN1XvwclrIwVfKOSu5SGeN88lopr9am2M2QPfYScGY1w3lfHe10b0k8DXP0+J/bBL2zVZks3i23frS3D7kerh/VnrEEypEPZLJQDagmiLL5yab1L9nWimLqpsFv2RitvJU2SzdC5LMquWr+ErVpuXysDJW7atwxUOB3C8l5K0qywt8NfskKggGZ8lUCKZQy1ilZSRDBTDU7mvB0sDHFbOdnA8XYClHkZ31mrgxyNecmZOmqbVoMLCIr20tNlBOpYxKj9J+hle4dmHXq2X/O0yC90mzF52S4TgXta7sbQa+ZvJtRsPAV608MhkyINUY5MCs7aESOarYtfvqolQ+14+qBSuwMlQbAwraBoKuAi/DXqq20URnKynX7THJUiszys0Y9Tr9C8qWrgytqOvkOC3LX89u68t9KVp7U/LvuVLnmmXloRHN6pGSTm291jVIW+SllW0tlfUy63VdG1Bgo0xLdM/OrzjYNsvZyCYqaPWnlL028Ol1QgF4a9VG9f6ldZ6W+Fx2vWl0SdBYShP7kH2ixufJKDqpyEL2US5ptsY0WX70I3xKY0TdJ8tju9ZXcl1rGjm1MlRZ3ucMDrt+hnn2jONpESX2dyaFTH4CffKLJfy3awblfBbqqkvLxX46Ia/v18dfbrF9noXziH5ts8yFMAznsiiVSpD+ycKf92LgTDsrcxvg+T4MB1sH7YPdCPyURr6d16F2OOG8GUfiBVD+LYzYfie8g9SOujovP1Rmq6PjwNDSdQub0Uy+y6G3T79qfLeBMltAgf39V4byGYNXXeeO/axs7ULSV1vPIOxw7tJPvJy5l0H+m75qevQb+K6M/JM6FtCGvRRvzcC7wwrrB8rPe5kfaKazlZQrl0W+VmakwYE9ZcSTq/yq17Lry1K5ywt3she7uJysH3gR4YfktdaujSJ72Ayjw4up65nqYqGrWmdb1yPHVv36FAaSc67IrbtFXjqyLZll1uu6NqCQe5KHfZudb3G2D8BZJj+gWTG9aTnr0VR/9bCjT5cNA92jjIJcsevTLE+2TTZkFpLKuphE5j55sB01vqhT8jmqcQ7YdSv5GNC/y474QopvE73kR3XmnEWGbh/zqOuzsp8VR2/SEa2u7dr8GWCiNFg5WrE23/H1ToKisPwCSfWneclkuXRb4L6YqixwmYuOwvY8Q2WvFtR+ahK+LeTYGXS+71M3stdiJEYb7BR98nm918s+pKC4zaYIb6MH4ccl5K5RW+pHF6zW3Qjplv6vg4X6EL1RxP8A4tdjcB1ww7DFCTdo38M87cvAved1f7zsAbUja/S1iNEVLDtFLcea9Oj3cwMLaGYvt0Zg2xVCz0/k+B7n5F/4oHyVQlOdrX651oRVqi/JE+zFrh6E/1TklHscJglUMe0MIvF3CamzfUidoEBgDyCpflqzmnV2OfVIS4u8dGRbjJXm5yXRSn9rjf30PCafemE2UtA1mzHAVuG50sHLNGsA9SKX6HrxZPPAZtrA/X8TVj/w2SiI3E9UK9Ra8jyG6UtWuPcpzZ6+XU5kszUtctaqfd8EI/3HWmmJ9KK8WyX7JwVOh7Y/ZoBluw+TCzncOJjA1LVWLXwbnPtM1HqZQewqBbxBJnQHho8UEP5tDsmb1JLZoZz5WmKxUrsxiYT6icUqILcck8n2vh9qYS+sx1w8FMRYr2rMeWpx8z8r1NHZSsplp5b+fep5qD0imTQSvxvg7G/dmuyIVasvWSRuFuE5PQZ7RVS5pa++U2/fvncU4UwO0+9NYZpa0GtTZzutR5wWeenItnR0mB+rDZYlNqDA/Ajreeq4k0Dc4MTAshtVbepvLbkTQjA/htTfFHSp21i4PVnTC1sGm+zkDdPI6BoaZSQXMnDu6uPb9aDg+yE1Bm63M1rXOc0DH0V9w8MU0p186tY7grHBKPyHQ8iq1vk8j/T91VVhOR/HlNuL2IFpBPinD5YDfrgvBzB+i2f4WRLjZyNwHhySWy22g6MYuBTABP/2jy0qG7g0gNGDzJmVkbmbQVHNczlDyinD+h4Lmc1x9DuRicwg3u/BEG8eOVzDyFycQaLXBWejJtNy5NuMDSYylzTSD/h2O2zwIHC8gIkj40iqC+6Wi7IsOncuCvZjY3Be88NLvbSKOJ+Q8df7bKSFvVg3km4W4kjKx8rIXx3H+IJ8iGiis5WUa4sXo4MRBE4lUZQdH1t82YeJ98bhVz9FWS1a1hcjTO9T2L3fygGQoyBRJRd4UGCLAZ8a13wuk0fmTr46vPksgcRdshdKe/XywFh+PZJpkZeWtrWkDiwzPxQkA9sjGPkixodGyyjez8qBiPkR5y8BBFQ/wxYZ/mwC5tP+9j8dWJLPVvp7CWxxwvV8An3vVIeRjY4A4ivxT90ujBzPYfxEVZ/Faz74f/fAf6BZX9IAzwk/Cv/jrfpzWQek61VooDUPfB+PI3QgjmH2wfc77PlIO1jgiy1icsMMevizuK4PnAjc7PxpwVJiOKoqxB5Aal8M2R9d1QVxTW6EkwFkj/MZNaxuZD5JYO5TLuCNPswteJHaq4wbGwfn4PzfOfg2soNFZC96YVOfCb07gLk985g71Ew5nMEhuJhT2OusDgvsdMH9IIPCPmfjMfJlybcJFi8mz5oQtLMyDGDmL76/Bf0Xspjfm4TbystutsN7MVsZ6+8YkvP8vUkYvu2RFyJlaVr3UAXSrGRfpbm9GA5MYtYRxoB8zAxX0oP49+pK3s11tvxyKXkazfthlZ2AEc7bXiQWqDVe55lPe0QwxGWh/pQJGlrVFwu854IwnWGLQLPnWY16KuQozs3CcZktCExpmF1IHIpjdpAfRg7xrwZgVp3aBwGUzyUQlAP5auWBsYJ6JNMiL61sa0kdWG5+bBj9PQF/fgQ2OR9GWPeT82aH5DyMIqf6mXedSJGfSXxd89yvGUvy2Up/a8yLJALbfMD3ucqjJIl6fiH7DIZOJ/lJzYn8i5VF8+OTc7B6OPdRBANcB9YzRoT+DMPdqjf58TSyMReSB9ki4OxaM+xHSAerEPi6qIDsdXeBQCAQrFeuH0XXV3Y8ooCubaiz6QU3U0Oj6TPUN5C1eblFIBAIBG8O2xzovx9GRDMFZDkfxfjZDNx71RGWtwcR+AQCgWC9s9GPaLQPc7uM6DKa5eFW6+AMrBcfIXyw9VuSbxpiqFMgEAgE6wrR4xMIBALBukIEPoFAIBCsK0TgEwgEAsG6QgQ+gUAgEKwrROATCAQCwbpCBD7BmsM+gu06HONbgteBV62T/B9RpOtNYafym7cy88easGrpx+Dt6sHUazjp9arRUlZZTG3rgvc3vlnMIPZ7O1MetiG7J0lE76hT560ezQPfWhufQCBYe55HMPRa1eMswseHEfhddWhpjFu95AbfPsqXh/jUdOuI5BSGPgmRVldO9qofw6fmV32ybtHjEwjedu4mXu5kxy2xYfS2hBtH+HyZ+RSSq9+ofy1Is/U41xt7ZyEVJtufsLsJti9TkP539ZdG6ijwseGRnvNJxE/08QlijdjsDlWX7nhRRIyOVSbCNW7G0A98Rvd6vUfdPtZd7sHE71EcdfDFB419CNwsIn/taGXx2eXOFt4y70T51gR229UJUbtgbbNs5fszGP6wumCieUc1j03TJJSyGWH+wAwjWweLLUBpG0aEDwMV/5jC8AfqPftw9FrVQzS773Jpnl82NOFFVHvfmjxRCsh8N8wnd1bylDY0nKa7KbLOvokjeqyqs74TcRSfLLURLbJM2cTf9fLHbO5wFMXrAfTIeTxa6Wlo7azrg2FM/bEMYa4g/fy1AHarun7HDO9lfryYxJSbT4jMZHAsinybOileG0HPgRmylXEMyIubko3IRzgv4hgh+xu5xbc5mdObOxoKZT2brh2a+i2nS/ZzStPuvzUCo3WcegKaobG7U9jdP0J5isAr529IM7l6GWmNLRkdRxFtNjzaBKaPig/5cBihZ1a9M32R19gZs/spJCvqUWx6s6o70o1sh/yojiKV+0Mrdl/6/yD6eQ/cP9C1pweUek3XyPB7qb5kSbm4DWUu6evR2vi9mmFKmXr7coifr+ZHL58adH69tezKabLdBj5OPyTPY8StGAI7uI96x4phKl8lPVWPRjOsZiPZm+JTN38S0fca2cwtDdEtXc+XeodF8l3JKcv4lxal4HZIpuPK4vSliJvOD0qL6nL9f+ek3FP+d01aMnWWxofJI83xawo/utisMpLl0JyUYzf8pyDNHTRIBn6/TmiVd5nHi1JKvhFB95ply9jzpfgbl21RGttkkDxRdd38klTI5qTKKvpN0pTujUk2tuS+KqNMULLDLYX/5tuPZyVnt0MK3uPXP52TPAabNHaPbbS473Jpll95GX/S0c6glOJ5LCVHqQzVPJdIpwaNDkt/TlMZ6JpD88qODlB0ZqqW8ems5GL3t1D6PI+FK3Q/g1+qaHHBL5lMbmn2T43MTBo5MZvbZJP690wrZVD1KV+nyfe9Gl20y3LTZ8dBuk7zfDP7krOck2YHITnOLip2y+uA7T+LbItorZN6dU+WLdfJ4n9skuGzG/LfCilpzGKQ/HG+2Q45slWyZW15DBaLZKnxH0rdVeq651dlv/TnJMnCQyXRwPJM5XKcTUklWYYlafEM5Xl/WJFDJ8jpa+vRDcm/lWSmyVviuEkykZ8p1LsXq6cG0l2lqhWkR4pyCCZ/uzT5J/35z6I0ST7FcU7VDR09pK0/CvK99s9Kj3h2ClGPZNKmz8ver5ad6fyQScLgLFlDZ7T2ezW6kKnZV9FF1QYTJyndSn7qnK/KtqXsSA/bNbZbUy+0dqreBxZfpf4rPkH1iYotY98s1yNtn61vM50HvpoKJN0ekyzwyUZbilCgYsGh9i6MmrRkdPuUQjkuaM74O0yFskvBDN9m1EunDVrlvR5aoTcum+IkPFdUZTZHp8glZWGGYJJGk8oWO9fydUrZ4CSOG/i+zu67XHT55YaqryRUkbaSk1xgf5eksC5QKrA8V9NoH/ne27Xy4elTBayicTwN7i/rTq2kTOassVEjNuagXBGtcpWAo9/XBstKv36+ZZjTtoyRtjXIQUXd10onRJ06o9OrGng0Qbqafruw+lu9Z+prC9XlWclvcEqzsuC15a1xlA0DnyZPDNYw1DZy2oTlpdb+chedVZn8w2SoCdoMbSBnfoI5b7WBqkO1vwLpmAXPeV3jc0ng4z5NsVcVRf/Oizys1Su7fJ1Dmszy7TaR9dzU79XoQqZmX8v81DlfvWdL2TW3Xb3/Ue5TW0/mDlZlt0TeLC+m0SU20/kzPoddv77cR31wIoXMX2zttBDCjmn0vEtd/RMhpJUVHDvCvkWT+gYTTHQ3m7xe3irQJO+M8sMoAs4eZViCfgOnqwtvNi6bA4Fro8geNsPo8GLqeqa62CfRLE1ltel4dcjgQRpp9MG+Sdlkqzznv+lTuvT8N/BdGfknbG2y5vddLk3zK2NHn27ZMQMM3WUUCuzvHHJZytlW/dCm5QP9dkfYtTozwGQisW1qlF79+xt2OGG/GSdNc3qdNStLZ5FJAzFPddi4q8uKozfpiCzrDuk4/fr5lsmQfeYn0Fe5jn67ZlDOZ+kqlWY6aYMtXvh3RhC6qth0PBKC9VMvWVgn2DAwSNcuMHtJY+4nI1x7fHAdiCN6k9J9kUL8phPuwQ4mPO6luqBd/7Cbri0X0G6xVHJP8vKq6VosFs1A518ZynEMXnXNPvazsvUxScZsfGx7ANGTWXitRvQdnkLswVK/ljrjxNDlYYQvatYHrUc+R6k6yM/xbRkD+nfZSXYVC11a9g0ODGxNI1NbHduhhd9riyX5oT60pY38tJRd57a7pH5TvnLFkvy3vEL/QnXoM3OfKt6OmvITK3+5pVymm5hhYvbcbYHn5xxKj2PwIASXlYLET5VR/2VCwW8D/3O10eb9SQhDH/qQO55A7jE5Ivolzmg00qRspp1BJP4uIXW2D6kTPfIiuUm2WGKrNHuDmL9QgNdspCBjhrl/Dq74HHyaOkmtF2VRSO2Pr43V8L7LpVV+XxNMG9ZmtnhqeS6R9eLJOsFomSw7/d5JUBu25towVm+FNGr/f+FG9FIY+RcUqH6ywX+4c73373Ej83sC+YeUBtWS4V7AudeF2PU48EcM0V4XnKv9lsKq4QH1K2pkvIhROUCZ0H8mgVIhheC2FALbjNh8gq+ULpNBLO/F2N4QvJ/HNPtXkzJKRQoK7/LNlaD1eyuinfy0kt3qYj89j8mnXpjZ+xJmMwaiLty4svTlmM4D322K8vxPGfbGmMGOHk3KBosDvgvkPONeJC5EqYVTn/LzRk9H14hmeU/HEe8dR3B/tb2Wf7w05w3LRq1R+95RhDM5TL83hWlqzbdOM4nQmTzG0iUKMtSSJeOYHKyeK7deki2MpN59l0ubMmgMGRv58exfusfIKLbd9VgpNtipm5J+oM9z+XYcmUEn9aUbQfn+kLRxeznN6XZolb4it9p8y8ijAomVNWjawHDAD38ygrnLUYQ+8sOr65G0yeAQXNSznrseQ/bAkNxjNOzzwvVLFDO3E3R8YEnL+2Vg3WhBNltjE1rfY7FSvyOJxH2+3Qjq5bhOhrGYnYblv9Oal4TsGP9+FMGfqeF62Qvfb0382ibqKVH/MqP7dq2MJPWUnbs0Fno/hbR2BEd+83UAjuXopQ2fraeIgrqivQrlR/tSHp5TL7mT/DSU3SpzJ4Rgfgypv6nhTn6ncHuyZvRFofPA92ASwat5xRmXM5j4cgbWL33yq6vlByTgouqmy8jciqNsNcHINuUKHKoudPgsCt+Jl/zlTpO8M89juU+Onyu8fHcCo5fUsjQrWx6ZO5SmahTPEkjcNcH6Pv3dIk1WYZz7CphwaIZYNG8p2o+NwXmNnBD1LCt3fkL5kN8Aa3JfCsdTO7qw+5I+ALWkZX5bYYD7oBvJ06OIqmk8JEP8ocN8rADXMT9yp0cQesjzzezs8zg8x4ebvBJtgOeEH4X/8WL8luq0qFV8n2S9KgGnVfokt8+op336KKbu8nw/J/0+ob97RzA2GKUeWAhZVRV0LH2/A5lSy9fwkBxpE3+Mbid8Xy4icCwE5xfLfH18Qz+cvWnMXEzB9wl/mX0DG95M0L403HsavOC+geyWgkH6Ad9eZRweH6w/BDBR8T1JjF/Q+J4NHgSOUz08Mo6k6vDLRWTu8o+wn5CTZ7rgFJMJpE1W6jPVYHJj5gr1cA/7EeOyNlO3KptOV4be0O3CyPEcxk9U9Vm85oP/dw/8B7RSjyB4Pq3U7xdFRL8KIL7Ph+HlKKaZ3+ONsig1eIqyLyHf9o0fE0vMqyY/n1MZ28lPu7JbLbY44Xo+gT7+9in71fsSoPPAdzCI4d9dMHMnPeeYQ+KM8jSgmKWuvk19jmHEwK8uzEd4JWLDehftmOavoRv3xDAcmezwOcIKaZJ3NhYd/jKHkfcVYdnOWBCK+cklKTQuWw7xrwaqnzl8EED5XALBnXRRizSTJ+zwIYRciQ+t/EM9vx/tmHFRBWQnbPRh/t4kDN/2VF+z3kNKlCtnk/u+SCN1px/uvR3Wkhb5bQfDwRASp8rwW3kaXxUR+N7Hj74EPp5GNupAZJDr6oMgjD9mEdb0YuvCrou5kDyofsphhv0IOafV6mm1SN+wdxaZiA1hNd9m6kXIDSALfLFFTG6YQU/lUwgnNY46ePb48ThCB+IYZp94vMOeXdXH8S8vDGUXvPuWOwZmkxtymfsuuJgdyljg3AtkHrgwNMh31WLxYvKsCUE7K98Aqp8zrBLkexJskdUdqu8JYeCc3vf0X8hifm8Sbm63TP7ei1klYD2LIzCo+cSH7HtyIVj3OzXTvhmE98UwdDgiX9v/VQjuhWHF5xxTJM/uNfdRBAP8maL1jBGhP8Nwa020dxT+7iBsTOfvmOF/Po7Ez57mzw8b0czvsUbZjzfgz3gVX/KODePdUwgf4Yc5huNzmFpOfjqQ3Yp5kURgG/ma73MoqcPV1PML2WcwdFr2qFXoYNvo37B5s3j98j4v+Za83UXUe8OtUxb8ko3K2uH7iIJ1zptcv98qtG9FrpB1pdOYr67c6slg5S+3CJZJHxw7Mwhf1cxpV84jeiaIzP4hOPmuZUG9i0c/uzrqqQnWOc+iGD9dxtgXq/fKjEDwUtnmQP/9cPVxGlHOk12fzcC9V+9RReB7ZVjgvzqHvugAjF1GmNkQgtWJmfdCeBTxiKAleEmwmV+Y7flR/nYewe18t0DwprHRjygb0t5lRJfRLD8esg7OwHrxEcIH9R61i3X7+N8CgUAgELz1iB6fQCAQCNYVIvAJBAKBYF0hAp9AIBAI1hUi8AkEAoFgXSECn0AgEAjWFWsa+Mp3JjCgzjbhVmYyeL2pWYCxmEHsd/U7u3qLM64l7DXzHkzp5vTTo1+kUdCY1rJcMU+SiN5ZnanZVkOv+jSKyFyPr9L0a68YXZ18DXmexgR7nZ75vHeGEXn9nd66ZA0DXxYzR8Zh/rGgTB1zxQPD5SH0nO9k0uNXTHIKQ5+EoFlDetXJfzeALuMI4uqcm68FSpBXpxliP+OHuzF+/SXVYraCM7vn5/Un1ypfHpaPv062lL3qx/Cpef0qz68NCUy5hhFqNQnzm8BLqJMrIfuDF+PmEArM55Xm4KmZ0yt2+PWy23Z5U/PdiDUMfBmk7tvh3ME13w2kk2s2J/fasHcWUmFybeaVk8lg+kIRjt4ZzPC10F4nKsvo/MOWPrIg4urD+Mtynjv74fghhNiSBkEZ0atx9O98vZZLsn2ZgvS/y5zcec1xYVYqYLIyf+YbzJrXyZXB1tC07+pX5rDUrl8neK1oGvjK92cw/CHvttPPvEMzy/WLPKLH+iqTJBsdRxGVVw0g7lKrbIcPEXLs47ussH5wHP+vz3vg/qGMzOkBZZHTE/9vRP7Vhb7/aloRN0dg7LJi/A7fJpJfGGE9pbTvyrcmsNuumfDUHdIslcGGs7yIPoshIE9224Wj15UjxT+mMPyBso9N0nr0Wpvtctbz2DZF/Z86vMgg9H+s2PxFvDKEm792FH2ViYSHMfVHix4Sm16n7MbkCb4WGt9dH5Ldd8OwcnkzXaQN2kVe6g3n1exjstlRlZ/xwyHMtBPI2NJHB0II7ssiep1L43kSE84ezSTZ1KPQzK6vyNwIo9UKo9HMF7btwfgf2uP82no6eeGEc191cdQKT0KYvu6Fz823Oc1to4ZiHCMfWrH7El+shdtyZSJw91R1cWC590syvJ/BjMsqH9fZLEc/tMhtUVt/6pSx+McMvHzSdjbxec//1OvHtKHXDm2D5bXnmyRiJ6r1V1/m1vpTkcv9r4h+6PF5BENssmnuDxrXiwayfVHU5a3LuBlDP3Bd1dbJZn6Iwc4/HJXls5nnQX+OIjv1GJuAue9EtU7XIpeFTfYt50ur0zT1qvvgu0zBj/u4wO/8UAc0Tp/B7apDH6foO66xcaNSxidRHFXtj65RV4VpDdfbH3EEKtdvxrBanxgNfU29R0a1+5RyhrRlkv1LEcnzVTtvWsdbwWZuqc+iNLbJIHmi6kL6JamQzVWW1U8cN0mm/bPSIz4TciHqkUxsifnKuvvqkvx8k6hdFl5e/n9fuDKZcuK4QbJYLJpz2FLz1WXopceLUirHz/6nIM3u06bH7meTbDud0nRaPYd+j2clZ7dDCt7j+57OSR6DTRq7p2zqabKEvu5YgcpC5T80X5EHmxjaZKousV+6F5TscEvhv5Xtetz4zCDZ/rNI+WR575emH/MDMnr5lSgvBm36f05TuaCZfHWpvPX7SlJ4P8nrLN2PU3pM+mQyWkKNHGToepK344Iq75y0eDtX0V3hR1dVVn+HJTfpYjTJjxZqZN5KJ1zuqYhbwuAs3anK4n9IxySzWltqbRtcDv8sSpPbqRznqnKQbfnQHJdFSVo8Y5ewX7VLxQZtW/ol/6+8vHVkpp8Il92PdLMzKKW4/kvJUcmmtQcmA5gkzxWeZqkg5Z7yOy5Jq5le6dIObUNOHxbJp96by0u2RUYr/Wl5PC31w6Wz81KEbGHntKK3pvWivmxLTO+9QWlRlfPfOZIN/7tmAueWfoidT7roP5uSSly/iZO2qn7vjUk27fmkh0e5Sq3WI5fFLc3+yW/G7Nak9ZEk6Vq7rKHp8ZbpMz127uMUfZOtqek8nZVczD4tVG5eZwpXyIYMfikhby1Fn2/FP8Diq1zP9Oqgeyi+upmvqedbavfx+rOdbEBOnutMq8fSohSka5wXtd6hfZr0+KgNx5pxlYhqgGmTRenCU4su+B31zM75YONToJn2hzCzJ4KZqzUt9yZYBl2w/57g4/VpzF+1I3B2GNnrcaX3k48jdt+JgY/kE4CNbLl7fsNuE5y77PLQQpUs7Mfm4P9IPYf2XJ7C4skQxnr5vvfcGPk0h1Bk+U8JMuedGMqMI/Gjq7IsR+ziDAa+D8H9nrJt6PVhdDCK8G8NhjBJhjM/8JWuu13wfUYtxou65SI1lKlHGIHtVLCa/hY/gp/p559rCdMl/dQcGTaSPtsZjmFrk/3khf83J/wH1J6EBfbtlsqcoqZdTtjZYpVsI5+j//vh3MmPmhzo25JF8rbSomxXJyZ5cdQQ5iqt8wzCvxjqrw7e0jYY1JP49wCC9nnET/I0XsQw/R31Tr53c1lQ7/bTUTivhRGtvAxSRmn/FKb38fK2OYTlOTUGxwblb8NOH3xbY0jcVbbT348jfiiM8AGepsEEy3s8/x2xTNvoDWBMvTfJy3fEg+ytBK93zfWnY+MwvDtjGjun/FyOwflvZf3D1vWinmz5MdX3bLCQbPjfWtr2Qx6Mn3TAwPXb/28f7Ne536Fbldj/6r1IDzZLzYM5mTIi52ZgPTUJ3xZ+M7Lb0PdORL6bazFa0w7tpr9MH7dds8D0e1549wH2L8bh5nXGdMALdzmOhG5koTn2E2OV6w29Ywh9bcDMj3zUY7m+RoPvzBjscvKks088ZE8eBFQ9GuzwkB+IL6TYCR3TJPA5ELg2iuxhM4wOL6auZ6qLnlLFyNJxu271XcocOZuOMrJlAE7EEWdDZHfmEDK44DrkgvtmFHHmdG7TsUE3nNx5lB9GEXD28GEXKwZO1zo2Ozk8vdEy55f/pk/pLvPfwHdl5J90sJ6ZhuJVLwa+AiYvj8JeUWQWGbKxmKc6LNzVZcXRm3SkwX3Kv5Fj3Vld6dp5wIfc+RllHb4l5JDLkka26tevtnzQyXrWBni+D8NxsQfGD3Yj8FMaedUqG8CGouWyGK0Y+sWG0J/z8G3kB8tZRE/sRg/XhXXXuBL0GOqK1uqQdTGN1EMTHHZFN23rpNsJ9xFNg+DmDKYs9VcHb20bQOoMNVguDyN8sdpgwV8ZcoAxePnaaPLPytasyyKn8WbOXZ0+VbKjTxefDVRhy1AXo889ycO+bTWeUy7TNhx2/WrozJafFpUg0EJ/eiwY/rcTsctRxcnlwwj9Rg25gyzstVcvamVrOBBC2DGNnnet2H0ihHQjQ23XD/X2aeoq0U3etFyArIrtAURPZuG1GtF3eAqxB40qRX05G3ZQg+9mHMtzv1raTX+ZPs6u1Td1YigJ26YWNtKC2rw6KK+gvGSX4WuWYof9Q/4nw2SG2WKDrcPg2Yimz/hMO4NI/M1ebOhD6gQVwh5AclVfie6H60CGjDSPLAU7HBwmAyXntC+Geaocyd+jsO91Ki8MPAlh6EMKDscTyD0mI6Ff4kx7joO66MpLGtrfz8tbfiWWNGP8syICB5c++6Ou+pL7LJ6sZ1x5hL6lltEfI7CqxuqcQblMFZ7KvWZs9CD8uITcNQ9AvVWrdTdCTVp41fKU8Cg+CbfaEmX5d22G75kfiayii9xCkEyVs8GDUMyJ0I4umCkImW0BlL9N6F6uaFcnzs9HgV/CclCN/TQDV73VwduyjQxieS/G9obg/TxWaYkqeDBfmxdpEaN1Auy6oA39abEc9MHFGnLkG/K/RRDfT70H3lhltF8vON3Utv85h9LjGGkmBJeVAuBPtbVttTCh/0wCpUIKwW0pBLYZsflEssY+Xn+W4+NMG9T6vDqUy0XgXROMbKNDX9MW75mrDdYV0vqtTvZiw95RhDM5TL83hWnmmDfZqZ2VRkZXkDKSCxlqjfTx7fZw7nUhfnMOsetZDLvYqsAGuA+6ELk2gwR1f5z9vIKkqffXq+muE/nHrSsDa9VkkqtnyJ4L0xhly7eUAxg+r/YqqJdBrZPk7aW9jLrcn8bUH26E/9Yb6uJ/rJj5ruZFARlKn8SQ/Us/oFJUuw+NeF6s85DeAMt2HyYXcrhxMIGpa8txKCnSmR3jp9XhQSKf1TQE8pj7bwh9kRIKFIQKhUeY+7QaiDrSSa+XnN8UZq5FELrsxnC91cHbsg3K7/ejCP48B9dlL3y/ccmovZuX/Kq/daOlzlBsm+j0ukzbaEpz/S1hgxve/Wy4M4v5y3G4D7jJyhgd1osaDBYHfBeoMRP3InEhuqShuZp+CBvscJ0MYzE7Dct/p+usUm+DndxT+oE+F+XbcWQGnejwbnVYfvqr7ePaJX1fr1f21r6ht0fTMG3X1xRReMb/fEk0CXx5ZO7kq8ObzxJI3DXB+j793e3CyPEcxk+EkOXSLl7zwf+7B/4DS9rjFcwmA7LptM4Zy1359Axm0j54P+b72PBmcgahO2641FYm1W7LfXJwXEDluxMYvdRa1fZjY3Be88NLLUb17PITqizaN786pduOsauTwCkvpuQ3Galrf8KPwv94MX5LLV0Zxft0nzo95HQkhNxnfng0rWKG/dgo+q9Rr2/JAwPWGHAjeXoUUbX8D0MI/qA90UYVIEPBgX/c+6KIKPWWqp9Bl5G5m0GxIoQMOYgyrO/J7bMOscJmYT11Xlb20e7XIU3Fs2Bg0KEf4nrHWnnrqzOd2DFywoGQx4fYp0tlJtOJbZjcmLniQuywHzGWferdBI4XMHFkHEm18rFnmiSrBimsCo5/B+D4ZQQjv1EdYzvYPR8uUTzRSq/t2EanNNffUigPFOxiVJ7oTQ98B9TGSWf1QqX8gI5XDRWZW3GUrbwnoWWZfkjHkwzST6qaLiYTSJuol8u3tbiO+ZE7PUI9F37+syh8n8fhOa48z1wpy01/TXxcG2TOBRHlY5jl+xPwf2fF6GE2bN3M1yiNoejlKIpybKFzv/FjYiXmynhBPmhHHwK31Js2p0ngyyH+1YDmdfUAyucSCPJA1H8hi7mPIhjgz0asZ4wI/RmGu0lftP+rENwLwzCz9I7xNtUWJ9zFDDL7XNVvcyxOuLrZviE41R7F9gDCX+Yw8r5yP9sZC0IxP1WtFmz0Yf7eJAzf9lRfV98TqDjJZbOVesFngcDecaSZAj+eRjbmQvKg+gqvGfYjVCFrK/iLOEL/NWL08zprrFNeR/bT8TovCBkOhpA4VYbfysv/VRGB7338KMOO4PVZ2Nm4Orv/u07E9ocxWVlYtIjsRS9s6rOsdwcwt2cec4eWU2UdCERGkfucl9UehOXSPPxcGfmfdqMvOoxUpUdLPYfkCDLHqFKzonWoE8sBHwbKJoz+u8G69B3ahmnfDML7Yhg6rMwmxGx5fm8Sbi7bLrMd3otZXQNt1dkyiniSHN0JmyID9hz153ot4lZ6bcc2OqOl/upgIB15rscQ/8xHdZfvZLRbLzQUsyF4bWrQNWLgVxfmI/W/kVyOH9LxLI7AoOYzGJLj5EKw/neCrCxRByKDPG8fBGH8MYuwZqShHTJfba7cT/l5lYbMctNfKx/XAs+ZYcT2KrIz7mCLalN8kO2yma+hxtCPN+DPeJXY8o4N491TCB9h162AchapuxTss+3V2i4ybLEQrWAVyWJqx2akTksUXPguGfZtTgB9f67jZ2dvBEJ/glaw7+7IRs7W2sibQ+tnfAJBR9jg2GFA7Ko6lEG8KCP9zTgim9xwCaf5miP0J3j7EYFPsOo4z8Yx/jwgz7BgZrNQvGuDL+ND4rbmzU/Ba4vQn+BtRwx1CgQCgWBdIXp8AoFAIFhHAP9/lADXr/by4mkAAAAASUVORK5CYII=;" parent="d-dwPR9BG6M5_yMjoHCZ-1" vertex="1">
          <mxGeometry x="44" y="49" width="136.92" height="70" as="geometry" />
        </mxCell>
        <mxCell id="8edfGr-UJgzJI8FCnGSd-42" value="---Cerrar comentarios---" style="text;html=1;align=center;verticalAlign=middle;whiteSpace=wrap;rounded=0;fontStyle=1;fontSize=8;" parent="d-dwPR9BG6M5_yMjoHCZ-1" vertex="1">
          <mxGeometry x="40.5" y="127" width="120" height="20" as="geometry" />
        </mxCell>
        <mxCell id="8edfGr-UJgzJI8FCnGSd-54" value="" style="shape=image;verticalLabelPosition=bottom;labelBackgroundColor=default;verticalAlign=top;aspect=fixed;imageAspect=0;image=data:image/png,iVBORw0KGgoAAAANSUhEUgAAAb4AAADkCAYAAADn70HMAAAAAXNSR0IArs4c6QAAAARnQU1BAACxjwv8YQUAAAAJcEhZcwAADsMAAA7DAcdvqGQAAJnYSURBVHhe7f1/iFPX9/+PPucyhQQsJNBCAhaMWDDDCM2g4Az1j4n4ATP4AjNYMEHBV6zQZizUiYU685J7fWcs6IwvaGda0EkLLYmg34nQMvHyLkb4jiTl6k0EZeKlYgoKCSgkUCGBCueufc4+yTmZ/Jwf/pr9gOicX/vsvdbaa+29zzl7d0kEBAKBQCBYJ/w/+P8CgUAgEKwLROATCAQCwbpCBD6BQCAQrCtE4BMIBALBukIEPoFAIBCsK0TgEwgEAsG6QgQ+gUAgEKwrROATCAQCwbpCBD6BQCAQrCtE4BMIBALBuuKVBr789QkcPXYURy+l+R6BQCAQCNaWVxr4UpfHEbqUgK3fzvcIBAKBQLC2vMLAl0H6Nv23bxyjvQZll0AgEAgEa8yrC3wvMlh8ADj3OSHCnkAgEAheFq8u8N1NIQ4L+h0WvkMgEAgEgrXnlQW+fDqJPPrQs5XveIUkT1jR9c4ApqgHKhBoSZ7eDGNXF9mHFcOXMnyvQCB4k3llgS97LwEYbLBt4DteGTGE/psHXiQROBfj+wQChdzDLMrsjxd5RI8NYOSWvFsgELzBvKLAl8fifXInW2x49QOdlIdNyl/9jj7lD4GA8SIL05FHKEkFzB8y0Y4iQleSyjGBQPDG8ooCXxZp5j8cdgo7q0+5LLfR28SO4MINhK+kEPtsBWH4eRH54tL7lp8VUX7BN95GXpRRzFMZ+abKW1Huv6hZtMcGA0xwfeGXG2nlYkE5JhAI3lgaBL44Roxd6GLPNio/I6wn4pXjgQ/M+uNGa81xK8zvaI6bhzBDjkTmeRZZ8pQGk5nvWCX+msFuyrfxmJqPNtnohOeAA6Zuvr0Msj8MwGo2VsvLf8b3B6rlfhshmQ9YzcpzsLet3Fts1YYZ2apsrSuwEYFA8HrQIPA5MV2SsHiWf1i+dxYFqYTcBaeyTccnHxcgZYLUXyK2BrFYytUcz6HwzyKCWynAHZxDoTAPPx9SRD5HfT5qTX+wygOd1PvIUUC1b3v5H8TbTi5CkjQy62UykWjfIka3KLveSraMYpHKLf0zD4+8w4XZp29hucm2GM5+MRwuELzpNB3qtB8fh5v9QXW+dihLx4MU0s/53zqKyP1lgO9zN9gTkgqZFNj7cVaTUdleLfLUk6T/DK+wVW7f75UbA/bDHtjX0weK3Xb09dL/vU4431N2vVX8uUg2a4dr8NU/lRYIBCuj+TO+DR74PyPvfTOGeJ3Alv0tjPJW5uajCF3OKzu13AojBB+8H/NtFf7sx2LROJEHU+jjw2Te3/g+LS+KSJ4fhlUzfLr7knrPGLxs364ZOUCnT2xWzrFPyAG2EeWHcUSvzmD82BD6PjDjqPa+T6IYOR1B/q8QvJUh3DboXk60o7J950WfmZetfwoZWUbs+VkG8asRTJ3wYveHA5h6qOxPfzNA53qp5FWKf0xh+EM+3GrsQ+B6EXjOr/9qBEM7rPoyEpnzffL53mt8h0wR8RM9SjqeKN+3HMrI/E73PhVA4JM+WM1DCHGVFe9HMPIhpW8eQVL3LJDpOYCZP/KInz7Kh0tZOmSDv81gxLMbm42UDhVNS9TDZMflsQZlzj5Ik8G64Xybe+8CwTqh5cstzgM+GCiwhX+r7fNlEf25DM/VOYxtAuI/zqE29CWvhGD60od+vq2SfVgzKTU5qmTZi8A+vl3LiwymdlnhfexD+m8Jqa+VJy/VwOlCWJLw6IKD/rZj8k821Ea/zJgyFNuA8gYbBvb4MFCOIf3EAIuVH6CShP49jPi7/bBscqLP2rS/u0KKiB22wZmk+z0tYfEsleGPAIbOsJBdRJb+69njhv1ZBPGHRpjY5x+3AnCeLsL1qROVLFPDwdk/juLnKZSo7IVvrZhyDVOAoDLu88D9fhyxO3mU+OmMzHcjiJX5UyxNLznz3wDSViZLkqZD+X95GGDb4cboWT+smTTydK8eprK/sihs9cDFDKMYR0L7LPCPIFxf5WDbaYFzh52/IGOAfdAF56AZ2ctxZDcNYEA7hPAihrnL9L/FpsjDsPplztzLwHBgCCuRhkAgeD1oGfgw6McoBbbYtyF9YLsfwsxzD7y9doycIA9GvY3p+/wY40Uc4UtW+DyNXIUBZva2wIssYkkD+j+ywKQbD1WhwPBvJ8LuFB5964KFOlSOHcxj2tHzoXJGBfk5jAP2NlvlJnKUFpPaQzPDXLl/CvHfKUA/ZiW2YfSkS9m9Ftwcx/AvBoyecMNEvUX7yUn4KUvZq1HqrVrgGLRr8miB1ZLHzOkExu8tYv6ijzti2neEHPfOSYS/tJNkqWyDTpJQHPG0AQbakcmwQGpHn9oSuDWB0KYg3Aa2n+uCwfZvmcQon1jAsWVl790a5LyXlQDWyz5fySL7wgZbg+Ho7EKMNJ5Hjol+32j1OSE7nz8bxg7SMfufU6Ree4T98Z5ZGVInOa5umZV5Zd17aptwAoHgTaR14CPHoQS2MOae8F1E5koEhs99sgOy7PdSry6Lqe81Q4ILUYQsLDDy7SWQ86PWf/ZmFvY9jZ1r5rwTQ8UpxE9WXV36NruPlQKCsq2Sfyy7xWViVXpTMhQEyXGWv/Ov+WwusZ/Y8OwQBrbzHd3Um9lD/z9YVJy8TBbUYZIp3wwiuneu4qRlHoYx8wf1zqmXWhk8Lhage/Ge95zkAFKMIRB1YHyfKkBFF9r92Yc8OLwvn7BCsvK8rLDbYX0IGJs0TIwm1meLI/AVC4D10b289CKNyW/LcDJ5sBirZbXK/DyNxAOy5b18WyAQvNG0EfgosB0ZgRtJTF1kjoGRQfgXC/wHecDa6MPIPnLKP0UR589r4ldDsPHAWIvSEieeJZG1OquvjNfyJISRU2bMfu+pvhxDPUl5phW596PsUinU+Y6ufbTp9cP7KbtjGoH+3QitWfAjh0o9S1CvuSonA+/5lrGkOBYz4j/k4PtML7H8zZj84oVzl1KAcjGNic8mqN/kQN82eReH7rOpiMgXUTjPuGSZVhsLZcTOxDBwWtmv9J55cFgl7HYDcqzBwrfrYdnrAXs3uPjLEPq+iOuDH395Sdsjy34XQPYrH2w8sC61pVUo890E4vuG4GzQSxUIBG8WbQU+9SWX7C9h5WWR+2FELF4Mb5SPEga4D7rJj8xg5io5DwpO0Z8c1cBYCw+OsYWC8iagjNqrqQ5hxs+OIPHpGHyV+5BDvEr3YP5pa0+Nk6NA0aiL0A4G/p0Wp/8CBff95A6LcRztP4pY3bdWV8gLcuQshm8jZ6vs0UABsLYHUwwh9p4fnppp3nLZRfo3i9CRPvQ5vRi5kID93CIKpZQ8TF2RLZWxfNmHub2TcPE0lMaCA7b8OEL2cbjlCKA2Tmi/+gnKKlCg3n15U7VQyvM7m74BQ42oueSYPISb/W43nP/V9OILBdIy9QrVJKhhdHTBhxnSk/Y5nsLqlTl7O4EBsYqIQPDW0F7gI5yfj8L21xRmblI/JUK9Oe2wGmHYNyx/+hD9NoTs9RBm+n2awFiPLOzbeUub8SKNFHtGaHAqw1bPI5j5oQz3XvXbQOJFEsFrLkwfor83GGocUY4CAP+zI7iD1EyfVmaOsdsCTzSLG6x3RQFnqt5bqyvlryz1+Yh6b4LqAnFGkU3ZBM+/NfLg5J6wvLkxnUwhFQ9j9owf7kH70sBpimP8gh3jBypS5yQROFlG4IhGo7xxsiqfhvyVkRtMeYsV9kp6FPTv0X/a+VrLRbmXa9oZRCozDSflP31qinKnhXpwrGHEXng6EIPvRw9M+Zz8/Nlur9PQWoUyZ+6ZyQ611i4QCN5k2g586PXCs6mM0NUJhH/qgWdfjSOgXqGPBaQ/ZjB8JgLnwaGmQ1qwjMI3yP9m/EG9RPrPdtKvvAV6c562NS8msJdcjgVhPetTekd1h7VqSSN0SQ4trakEiRhG9syQW2aY4Px2VnnZ5HFO3rMq3J+B95uk3HtZSp4CGf23Z0Du9egwDGNIfRaoRXbUFDSW9EqzmPlXAHG6k9y7ymdgOjwChyb4KL3sLCyecfTX7q/pBS8bujcrq3OX9uNvHswPuCpv/WZ/cMLPhn4ZW/0In6Mj5Zw8yw9DeQbHYC88DSH1VQgeFs+KJDO2W9eAWK0y03644GraiBMIBG8S7Qc+CkK+z+0o/zCOKbsHQ3WimusAm7sjg/QdF3wHm7eQa18Nj1MvskwOJnhCiXTyd1PkdFL3iuTD8oh9MYDgtmmMbulgSPNJAtF79cNLFeqNMAesCaQl7SXdZvmZm4OOdwJ7/b0RmStTyL9nk3sWsqu+nZZ7RDLP44hRr5oNHWvdOMPwKXuJaCnOPeyt0xjmaj85KSYRN/RhgOQov1xCvcIRbQ+ngqv+fk0vuG0eZuXe11Jq1l68k6CAbID/iOaNWT47iorpPQpBm+xwqILgx1NnnPBhWh7ilJE/Lif5VIIYY7XKbMPoxdE2GlkCgeCNQeqEPyclcv+S/dwjvqOGf25I1DuSsC8slfiupTySJnshOS5o0vg7LLkpXe2+3EWnxLKn/kx7ZulKxqIU3Er7DA6pf9AujcbUOynpkqOSRpO07+9FaXa/U5r8kx9uBN2bXK+EI/PKdnZScsAkeaIF2ihJj350SyaTX0r8oxxuRSHi4nk2Sc7/zEuLuUJVFn8XpMWYn9K383wtSmOblHPl+/1TkBIn7RK2T/KycrjcXZEGUv17XvKZKB2TW5rNKOeUMnOSb2u/NJlhW/MSNUnq6CUljVnq7efnW0al+duLUo7vbUbpXlDOY0X+Wm6PSRa4pPDffJu48ZlBMh2al5iUVeaP0PXbg9Iiu/xpQhrbDsl5sXr3R+dINuweJJ9FjT7U/fb9o5KH2cT/sr2rVGZWLotPmtfkXSAQvNl0Fvhkp2GQ/At8sw7MoTV00DKPpGkKSNNpvkmkvrYtdfYFckTMmXdbJPe5hFRQHd0/c5LH4pIm47kax1WSUhc9EvUOFOe40S1NJrVutQHklO0Wu+S7wl3dPzlp7lOHZOpW0jF8RI7wqXKoGY++d0m2TTbJstHS/MfyZxkjSXIys5J7i0HJc7dJcnw6Jz2qFZ8c+BzSZJZv1+MxBbrtJiUd+pm2+6S5P3lCPLjrGhsyirPXBhcZkrHPZJecB8ek6Sup5oGPB2X1vtqf51d+zq8eTZkfSeGD1GihcuZqGhOF5KRGFqT3bxd1OpYDo8kjzdeodf6kUxr9MSU9eqo5e5XKnPu2n/Jjk8Y09ioQCN5sutg/5GheHWyqssEUgpkwXLXvHwjeDn7zouvSEEq/epYM37723J9Azw6yz6dzcNe8TSsQCN5MXm3gk6ci8wE/JfQfZAveKrL/7UNPdgalb+s9oRQIBIKXSwcvt6wy5Qwm+p1InYqJoPe286IM+2p+CS8QCAQr4NUFvu4iLMfiCFemkBK8rbAPw+1L5r8UCASCV8MrDHz98H3a2ScCgjeUFxbYKstICAQCwavl1QU+wTqBfRhu1qx8IRAIBK8WEfgEa0wehfedsIs3IgUCwWvCq/+cQSAQCASCl4jo8QkEAoFgXSECn0AgEAjWFSLwCQQCgWBdIQKfQCAQCNYVIvAJBAKBYF0hAp9AIBAI1hUi8AkEAoFgXSECn0AgEAjWFSLwCQQCgWBdIQKfQCAQCNYVIvC9zjxJInonzzdWgyIy1+PIPOeba0IM3q4eTD3kmysii6ltXfD+xjcFq0r+shfWd7rQ1dUF6+k039uM1dTtClmNurHq9WutWYf1YY101Dzw/eaVK0XX4Rjf8eYRO6xU7DfRWLJX/Rg+NY/VU3sCU65hhO7zTcFLoXx5CD3ns3xr5axKei9iGPUk4UtKYNP15k47+IEq6VPW17bedFw3nkcwtG2KQkeV1a9fr5o0xq1eap68CdTL69J9a6Uj0eN7jbF9mYL0vz6s3trlLsxKBUzu5JuCl0I6Ged/rQ6rkt5fGXIz/RjYzre7+f8V8kj98fqGhI7rxt0EaqW2+vXrFZNPIfmmRPF6ea2zb810xFZnaMivHrZyg4RD83zHUnJRn+Qw0TnsvG6T5Ph0Tsr9ww9K85KH9huOJ6RCfFRyGOic3knpkXysJD26ornWYJPc5+g8+RjB7+2LJKTJ/ZZq+l/ekAqZWcm9xcCvc0ij8cpVS5g/pKTv+ZXv4Ok6v01I4UNquhbJfXGRn0A8npN8203KMfYz2SXn2QTlWJIenbMr+zQyWbpPKTeOhKXEObdk6VbSMW0flW48XZRm99skAzsOg1IeflUtcrpqmv8UpPkvHZKJp8Xk5fpek+cKJWnxW7dkY7Jm56kyk4+xfNmlyT/lDTl9+9kb0tynDn1+WPk/qi9f+RrS0w3Ki3qNbf+stKjTuXKP3Lf9EgZnpRw/IvN3WHJr8qCjtChN63Q9J03v0+iuJv8Kq1SmDq5pv1wFae4zu6J/g0WybKQfpSvzT05zP0iW/ZNSgmcpd9FJ9SRYlek/i1KwF5Lz4v+vcXq1FFi9Ue1Mn34h6pf6tyr2bWJp7J3mdVIlJU0O8mtNyn1c37MzFFkHr0xL7o1KukwuvqhOEopPUO1vo1uaTFZlreeRNNlLMkvekEYrciY/oK2LrL4empMKsVHJLtu+j3Kh6Exf3zzS3D3Kl8YvqPli5bVb2LUGRWYbqR7S/k7SkFF1ZjBJFpNBMlgU2dgOhPW2wHkU8UgOC09LtSl+TC2Xtq4aPvJJc4/5cUbL+qAhPSk5Nyn3knW60SVNR/yUV7+U4KcoLEpjm3gaah4u1vgorbqa2Gkrn1RITta3k3p5na+zL1urI8Veggvz0qjqn5nv1saNNnW0osBXiLiU40yp+1wVYzfR+UpGmDHRPlZ55PPot10JfHLllo/1S6PnSEBblOPOizx76r3Zb6NTcg1yA+A/y8ceybVV3fZI8xXHq6dR4JN/W12Sp5KuTRq7zU7ISbODynHbXp/k+9QjOUl5/d8q+ZIVwc7XyGTpPl5u9iPFOPc5K4Yl/yz9kmcfv4Z+dQ2Z0Cq9FHHrneHfOSn3lP+t5d4YVSSqwKollArSo5y6oTgubZAATJInyo8/nZVccv7o+hwL86TjKx5d5VGusUi+Kzm5IcAqZ3A76ZwaNwqae8jBoF+a1lTmErOZndN1HEWJdGUg2yEnJ5eRGkbfKjbSaeBbXpk6uKajclEOyQbt5/ShJXHcpCvr4hnKw/6wIlNug44LyjWPLjh0gbZeenr49V+TQ1DTP0tpaO3nz0nJzuoN31wKczK1tsntentQSv2t7CndC1I6binMt6UFv2Qykdy4bS45rkO5Byzk8Lmc2fkO0oV/Qd5U6usmm9S/Z1q5J8+/tm5U8rVTk6/kqGTT3pelU2l0K3SaxuJ/bBL2zXKZ0vZZrc6WUsqkpEX1/qWENKoGHAb3Q/1nU1KJ6yhxktKvpNdOfahhiU5ZkDNI/jjfZNwekyxkxzdYmrV5oEA2d4gCisbWmtlpU5/0eFZydjuk4D0unadzkocC49g9ZbOu/dXZp9fRUntR6mo13XZ1tILAxzNBQc/zK09Wdghsn+qIuDHRr1oJGeq1GiU+npb62bmqcar3VpVEWQ9Ta0fepxbkHzX9WmdYpWHgs4xRu1bhxmdKS4P1TLV50+dZQXGSdFwjk6X71HxVjU52jPK+akVS89bIiWmVLl/PjKxWg7XIhl11PHpYvmqCBG+IKCgytp/V9iTrXFPjQOR78pZ47fl6J604ZFekTiHIdlxL9JiQ/NSYqlZ0fdoKq1SmDq9pu1zEkkAl261LHwxy5Ci0+7jjmPx1UnJ0O6VZTZBdkl4tsj5qG4MpaYx6H5WAsoLAp99HDZ+t1XRZ3vRyaCYb5R61ZUl9TY3RIzxncn11SbNq242jrRvt5EtOp43A16psuryyNE2jNT2qxuiul8tVo6MMNRI0javW9aGGloGDBTLq9X7NPV+9PMj3Jbuj3lYrO23mk9h9K/fh6O69gsBXay9zB1HpMLWroxU848sgJb8kYUOfnTrCjA39GOhlf9CxjLyH48H4mX5Ql5ijXkv9wL+iiF6lX5I/dr6foqMa9jvhlK8zwGSS98De309bRLcdffL9lsGeAaiP8wd2OeX/y8UC/UttvGMUgon0NwMwG60YPp9E8YW8q0PccO5S/jJs4JnvHUA/X43cvs2u/NEGhgMhhB3T6HnXit0nQkjny/xIDdsDiJ7Mwms1ou/wFGIPGpynYrdTiVUUGds2VffUxaG9hvioD06Q3v7i2xpcR/zIfh9SdPpkDqGbbnj3cXvRks8hSxqxb+HbMhbYdNttspwydXhN2+Wqh/x8LQbvu8qLV/LPehRxkkBOfcax0YfZc0DgXwGYvw/Dt5Hvb4dcFvnePth1z+0cGNhTRlytZ8uG6pzObA0wdJdRYFWH8p9JAzGPsVquLiuO3qQjT3Ly2fVwbNXL2bGD6uO9TPVFlF7yAbz6NKZZvtqleRrMHjIL5AuUTWTuU2F31NQFDcVbM/DusML6gfLzXuYHVGp11E32Uy5Avt0q1QfbQT/6fwkhwt7kfhFH+JIVPo/mRabaPGwgO9maRoYZdgs7beaTMqS//Dd9GjvowsB3ZeSb2EG71NqLgfKfK5bkv9vV0Ut7uYVlbil5RL4YxvAn7DeFJN+rgxnDS8Z2PIFSZg6jgxSYX+QR/WoAtmMxtAghdalf7mXQTW34n3MoPY5RMyIEl5WM7ad6TsyE/jOU/0IKwW0pBLYZsflEsqO8mzZ0KPNymQzNDFO9ywb9GMUUZm6Rtq+FkTzkg4cH/pdJx2Uiml6z4nJ5QO1Y+Y3K6m8RoxrHVnxK1ZfsJ5tdubN4mVCPpKZcEhZPNm5E1FIuU7nfNcHIt18X7KfnMfnUKzeGrWYzBqIu3LjS4MWLWyOw7Qqhh+po7nFO/oUP8mMvE2pAjeyPInSZItUC/b/FD1/TzkIZpSIF/Hf5ZjM7beGTqOdVcx39fnbxo2tDuzpaQeBTe1sZxG/z+FpMIi735GpbTrWo19owdrtGMFIYaysazu9xJHkvLrGgvO9l2WiV/wftN2x1YzJOSl0YlYVWvBan1g+hBuJnOd6qKCJ+U9dHXVMMFgd8FxLIxb1IXIhWW8W1bLDDdTKMxew0LP+dXvJG24q4TS1C/qcMe2POYEdPXQ9gx8gJB0JXIpiLpOE/0kC7FitZQ5Z6BnxbpojCM/5nI54XK627l0ub5aoHldVOzbxEs89K7oxj+Id+zGfm0f/DMMbv8P3tYKdWPBs50Y1SpJH43QBnf/sBqHPI2XwIJG93Vh/S9/Xns7dWDb099QPKq+ROCMH8GFJ/UyCjbmDh9mTDnmiWylA8FMRYr9p4yiOns+0WLLc+LMEAz3E/EpfnELkaguOYV9/7ITtJa+1EfrNyAA4W2NqxU6KeT5J7XsnOGtyrQps6ai/wsQ9deXdd/rlmqHA2+M56qH/Bhjas6PvXEPrUbzD2jcPXtEuuXpvFRH8Pho4dxVH6De2gCL2K3zs1JT+Fgff70OcwYvcPTD2UJ3kIIIupfuolOb1ynnxfh5VvSHh32bbHpRjO9aOw7xrC7g+tOHqd7Vhbyg8o2BRVMyojcyuOsrVOq/hJBuknVXMrJhNIm6zUH1tFHkwieDWvGHU5g4kvZ2D90gdlgHgpliMjcF7yIfDXKHyDfGctG9zw7k9i/FSUDyuXkb0UxIzu9WYbVagMtV4zyr1fFBH9fLTmW6CXR1vlIszUFc6m09UAvcGDwPECJo6MI6k6MurlZO6q5Upj/MAU+n+cgWuLCzM/9mPqwHjFQS1Jr5YtXowORhA4pQ7Rk71848PEe+Pwt/0pixGm95cGpeaQkz3hR+F/vBi/peaujOJ9st0mkyZkzgUR5cNk5fsT8H9nxejhRta0TKj1b3hITn4lraQtTrieT6CPf/TPfkZHAPE6aVo3kpegBnVSqSTIXx3H+IJ8qD3aqg81bDBR0yON9AO+rTLow2gmAN9PTowcqW1ORBA8n0aZ3YPVp6+oPPt8GGantbDTZj7JfmwMzmt+eKkHWDnjCZ2vBvJ6eW2U/05oU0ftBT4SSP5Jvvp7rBTFtC+MTNQHh6mM9G8xqpgmOD6dQy6qBMRmKNeOwrkpi9ilEEL0iz+xUU/wJQ1wHAxiejCH9F0qi4FaLNEEgnIv1AjbNhsKCxE5TxGqwLb9k0io3eXeIOYvumHppth5K4bEBi/mktNQnhKuHcVsCF6b+uzEiIFfXZiP1BlmeRZHYNBcUbr1VBmTC8GGQWlZkOyGf3fBzO5h7MOcYw6JM0s/gK6wwQX3YBnWT72V56pLIaf5YwLjz/0wM6N9x4ZAMYCZI/ywjB3B67OwX+yBkd37XSdi+8OYVL9Fe9m0VS6g/6sQ3AvDiryOKX3v/gtZzO9Nwm1V9NRltsN7MSsHs/TpYWp8hTGzX6lFpv0zCG2bwDCfXaVeenos8MUWMZr385lZjHDeptb4wljNc79mWOClgGQ60yPnb+C7NhukH08jG3MheVC1QTPsR0LINgl8njPDiO1VzjfumEMfq4urrdOPxxE6EMewmfL0DntO1SEvkghs8wHf51BSR6eoVxGyz2Do9NKHNIYDk5h1hDFgVGTgSnoQ/74TL9FOfajB4sXkWROCdnbPAcxUnrk7MHTIgPJeL9y1w/G9o/B3B2Fj+XzHDP/zcSR+rvrvZnba1Cdt9GH+3iQM3/K6Sj/rHgpAagCtl9eG+W+TTnREB9cX8ptM+rcyBe1T+5ZYW8hvh9W+ofYW8LaW66VR783R15SYb+nbzMSy6sNLp4GcmS+sU6Y3lg509NJebhGsV9gwWwCRlsPfbxpva7kEddnmQP/9MCL31YE7soB8FONnM3DvXevxnpVRZMOsz8cQ2Mt3vK10oCMR+ARrRvY8GyYzoo+9WaUZPnnTeVvLJWjCRj+i0T7M7TKiy2iWh++sgzOwXnyE8MHO3xh+KfC5ls0nypi+HoRjtd4wf13pQEddrNvH/xYIBAKB4K1H9PgEAoFAsK4QgU8gEAgE6woR+AQCgUCwrhCBTyAQCATrChH4BAKBQLCuaB74niQRvdNsjpw2YK/U1iz5LxA0Q/5c4PDLnYjsVdxz+cTg7erB1EO+uZqsQp1/s2T5hrBWfnTZ6WYxta0L3t/45htG08CXverH8Kl5Za7K14HnEQy9rCD6cAo9XXzu0TeSN9swBVXKl4fQ85LmsH0r6/xa1uWX6ZMEq0bTwGf7MgXpfxssu/EqYKsA8D8FgvUCW63gZfHW1nm27hz/c1URPumNpHmPTzdkwYZXvIjen8Hwh3xiUmMfjl7Ttw2L1wPokydm7YLxw2GEnlk1laheL6Rm37MYAjuqkywbPxzCzH1K99oIeg7MoHx/HAPyKhEB2eBYHnvOZ5D5bghWds2O/yfO9Hdh9yV9vsqXh1d3qKCYxJR7c3UCVvcUkpoZwJfmi9+bre93rK/BdYqMQ39MYfgD5XjXByTDB0Ukzw/zCYfZNaGaJWfagA1pHI4ic6majnmHftbysla3uuP1htZq9snph5bm8xmTk1VJ8x0rhi+1Odv/ixxiJxrJieR72Ys+a3WC3L4T8epqBQ1sqCUvshrdUJrHoshr5SzrnJelzvGiVm+1dUOV/3fD2KzWD8dRRJsuVcNWn+iB+4cyMqcHlJVRqJwq5TTpq9H9iKb5aUDndZ7yRmXS2lTaoF34pg3b6ajOM39B197PYMal6KJvKoIRoxEjt3h6nMzpzUpZ5Fn/VZT8qjpgEzPrbKceHfokPE9iwtmjTC7NrpHrsJwSoeR/4pYmTVYv2GLX/AxGcz9Kpbg1gd32ap70PoHrjeVbnvC5q7KCTKt0G1ImeVfqMZNZGjo11xsyrdkn+8Rv4vo6xmT/JIqjjqp9BW6qkuCy+n3p8fy1o9VyVFZfyGOmXd8vz9jZAP3knsrS/NgZlFJ8KfpSclSywV1dml5eOt4hBe/xteif3pD8W+maysSh9SZL1e4rSeH9kOxnF+UjjNLjnFRQl8avM6kqy6Nhk03qPz4v5dht6dxSxE35nJaUxegZlO4+SP3fVve0pN7S+BVy0uwgJMfXCZ63krR41kF5C0qLPK/18sVIHDdJpkNz1evOkIz3h+kvBpfxdnU5/5KUOGmTJ9XuP5uSSuya0qIUJHmpS+03pkbWfHLuSjr/FKS5QyYJg7NcTovS2CaD5IkW5C1270KWZC//XW8y5pp9PH0H6U7JekIa3URl6e6XgmmldKV7QZKpU5ptkXXZ7mCSPFdySlosrwcNku0/GrvIpKRF1e74vdqyoQZU7qmWv/RImt1nkEzHE8q2qnO1fLV5ejwrObu1tj8neQw2aeyesrlE/pSKrNuK7hszf4jKc05r9VU7qdRFWbaautgqPw3otM6XqFwGk0eae8q3/5ym+9I1ujSa2U6ndZ7ZNcl9S7/k/1W1D7Le/9gkw2c35DMUUtKYxSD54+xvup9q5/fGJJuB8lsx84L0KKdu1KNzn8RsZfE2zxtR+NG1xAfC4pPmZMdAPJ2VXNDopqUfJR4vSin1erLFWfJvVRth8rVJtp1OaZrXPdn/tJNuXUpkg1QXNH7r0bdO2Z51/qU2nZp9S+qYXG4mC9IHL0vhCtmTwS8ptY7LSmNfsizpGgvlRfGrSj008Hraru/vOPDpgxY54a1kXAvKVupry5JZsHMXSUA1Stenod2nZNJ+hjuXWuoIV86jZVRKqIbIqJ01P0dOAK6qU2iHZoHv9phkYce091QrGpdF43zV5EOXN0XGvph8RIHfa06Tjl4vjaiRNZNdbZ7/DpPhOaTJLNtQ8u+5Us8J1MhTpmafnL5PJy/ZHg7O8S1GPf0vRS5fbSWKUvqVIL2UanBoYUMNqHtPWfa8TMweLGMkJQ0LfsnA97HrLV/rjlIjx1DdV0/+GQpWlUremEaBr1ldbJmfBuhtq9V9uKx1eVPu01Hg66jOKzZkOVkjNbW+qvLV6EYH0ykLfNyRtqZzn7QEnS9R8l8rs7mDqDRmW/vRpdTTm+tHfV1eTroysp+o1WFC8htq/EttOjX75Dxu157DZatpVOhtQ5GV44ImVZ6XYIZvM7T3adP3d/g5Q+3K6gYYussoFJSt3JM87Nv0I+kWSydPCwzwfB+Gg6239sFuBH5Kg69P2Zw9TvRrJ2DtdsH3WRYzPyvDavmrIcT311mLarnkssizZwa6SV8dGNhTRjyp6VDX5uuvDNJsGOJdpYsu/6xsbbAscpXeuR32D/mfDJMZZosNttWYYLY2zxsoz1vTyMhiciBwbRTZw2YYHV5MXc8oi1N2Qi/lnf/JMJnNsGzSjod0gENZ+LcCy/fTIkrKFoq3ZuDdwYaXlJ/3Mj+wXBti1N5zaw/6kEKGrQuWof/zE+hT9cZ+u2ZQzpPu2OF7GeS/6aseo9/Ad2Xkn7CjnFr5s9X8ywXw6tMhzetiW/lpi2b3ybGqAMdWvY4tH3Si8+Xpy7mrZoXJLV74d0YQuqpcHI+E6q+TuD2A6MksvFYj+g5PIfag1c2Wkb9yFtETu9HDbdO6axy1A/y1MjOQXeSKinW340fLD6MIOHsq9j9wuvYOdpKRfvr0ZfvnfI48lAN23SokFtiWsyqJXVvHDDBRFtlq7c2wb9Ec32CCiS1IvZFv19Km7+8w8L0ENnoQflxC7hq1WX50wWrdjdAyXtt2fj4KnJ9BEnnMRZLwHPGQmF8HPKA2l7JIYuW3iNFmRvSeeY1WACijVCRH9q6yZdoZROLvElJnyd2foIpuDyDZZAHRdjCb1yDnt0Zg2xVCz08UdB6T86Vf+CA/xlglG1Ig2auG0zsJalXW6C4MFz9MrfiaY/T7WT368nnd8tOQVdEX9c2/cCN6KYz8iziiP9ngP6x38gom9J9JoFRIIbgthcA2IzafSFJNaEJH+csj5NoM3zM/ElnFNnMLQV2DcMU8CWHoQx9yxxMV+0+cWdU7vFRMGzr1zBT8mnRi2vH9qxr4rBstyGZ1jxBRft70sTFRREFdlbeCAZbtPkwu5HDjYAJT1/RptkXvCEY/CiH8yxzCd/3wreZaVHZqud+nHoCuR5RG4ncDnP1NWi8WK1WAJBLtvGixFlCe09o851NI5gfg0AZd6oXY944inMlh+r0pTN/k+2shvbbS7FqRTcZRPBTEWK9qznlqzfI/KyzDhtIZ/QPwB4tIGezoYY1iG7Uy7ycaNgRYqzWTbOFAXyIvJz/U2yBzz/5V81KN2u1sRF3bWXmdNxzww5+MYO5yFKGP/PA2a0xusMN1MozF7DQs/51u483MdvOXQvymHeOn3TCpvft8Vm9XLWjpR9NxxHvHEeQr9DPyj1vfYXn+mSC/ZaMSZHV1rJ7f1tNW2mtBG75/VQOfw+OD9YcAJtSFAJ8lMX5B+/UMVZQPgSgZZlF2wGwxTz8mKvWGtu9mUFRrazmD5EIZ1veMyrbZDMNDct5tyZO1AJ0IHQsg+6UPzsoQUx6Rw30Ypt7CstnixehgBIFTSU05fJh4bxz+nfIZ9dngQeB4ARNHxpFUjaZclMv8chxmBMHzaWUI80UR0a8CiO/zYVge7cgjcydfHd58lkDirgnW99kGOf1NGYQu83yya6lVtSbfRbWBdSN524U4knJmysizhTYX5ENECxtqxv1JjF8lGbC/6bqJzyZgJNuRB9WoMo0NRqkXEUJWTft5Hun7ivHaj43BeY2cLdlV5dZP0sg0fWuzPczU5cym0x01NNYyP1UMcB90I3l6FFFuz+WHIQR/0AbCVrazinW+2wnfl4sIHAvB+UWDTzKeZJB+ot6M3HcygbTJSv36RnSaPwoSlgziC3zH8zQmvg5VdNAOLf0otTYs9yn4qTK/O4HRS63v0No/N2CDG979dO6pqt/OXgpiRqdm1jAMVReBfRaF78Sr8hCNfH+V1R3q7A0iwRYC3KG8emrcE8LAuUnNOLsBnh9vwJ/xKq/6vmPDePcUwkf4Yara2Yte2NRnYO8OYG7PPOYOcRP+eByhA3EMm9m17NlYcwx73XCWrfB5tCP9BWRvU+8so2+l1ieCIc0zEvZTPiQmwcYWMZr389e4jXDe9iKxMFbz3G8p/ReymN+bhNvK0zTb4b2YfTm9p95R+LuDsLHXgN8xw/98HInKQqo5xL8a0LyCHUD5XAJBOZDbEbw+Czt7zsGOvetEbH8Yk9vlC186hgOTmHWEMSC/zmyGK+lB/Ht1heUWNtQE57dRDP/ugpldZyQ7dswhcUa1HUXnkxtm0MNfo+76wInATf7MbKMP8/cmYfiWy4h+1j3UsGjRKm6H/q9CcC8MK/k61rpvIrOG+dFiOBhC4lQZfm7Ptq+KCHzv40cZrWxndeu8419eGMouePc1GD57FkdgUPMZAOV9ciGoNG7q0mn+HAhERpH7nN/DHoTl0jz8nYzmtfKj2wMIf5nDyPtKnmxnLAjF/ORdW9DSPzeC+e0Exp/7K347UAxgpuK3CUp7/qId0/yzA+OeGIYj7aS9NtT3/VW6JDbw/7bCviM51YdH90Y1D1TXKUIWgnUA+1ZsMwX81/JZpuDl0cLfvX4vt6wWbKjqVASuUz7h6AWC9cCzKMZPlzH2hQh665o2fP9bGPiUmWDkoao9NxA+uDbvQwoEgtcFNlMJ1XmrH+Vv5xF8RUPwgldN+77/7R7qFAgEAoGghrd3qFMgEAgEgjqIwCcQCASCdYUIfAKBQCBYV4jAJxAIBIJ1hQh8AoFAIFhXiMC3HJ4kEb3TzswvL4t6i30K2kW/+Kqg7qKi64ViBrHfX9YUgq8K5bV//YLgrxdLF0ReXf/WPPA9j2BoVStAGuNW7yub43G1yF71Y/jUPF5V6CtfHuJTp70citdHsLmrTkV5OIUe9v2U9ldjL2zF92Yrjrc6LhC8VJJTGPokRJ6qXdbWp73sur5eaB747ibamLW8A+TVAPjfbzC2L1OQ/rfBJLgvgXRyVbXShCKSpwdgPZ2DvV5h2azztUv1aKcIujWCga8MmMyW6FgJ2VMl+LaNIKlOhN3quEDwstk7C6kw2WTuzhrW2Ke9vLq+vmgY+IrXRtBzYAbl++MYkBc7DFSCYP7aUfRVJuodxtQffIrlF0mMmI3wXqtOuVy85oXRTM7s/zuF3f0jlEYEXjm9IcywBT4b0Ogechf4XxH9UATrmXYNYIb3FhrmT+7iU5f5fgYzLqt8vO+/DVpTL4qIneirTtps3IyhH5TFDZd2w72I3p/B8IfKBK1s5oCj1/S1ofjHDLx8Alc2qXXP/1TblI3zWwub2b4H7h/KyLCAxOR4oloxymnKwwc8nbp5mGp6fAl/hTF5x4dUchLO9/g+LYUCyrWLt2qIXZyB/cwU3BY2fa4BlgNBjG+cwfT19o6XtTKln3kH2WAj0WhgreSuHZqe54s4Rki+1lOadjwFXaN1vNqyf5GT9V2Z0Nk9haT2XsUkptyKzTD99R2LIl8J0O3ZQC3lWxPYbddMmOwOaZa6Umx14lYMgR38nHesGD6fJCtoTL1hW/2+ztMt3qQeP1uD7gHbau962dZUWeiOlxH5V029o/SNXVaM3+HbRPILI9fX8mTLytxD94xXdGrEZp18ebrPqBx2drwLR5nd6YZ5W5T1bmOf1rSusXscjqJ4PYAe2b8crdNjbFLXX+QRPVb1TfVGShrLvw4vMgj9Hys2fxFveE5zW62P4teMMH9ghtHI5EM/2zAiLK/Pk5hw9mgmxR/m9tUe9X1mHjP9Xdh9SW8b5cvDS4fu2cwtDam3nPyCXzKZqkv3l+4FJTvc1aXd5eM+aZ5t/z0v+Uwmyb+gHNIvwd+EZvd4PC311ywlX4q4JOycluSF+5vmjy1lb5BsW/ol/685qcR2/cP+WUop4qayB6VF9fjfOSnH06y3zD92BqUUz1MpOSrZtDJ5zJa/N0meK/yepQKlJf/VWp51mD8EyX5OqxWeh+2aPNSmw/LQ7ZCC9/h9n85JHoNNGrunbDaHyQ2S51e+yZHlXpFDLYtScKuhqnvO/BE1762Pj20ySJ5oQTlAkitkc5K61ZQck7fGRkjGBotFsmhsmenQcDxR+Rta/fxTkOYOkp38Z1E+TglKs4OQHGcXGxxvwwbq8XhRSuW4PijN2X1avSoyh8UnzannPJ2VXGiuM71tKuj3tZGutt5nJiUH2c1kRj5CtHE9t7WxBa6tEul6O5WN5MfIXXRK2BdWZEkkjhskC+lHX3bVNpYnW0WnFslXqXNKHkxc50q6Nsm20ylNp3lOWF3X+bw2ylrPp7Wqa+wem2xS/55ppUwNfBBjaV1n8jJJpv2z0iOefCHqkUwG8iFq5Wghf7VcSn0u0D0oPbKPpnWrqa3W4d4Y6cglzXK/JmVq/VpOWrzNdUMUfiRfUlM/9T7WLk3+yTeb+EzZb6uxQKYkhSmv/d9W9zA6DnxMEa6Iml2G4hS0+2TFHAlL4SP0f8XQiDYDX/N75KTpndrjSsGcF5WCNb9WUbjlpCZPDZCdOgt82qQ4S5VSGxT0Tj31taVhgGhHnrUsrQyt88DybPk6pWxwZIdTs68+2opS5dEFh4RucgzMMdHPsMUpjUZVA6sxVk5Vdq2Op6QxCwW+K22Fuhq0jlORv+PCrOQ3OKVZOXt6Gcv3rLFziZwJBmfpTILZrWWMcqRBDqbqvtbybwe9XSkyr3Uucwertl4PfRoKHaer1vsClYsarp5ftTpofX1de789JlkMfkmueUye6t+ynimw/kjyVOWta7gsT7Z1dcryAGqUyxtKuq4fa+yrTuBrKqs6Po3du2ldY/dgQaEN015S1/8OU+CtrTd6H9hS/rxcTKaL56gOb5+sNvDbpJ6d6VgSO5i8TdJokm/WUiNHffrs2mqZm/rMf/TnLmkEczp8qzOLTBqIearDT11dVhy9SUee8HXJiP6zYQxf88JLv9iFtkfLOa3uYcHwv52IXY4qw535MEK/ueA7yB5CtZc/567WeTIcCCHsmEbPu1bsPhFCOt/sPS87+nQr/xtg6C6zkUCZ3JM87Nt0J3Day297NM9D5l4G+W/6NPfpwsB3ZeQ7vk8V25cJUOdVebbHntFd7EfcPYDxVVlh3oHAtVFkD5thdHgxdT1TXSS3JTYMDALxBTY0ncbcT0a49vjgOhBH9Cbp8QVbJdsJ96BmBTNHzZAtW1fxaREl9ncmhUx+An0a2XXtmkE5n0VVes3lX4/ywygCzh5lCIh+A6eVoXQtjq36gWQD5StXlHO1IlqmSzIa3zOEyH6qX/uWTvbb7Pq69r59AM5yHAn2Zt4W+htxxNnQ1p05hAwuuA654L4ZRZytcH+bjg264dzALmR0LluZWp1+1Ef3JV1WHrHYyRe0nsS+Ux20Vdd6nXAuZ/78fI68hgN23eryBvTvspO9p+StlvLnFK96MfAVMHl5tOU6ou3Yqg55Ydp49XHBgzTVxD7YN/HtchbRE7vRw9Oz7hpHixQ5LXxmN8WCz7KY+VlJLX81hPh+L9wVW1JY1ucM1FLgzq76WzypMY4XReSYAT/PIsv+XwbN7mE5SE7stzCilHb+t8iSgrXMXzt0W+D5OYfS4xg8CMFlpQC4klXbm7Aq+W0Dajkuuc/K1i0jB1SRuwGWwSDGD5JBX2dyImfVS/qveRSTyWRgt7OytToOmHYGkfi7hNTZPqRO9MBoDyDZpj3173Ej83sC+YcU7EiDw73U4NnrQux6HPgjhmivC85O3k6qfYlH/oWxbOk9CWHoQx9yxxPIPc7Jv8SZGmf1KnkQQ/6TMbh+8mLk+mq/3N9PjRC2SnkeWQp2ODhMjteJoX0xzJMDS/4ehX2vc/VfHiuXUYQZpk4WhV0mq1/XVp9Y0ozxz4oIHGzx5v5ybJUtTHuhAK/ZSIHNDHP/HFzxOfhkpeYRcm2G75kfiaySXm4hSB6hfZr5TOfno8D5GSTpPnORJDxHPOSd9HQY+Cgyf0iGebtZbC4ictiL3NlFLJ7NwXs40vihal3auIe8FH4M4d+ymL8ch/uAmxesnfx1hsHigO8CKTzuReJCtLmBNMC60SK3Apey+vlthG2TDZlkco2/TyqjTIGJtYhZr8vuKCOV1kY2cnRUVEcvM/FWxzndBnKCowhncph+bwrT5BjbYnAIrptxzF2PIXtgSF4J2rDPC9cvUczcTtDxAX1voBly6zXRdtBtizT1anrHEdxfbfbnH69Nw6rYsmtUB8rb7MkgwlEXwh4fYh1UYtbbWGLvdxKIG5wY4D0V1giJ35yjhkgWwy5ZO3AfdCFybQaJJB3vX4WG3+20vhfB3lI32NGz6hFVz5rWtU12smUql+6btjKSCxnqvfbJW+3In+G5MI1RtoxTOYDh8zXna1mWrSYROpPHWLpEga1AvfMUJgfV69mIix3jp90wqT1N9oY4/7M5bfjM3hGMfhRC+Jc5hO/64dvL92toHvjMZhgeppCuGL0BnhN+FP7Hi/Fb6k5qRd0nRXCnULzshTdLFeZLO+xfhhHM0vZlfu4GE2WburxN395pfQ+5klCwi/0yguhND3wH1HjezrXtUaaueaaomm4ZmVtxlK0mGPmeTnD8OwAH5XXktzylRJSLZLjM4S8vv2ZqsmbT6Y4aFPZjY3Be88NLvdZKqZ7QfZb93VweycuxqoxekIyod+D/zQn/AcVpuY75kTk9iugztlVG/uooxh/4McINsfnxPDJ3SF7q8OazBBJ3yX7eZxtZTO1Y+vaWjg39cPamMXMxBd8nfGh7AxveTNC+NNx7OhiCp4o0NhiF/3AIWVV4z/NI329y/1ZYbbDcJ4cil51Kf3cCo5fUxJePdSM1Gq6GuUwp3fsT8J9ffj5N+2cwRz0x7xextu3NdnAUzl8CCKg2zRYG/WwC5tP+ymcChh1O2NMzmEn74P2Y72PDm8kZhO644dqp7FsRDyYRvKrWOcrDlzOwfulr/1OFdqjj01azri2p690ujBzPYfxE1RaL13zw/+6heqdE9HbkX6HbjrGrk8ApL6Ya+eVl2aodzn0FTDiqw73s7dbATZYnK2wW1uPn+XuexsTXoYqsmtOOz7TA94UToWMBZEnfzjrDuM0D38fjCB2IY9hMmX7nqPI5w8fTyMZcSB5UX201w36ElMBuWozA68mSsY0pY8ZMqD+NIePxIsLyaPFi8qwJQfn14YHKq79LaHYPjuGADx5qzcc/88GlLVgb17ZDMRuC16aOIxsx8KsL85Flfru3ZRTxpB+5Ezbl1WqjFUM/8/bNMvLb/1UI7oVhmNn5x6qfMzRlow/z9yZh+Lan+sr+nkDFmDuHWm8PpzBk5TJ6xwzn92aE/pyHbyM/hcqW+dGIoPxatxG2U2VMJqfRr+qr6fEc4l8NaF53DqB8LoEgc4gv0kjd6Yd7bzNt2OSKl7nv0jhRC/U0gMwDF4YG+a62oIoUW8Tkhhn0VF6hdlIlXv7zUWwPUOMwh5H3lfRsZywIxfxUrVeG4WAINz7LwKume9qAqZ99/OhyMMH1bRiu34aqDdhWyLY2itxx/vnHu06kPqGGy9eanvwWaoQUM8jsc1WdscVJdZntG6rrrDrmYBDDv7uUekJOd84xh8QZ1rtcRer5tFWsa/Xqev+FLOY+imDgXZ72GSPVuzDcaoeqHflr2TqK8FkgsHcc6XrP0Zdhq8kTdvgQQq7EhyL/oZ7fj3bMuMapL+hAIEL5+5z7PHsQlkvz8Ldr/O3Eh73UiCpb4fPU13cXZYq9kScQvDncGsHmiy4s/uxacaAQvJ2w7/g2U/B53Z6rrQ9iONoVgP3PRYxqX8JhMz19mMLkSp6Ntwv7VvJUHx5pJ9TQsKyXWwSCVwq1+B6JoCcQvKb0wbEzg/BVzZyn5TyiZ4LI7KfePN+1ZrCh3VMRuE75Gj7HF4FPIBAIBKuIBf6rc+iLDsDYZYSZPR6wOjHzXgiPIkvfsFw92Ew7dC82rL3nBsIHqy/j1CKGOgUCgUCwrhA9PoFAIBCsK0TgEwgEAsG6QgQ+gUAgEKwrROATCAQCwbpCBD6BQCAQrCtWHvjYdDO71Nk7hpUZWtYlyqu03t/45hsLW6CzB1O6uQD11FvstDNa30OhiMz1eMfTzb0prFyOglWlmEHsd823Z68VL8e/vHqbfDnlXHHgy/7gxbg5hAKblqY0B0/jTyeQPmV9CwKD4OWRwJRrGCF1mSO20n7tSspNEPbWGWzl+p7z7Ur3LSQ5haFPQkjzTcFyWRq8Xre6uOLAx2YBt+/qZzM3Ql7DrCF5pP5YwaS+gnWIC7NSAZPqXJtsdn3+Z2uEvXVKOtm+dN9K9s5CKkyu7iTWAuL1q4stA1/+2lH0sUmq2VCmsQ9Hr6kFSFNrvA++yxT8Tg/IiwkGfueHlkDnOgcwchOIHLbK5w7NRDBiNGLkFj+Fkzm9mXe12XCYF9EHIQzLkxjTz6zO7l2l+MdU9bguf83JXvaiT51gucuIvhPx6gzobJ63w1FkvhvGZj4psdFxFFHt7OrlDGbcfBLYd8x0fRqGtlZSKevSVa7V3LuYxMzhvsrktkb7hNwCZUMQPeczdO0QrOzYDqXnU741gd12dbLWLljdIWQqE80qMgxpZfQB9aAeFJE8PwwrnwBaf41CbkF/zdQfTcawX+QRPVbNs9U9VV2AkvEshoCDy9q4GcOXcrC2Ndt3dUi0eG0EPQdmUL4/jgF58cpAkyBYx95+4D0Zku+Ue3PjvDZCtonQUrk9Y+mpdmClsmmXS8nS/ftgVXVdmZ2+PplLu2H9cARxfsqa2HZdioh+3gP3D2SbvC5bT/xfmOlfugJG+fIwuuReN2vVk27+iNfoVr9czLLK8KKI2Im+6gTllO7QDzxdtW5equrBvINsQVvAVvbIjp8gWavpm/kk+ixtzYiCXOe+iWvS4rJ8EsXRSplrdNr03orMJm5RfdjB6yyzmfPJFvrR8Jf+3rXylOX9IT9eL22eP1W2S/xaDbU22TlN6mIz8hqfUaccTW2c+RtVvqyMHw5hpnZxbDZzS0MW/JLJ5JZm/+TLvD+dkzwmg+SJVtfMX7I0fkOqy92rLP7HJhk+u8G3GClpzGKQ/HH2N1tCHhJ2BqUUXza+EPVIJjil2cfKtvR4VnJ2O6TgPU3+DDZp7J6y2YxSJiUtqsvRlxLS6CZN3tiy+XTv/rMpqSQvyV+SEidtEvaH6S9le/6QQTIdmpMK/Pijb53yNdry1eXemGQzeKQ5VYSlgvQop24oS+izdHPyjUpS4XFBvidbit+wySb1H59Xjsn3JR4vSinlZNpXkGb3afXBZbg9KC3y9ORyaMtWWpSCpBfnxRw7gai9huS+MCrZNXJnecGheWWDSBw36WSxeIaOV2Sl6N1xdlHZpjze+IyOwy5N/imf0ASWF815TC+9k5RiOyy1N1W+jq8T1byedVCaVFZVno3gNlEpB7cZdPdLwbRS0tK9oCInVZQs/TSdz9MuJUclGzzSPN/WyrFA6ZtMdEw1hbWy7SbU1uVSxE31b5qkplKSwmRf/d+yPYp8YfFJc9z+WPkdMEn+BXlz2WWQ76vVyd85KfeU/11bN8me5g6ZJAzOVvLZ3B6V48y+Vb9SepyTZLHX2JesHypPxd89nZVcrG5YqP7yMheueCSDwS8l5K326oJWZkqa7eiVX0s2MsdlUfqTrjUslffYAs8vq9vbSadksypy/vbPSo/47WWfqvFHTW2ybWrrXr262AhNOSsyWmo3jW2cbHS/vsyyflVb4jQJfIqR1wa1UsSlM7KVBD7pz0lyFFVHwAKtwTJG4Y+hOGC9sJQ8OS4o92NKsnytnK2SOG5Ysq8ddOWQK5cmX4wMOTXVwP8Ok7HWOu6E5De0odzbY5KFGZpakbWwY7X35cgGaRmVEnWOadEaripDX4xvMvg95jTp1Lumldwr5//DzndJYdUIGTmqgOq+emWSj7+CwFdXvryxpTqPRsg24aMcVUl9bZFwcI5vMVpVcH15KnLMTEoOcliTGWU/gx1bE9tuwpLzZN1q5K/VKy9rbbqyTI4oUlpuGWQfwwIf93s66tVNuT6S/LL0dyt7rFt3OTX2Jetnu9beuE/UOFWdTlvdu4HM5g5C0/BsRGt5y39X6jFH9jfN/JZSJvX+zWyyfWrrQat6oWV5MqraLtfRGd5AbUCToc4cctQjdWzVj9/JC0jejCPFt1fEFi/8OyMIXVXeo4pHQrB+6pVXy1awo0+3hJQBjn470nx1YfZ8Mf9NX6VLy34D35WRf9J6nbTirRl4dyhdb/bzXuYHVHr7lDUFVboNQLkAeS3rfA5ZyqVdu+QGLLDpthuwPYDoySy81E3vOzyF2APNO2Qk8HztfbXscVbXsuOUH0YRcPZUyjFwunZlYjvsH/I/GSYzzBYbbE2fxy6Vu73XUpG7jr8ySLMhSb42mPyzsrUbs8ixUZh6ZbJYl7eu4UqpK18HBvaUEU+2MfzSS7LkfzJMZjMsm5qMb78oIvmdF31cN9YPvIjwQxWeheHtDwBn5zC6le8j1tS226XbBd9nWcz8rOg9fzWE+H4v3BvkTZla/+Ag/wDKO5PmcstgOBBC2DGNnnet2H0ihHS+5j3LWh1uIB1uTSPDstnKHuvW3SbY7ZoZ/g0wmZQV1uvS6t6cJT6VypIrlvhWc2qvtW/rq8g79yQvr76uY/sAnOU4EuwN6rplN6B/lx3xBY1Hb2CTL5NWMmps4wZ4vg/DcbEHxg92I/BTGrXmw1j55wwrgq2U60b0Uhj5F3FEf7LBf7jBYomc8t8FGDaY+RYp/twjZaFD7a/VGly3RmDbFULPT2SQjynA0y98kB9bc0zoP5NAqZBCcFsKgW1GbD6RXN4r1E9CGPrQh9zxRKUciTPN5Sfznll5GalDtHLX4wG1EWv0ULMW11uK2dxYkskTNgz83IPwn4puco/DJKkaridhPuVH8avhJZ93vA627fx8FDg/gyTymIsk4TnSfHb9crkIvGuCkW8vqwzd1C//OYfS4xjJKwSXlQIglacxZZSKBhje5ZtrbI+mDc0k8Arqgkbeq0ITm3wtaGXjGz0IPy4hd41q248uWK27EaopR5PAZ4Odul7pB3qDK9+OIzPoBLUzVgXDAT/8yQjmLkcR+sgPr85AMkjd43/KKG8HDWxTWgOs5ZVJdh40ssk4ioeCGOtVDThPrSX+ZztQj8VGbaes7poiCp2ssLzBDtfJMBaz07D8d1p5UUNe4j+15EWThqTjiPeOI7i/6nzzj9voubSE5K7r3JWRuV+Vuw6ShZ3cYqL24bEKK9NDkpW2TM+L7T/MX03s1FNYIt80Er8b4OyvU7YVkUXiZhGe02OwV8wsR5ZWw6FpTJ+cxvzZMgIHpyp5e2W2XUvvCEY/oh7YL3MI3/XDt5fv56Tv60cB2Juhht4euUe/3DKoGCwO+C5Qoy7uReJCVO7VyJAOdSuF51NI5gfgYL6jlT3KdZd6h2vh0FvdexWo9ceZe6mKvFlvj/WyddxJIG5wYoDJZpOd+nu1ZS8juZCBc5fGozewydeF9mzcAMt2HyYXcrhxMIGpa3q5Ne3xuY75kTs9QtGSm+6zKHyfx+E5PryMoSojTO8vrSjodsL35SICx0JwfuFbkm7k7ATS/APm4rVRBG664DugnGU/NgbnNQqWFPnVylV+QoptUdGtG8nJLcSRlC8qI391HOML8qH22OCGd38S46eiKMpGUUb2UhAzS7xaHZ5kkH5SdQXFZAJpkxVyX4oUFdgewcgXMd49L6N4P7vUWarIgZKCHw+45bsTGL1UTXsl6OXug/+3qtx1bPAgcLyAiSPjSKqBn1r9mbv8Q+DtXvgsMwic59ts+O/MJJb1iazZDMNDcnptRc069rbFi9HBCAKnkhW9Zb7xYeK9cfjVTyZWDStTDzkV7vjZQpynxhu+iWo/OYdJBOD9r5LfV2HbZpMB2XS6plHCRmWcCB0LIPulD07dMDE53nNBRPlYUvn+BPzfWTF6WPkgYLllKD+gc4qVK5C5FUfZqu3VRBA8n0aZ6ZDsKfpVAPF9Pgwz82xlj1R3/UdyGD82VbHvMtXJ/GpMktDq3qtA5sK4Tt6+b4wVedsOjsL5SwCBW1yDbEHWzyZgPu1XPtHodmHkOJX9RAhZniG5bv/ugb9O3a61SbxIY2JHH6XfaWka+P5l0tzGyV5I3lXzyVAdLMP6nr5P3Hyo8+NpZKMORAb5a6MfBGH8MYuwpofRPhZ4qZKYzvTIaQ18V43Ajn95YSi74N1XO4Rgx+jnBgTtyni5+YsyxpPh6kfyG32YvzcJw7c91deH91AlaNHzMhyYxKwjjAH5NXMzXEkP4t93si6wAZ4fExh/7ldeC37HhkAxgJkj/HAznsURGNR8fnCqTK2SIP92yIbR3xPw56krL+fNCOt+MlL5WB22BxD+MoeR95W0bGcsCMX8TYei2sLgx9x/m8i9hv4LWczvTcJtVc7vMtvhvZjlDtSO4MIc+q7wV7zfJSfaP4nJ7fLBzvh4HKEDcQyzz2veYc9OmlHP3siJxxYxmvfzV9mNcN6m3sQC9cpqHPrKIRs5NwvHZbYYJ5OJC4lDccwO8sO1dJOt/zIJfDWE8Tu0/Qpsu/+rENwLwzCz+x2rStew1w1n2Qqfp/r0XcVzZhixvYo9G3ewxUcTCKq6XWYZitkQvLbqq+oDv7owH9E0intH4e8OKnXkHTP8z8eR+NlTGb5vbo8GuC5mEN4ShpN/pmXcRg2SVZodqPm9V4oT09dayXsUueP88xqqa6lPEkh8XX38wfI391EEA/w5pPWMEaE/w3DXq9u1NlnOInWXGiXZTkvT2Pcvh+Y2XkT2ohc29TnruwOY2zOPuUP6wN4lsUHoVwz7XmYzVRD92D/7hiuAvj/Xx7MigeC1hX3fdqoPj8ipVgeE2Tdpm5E6KyG8j+96GdTNi0DQGa/45RbiWRTjp8sY+6LFA2+BQPDyYcNlpyJwnfKJQCN4a3iFgY/16KgravWj/O18tbsuEAheA5T5FtnsIHN7biB8cDmPNwSC15PXYqhTIBAIBIKXxasf6hQIBAKB4CUiAp9AIBAI1hUi8AkEAoFgXSECn0AgEAjWFSLwCQQCgWBd8XoFvidJRO+0M+/XcmCfTyiLmr5drE658pe91QVWTyeR/yOK5ErmeHxbKGYQ+331ppxqjvIJgfc3vvnKeRV1Zu1kwCbKUBa5fpUUkbkeR2aVZopZXV43+2uXzmX6WgW+7FU/hk/NN56b8g2hfHkIPedXNi3PS+VFDKOeJHxJZTb53GkL5r4cxvjvb6gmnkcwpFlJe0UkpzD0SQhsFfw3hTfJ/t64urJiEphyDSPUwUTWb6KMXm6eO5fpaxX4bF+mIP3v0omq3zTYDPVvFPI6Yv0YUCcR6LbBT0HwxpE3VBN3Ey3m8eyAvbOQCpN8LtU3gzfJ/t64urJiXJiVCpjsYFL0N1FGLzfPncu0aeAr35/B8IfqZLFdMO8IIC7PT1qvS1yzj82pdziK4vUAeuQhtKP4iQ01/CuiHzZirfOuAcw80QxFUA/E22VVJkbVkD5lhfFzLtBiElNuPhlrlxF9x6LIa5fPeBZDwMHzbtyM4Us5WFv6cVaGHkzcomt38Imk37Fi+HxSN8ls8Y+pqlx0x4uIft4D9w9lZE4PKIsknmhhAHI5Nlcn8XVPIam5GZNJzzdJxE70KRNi1zlHJf/dALqcIX2PmeQ73GS4qnhtBAP7gsggAi/Lr2uGpKDRJdOjdbymx5PGuNWIkZvKliyPD5S8sZk+jl5ro6f4Io/oid2V4dUusxcRtUzNdMvtKvPdMDbLk9R2weg4iigflmXl6TkwQ7Y7jgF5kUqyWdpfb5hLv4/ZnBdRZjd8cu6j12k3u5+298jyfYxPuE0/vS5I75p8sQmU+0j/dVTVnL+iOFqx3Rp51uaHUdnXuf2Vb01gt10zabo71HAZmsb+gGhhx0tpkde8pv7WqYMt6387tEgje9mLPrLzynGtLlU7vDRcsWGdPBqiHz5uXr+byIjboXqNtg60In/tKPpUG/1gGFN/NM50q7pd/GMGXlVPJKOe//m/G+RZ8a1T9zOYcSky7/svt+IV+8ClQ/JL81UzZsNmbqnPojS2ySB5ogW+XZIK2ZykbNVbSr5mH1vGf5NN6t8zLaXYsvv/0O/xtNRfszR/KeKSsHNaYovKV5a9J258ZpAsX6fkvxVS0pjFIPnj7O+cNDsIyXGWLy//T0GaO2iQbP9ZZFuEkhft8RufUdpLlt2vRbkOFp80l+ML1z+dlVywSWP3lE3p8azk7HZIYwtcLqVFKbgdkp3upVJdBr8VvBxfJ6QCkw/ldvGsQ0JvUFqUt7lMYJF8V3KVsszug6as85JHLdffYcmNfmn6sXKEoZVvQ/6clOzwUEoqGl3+c0PyGyzS2G3liMztMcli8Es3ZJ0q8gjeU+U1J3kMGnk1IHHcJGF7ULENovRYta0WumV2RWbbfzYllbjMEidtEvaHlfMZ7JzeSSpFFa1tqej3MTnaJNtOpzSd5imx9GvSYvk2HZqr6usMpaHe+96YZDN4pLlKlSlIj3LqRjtw+zNRGk+VPaU/yf4MJsm/oGzXK1vtvvbtj3i8KKVUW+e2Vb1WY1tN/UFrO27E0rxqZFCpg7U21ar+10ev79ZplDIpaVH1VaWENLqpxr9p7ZBdf4hsenC2eV3TyZTnqWn9rq9P2Q73z0qPuIgKUY9k0tpeIxb8kklrX/eCVPfd3Cdr6j2jVd1mx2GSPGreyd5zT5Vz6+uV5LulX/L/qpaV/bPKPpDRJF8qTQKfEmg8V+pJskZAMjX7ZMNwSbO6y3PS9E5IroiaiZIUpgI4LyqmojPMuF8yWMYoFxzubBPsb+aotccYpNDK+exc5si1lS7HhNFe4Ks1srmD1TymvrYscaC6vBFtO556+VQDPHd0skxqHR0ZebWC6ZWuv7diVFV5N6BZ4CNqGyFMBobjSmlZ/vQNFFYpaxstNVCAdjXSRSvdynZVI7MMVV6N/OsFB51tcfT7mBxJVj/W2Ls2rX/YOfqGm2JXfJ9sB1Wn0jn17U+2uSM8n3XKVruvbfurw1KZqHpq4g/asONG1HeQS/OvrYMtbaQBurItIw1dXuvZoWzXDmkyy7froq+vcp6a1u86Mqpbf/S+tBEsLb0/0PoIfb1neWtWt+v6Qk4jvVpOVmqpwhr4wGb5Umky1OlA4NoosofN1I32Yup6Rln4sRN6nXDq5ra1YPjfTsQuR5XhznwYIbbA6cE6Y5CDXviKIczx4c7kz1PAlz7lWUsmhUx+An28ayz/ds2gnM8ix47nssj39unXWLNY23526Niqn4feQOnkiiX579yTvLzSsY7tA3CW40h0+vZbvXyS3Af2lBFPagazHHb9zPjs/KdFKDnS4zriR/b7EOQlH5/MIXTTXWedw85wenwo/jTHhzuTCP0XlcUv2YrP+W/6qnqg38B3ZeSfyJqoTz6HLJXTXm+5qVa6ZdTKrJvKVy6gwDeXjx3OXU0mY5afhcbgVdf6Yj8rWxeQ8sZGgLYHED2ZhddqRN/hKcQeLO9d0Fr7s2/rA0jOa/GqQPlhFAFnjzIkRb+B040WC23iD9q14w5oVgfbspFWtJFG8dYMvDsUubCf9zI/oFJb5g1U5q1pZDpdb7WD+i1Tt/4Y0L/LjvhCim/XI4sMVeKYpzpc3dVlxdGbdKROfW1Vt+v6whY4d9U8LV8DH9hOvpo+4zPtDCLxdwmps31IneiB0R5AcoWv4VoO+uD6LYwopZP/LYL4fi/cG/hBHf3wfQmEoszdJhG+VLMQZu8kqAUgv4VY/YWx7hc3GvRjFFOYucXG8sNIHvLBU1e+HfCxj9LkjZBb1Fix+ODVrKZBLbsaPdBPt7Zih7zWuvWA2pI1eVPXjDSh/0wCpUIKwW0pBLYZsfkEX4F9pbyrXYF8lXgSwtCHPuSOJ5B7nJN/iTONHcZa+INlsxo20iyNWyOw7Qqh5ycKhFw24YPyVU0oo1Q0wPAu33xNoR5dTZklLJ7UNzRUVr1uvya0fquTWtP2vaMIZ3KYfm8K0/yFhqUUUWixsrLMBuqB7I8h/FsW85fjcB9wN1wx3EE9DSPracjO1gNvLz9gs8F2P9G40lltsDzMIqvtoT4v6h+OLxPWkmAtIR13EogbnBjodMFcO7V07lPLU9eTTiPxuwHO/vqG2Bo7Rk44ELoSwVwkDf+R1TBSB7yfGuVGSPJKCNZDXrqLgm2TDZlkh86det82KmemXg+5lW5XkWKhwz4i5dtOjbBEq9emN9jhOhnGYnYalv9Od/yGafqBvpeUuZeCoben4YhFmWx7WaTjiPeOI7i/2svNP27RQ6vnD9bEjpuwGjbSIo1sMo7ioSDGelXvlKeeBP9Thcqc1pY5n0IyPwDHWi+cvclONbK2/pSRXMhQj6qPb9eDeq4fUjfidntd0lZ127rRstQXdsoa2E47+WoS+PLI3MlXhzOeJZC4a4L1fbahCDB6OYqifLyMzDd+TLTxMh/rkrNgF/tlBNGbHvgONBmG6/XCY4hi/OwcbJ/7Ks4WvSMYG4zCfziErKqV53mk7/MMbPfCZ5lB4Dz/8PhFEckzk1iNT1dtB0fh/CWAwC3ubNhCnZ9NwHzaX3nl3WwyIJtOtw60W7wYHYwgcCqpkaMPE++Nw9/Bq7m1WI6MwHnJh8Bfo/AN8p0rxP6JB8Zr5CSv2kju1V6B/dgYnNf88FLLWFVF+QlVymZvmFHjx38kh/FjU0hzx1N+kkGe/d1Kt+1gNsPwkJySRgHWjZTnq2FEeeOsfH8C/vMdpMnY4EHgeAETR8aRVBt55SIyd7mdURnST9RMs5fVEkibrDCzjetH0WUcobDZmsyFcUTzSjosn75vjJWhZcVhhxC5z+/zLArfCb1lt21/rIF4n4KfKpO7Exi9VM2/nib+YAV23HZetayGjbRIw7qRnO5CHEn5WBn5q+MYX5APaYggeD6tyIR8TPSrAOL7fBhe5a+Alsio24WR41R/TlTzXrzmg/93D/wHmt3cAM8JPwr/48W46r+obMX7VF/rNABa1W3HvwNwkB8f+Y3sgu1gdeGhIr9X6QOb5UulSeDLIf7VQOX10a4PAiifSyAoZ4YE+OMN+DNe5fg7Nox3TyF8RL6wJYYDPniuxxD/zAeXbmy3Fjt8nwOx6+RsD2qjvwW+2CImN8ygp/JarhOBm+o4tR3BhTn0XeGvnb/rRKh/EpOrsdjtRh/m740id5y/Bk1ppz4hJ/B1NRj0fxWCe2EYZnb8WLP2vlKO0byfvxJthPO2F4mFsZox7w7Z4IJ7sAzrp15qGa4SvVSxumOIbaKKoG3RyvKYhOHbnurryHvIATTt/RvguphBeEsYTrNyjXHbOOJy5Wul2zb4eByhA3EMs7TfYc/g6I4HQ7jxWQbe95U0bacNmPrZp5zfAf0Xspjfm4TbyvNmtsN7kX1IQDyLIzCo+TTgVBmTC0G5QZS5m4DhiLuN7wGdmL42jNheJR3jDrLjKNU71XZ7g5i/aMc0f1XbuCeG4cikTs9t29/2AMJf5jCiyuSMBaGYv8EITDN/sHw7br+uaFkFG2mRhuHAJGYdYQzIx8xwJT2If++Uj1XoHaU6EYSNnfOOGf7n40j87MFqL9lbT0bMDuc+imCAP2+2njEi9GcY7lY3/3ga2ZgLyYOqnZphP0IBtF7Pt1Xd3jKKeNKP3AmbctxoxdDPyojBK/WBTfKl0iWxQVvB2wX7DvKdAPr+VJ89CV4teYScThQvCn28NbDv+E714RE1gtdgMFewxrR+xid4w2BDBQFE9o3DJ5zsawK1auMi6AkErwsi8L1FyDORdBnRF3XhxhoMuQgEAsHbgBjqFAgEAsG6QvT4BAKBQLCuEIFPIBAIBOsKEfgEAoFAsK4QgU8gEAgE6woR+AQCgUCwrlh/ge9JEtE7HU5V9aZTzCD2O59Wqy2KyFyP153GaH3RiRzqLMRcu2Dsa8HSRTtff2pkK1hFVsMe1tJfNM9f/o8o0m0uwKuleeBjq6O/lpW3DvXyWmdf9qofw6fmsa5CX3IKQ5+EULMGcRMSmHINI9RqMua3DLbCv965rk85vOnEDneh53y11pcvD+m2BavNq6onWYSPDyPwe+fevHngu5voeGb5V0a9vNbZZ/syBel/fVjleWRfb/bOQipMtjFPpIoLs1IBkyuYKPvNI4/UH7UVaD3K4e0jnXxjvNgbyquqJzaM3pZw40jn3rxh4CteG0HPgRmU749jQF6IMYD/67sBdDlD+t4S9aqGeVeUzRzScz6J+Ak+OXSXEZvdIf2SE8Ukptx8gmc2y8ixKPLq8RdFxOjaykS4xs0Y+qG6vETxjykMf6Ae68PRa0pO6uX11zr7mPnLs5scVmezZ91oL6L3ZzD8IV+cUZOuDM+v0UhpGI0w80Upe061nmdfkUcGme+GYGVp7+C9zxd5RI+pMuqC1T2FZGUacyVPIW1ZP6DW1IMikueH+USu7Bq9XLOXveizqgtMklxPxKszo+uG3diwUQ8mbsUQ2MEnqn3HimHSW3Umdf3wglyOb5I63ejzTGHj2lH0yfIxK7JicrINI1JvGKJp+cskr2FsVicOfsdcLcszTZ7pZ/xwCDOaVqaSB34dyWzqj2oGm5chjSnnAEZuApHDSt6HfmDSqhlmeZ7EhLNHM1Ez0ws/1pA8Zvq7sPuSPqiWLw83GAqtN7TTuT5kGZ/YXbGXLrMXEc3xcppsvk5dkmlazjbsR9Wv0Qyr2QijVZHp5k8iFd/RTFdsxZMZ1UfI+k/DsKwJMYuIft4D9w9kU6cHFJskW9JxZ5zq5lGSsIqir65/RaqPBvIh7O4aQkQeysuSjfSRL+B5J9kFblbzXtb6EvqZd5Df0epFhdXJw1FkLlXr9JJzuRxVPRgdRxHV1qeWadQbIm4xbNyG7qfuk35cin76/ru0njSVQTP/z2B1nE/Azvz/8KUcrA3jWk1ZVHlo/McSmamwmVsawpbX1y75/ndYcqNfmn7Mt4lSxCVh57S8BLy8RDwsku9KTpIXty8tSsHtkEzH1eXmlWXuHWcXleP/FKS5gwbJ9p9F+Wgp4qb7BaVFdRn6v3NS7in/+/Gs5Ox2SMF7fNn8p3OSx2CTxu4pm0vyyqizT85jZVl6tmQ9KP9BKfW3sqeUHJVscEthebskhfdDsp1MKPmV9PltBbuXYZNN6j8+L+VYArxcieMmyXRoTirI2yVp8QzlaX+Y34PnaTvJQd5RkhInbWx2Han/bEoqsWuYXHshOS8qC+8zSpmUtMjLIJUS0ugmSJ5f+bZODo+kSboWFp80J2eKeDoruaCRZc1S/kv0Snqb3UdyUeVwb4xk5pJmVV1lgpK9IsOlNC0/S8vgkeYKbIMoFaRHObah6MJOtqNSepzjaRALfslkout4Hkr39HloWQYul4rMZPRyYPa7eJtfTxR+JNuvkWs9mct2zeuIApWF7t3/bXVPldp7MjrUB8FkzGyoYtdMVvJfVfuqHKuRVTvlbGY/i/8he91HfQCum8WzWvsmmuqqJM0fMujs49G3Ttn+9bppzPwhspNz1Vpfu60nIfkNFmnsNt/MkZ+xWCQLPNK8altMl4OzXH9kr2nyX/yY4i/UcxelsU0GyROtGK9UyKpyr4Glqa3TzBceIp1V7sPryf5Z6REXXCHqkUzautEyjXo2XbuvUxsn/7elX/L/qtoe+0ebRjMZNPf/at60x298xmy9tj6o1JSlVh6Uiuw7tbbH6ezllg0e+A4lMXNZbafmEb4Ug+sLzdBhbwBjByzK0iYGO8Z+GIPhu5DSonoYxlRmDKGv7crxbhPcn/uQuxTmz594G0ttAWywwPKe8mf28hQWT4aqC0O+58bIpzmEIu0/uWqE59QYHHyVcsNOH3xbY0jcZVs55P4E+nf186VaTHA4bMj+kdD0jppTLrsxdcEFC0uALbPxIoZp6jnPfO+GSV52wwD7p6NwXlNWpVfxnRmDXREi+j/xkHw9CJx0wMCuIbl6DtsRX0ixE2QMWx2wqyutG/rh3EX9mJoFTbXYT4zBLWeKeI/KfDCLZFLfK9Gh1SvpzXfEg+ythNKCz2aR7XXCyXUFyouD+tepemP+rcpPJlCSz2P/EAYTbBY+6yjbRz+1JW7YaOFpUJvz4gwGvg/BzfNg6PVhdDCK8G+aV3qalaEtLLBv59cTpl1OZRFNvt0IeRmuP2YQVntx+TBCv7kwsowhmgrNyvI8guB3Vkxe1tg1k5Xyp4zntOZYrxveis0zWpezmf1k/8rCTteourH3OoCbqcoz5qa6eh7FzC82jJ+u2ofteBB+NTOrTj9cB/JIppW8l29GEd8bRJDyE/tD3oXk71FYdvZxH0f2+hH5L142w04npZBG5i+2Rfln5lbpwRhg2qSXux4PxtU6zXzh9zNw3SQ7YWlxHY6f88HGy27aH8LMnghmrmottkkay6KV7sso7Z/C9D7V9uSdGprIoJX/vxPC5H0Pgierx52nyTewv9tGIw9Kpf/fPtivJyq2p9LxW52uI35kyWhlQTyZQ+gmVZp9qpgIh12/TMdHfZRxEhxTRIb+z0+gT+7m8t+uGZTzWQoxlM0DIYQd0+h514rdJ0JI88U4GWxF3fw3fdXr6DfwXRn5J52swVUPO/qqS+kRBhJaGcri3FZlxeKkKrYi0uksTL097U8AvYcqhtY4/sqQEmLw8nW05J+VrRlHMqjYsx12um8Fkxlmiw22JUZWpXhrBt4dypAS+3kv8wMNcGzVjx0xQ8kV5ZBTn1q9srw8LSpBSl4cNV4danuQpjL2wb6Jb2tpVf7tAURPZuG1GtF3eAqxB6oNGOD5PgzHxR4YP9iNwE9pVM0jiwypKOapDq90dVlx9CYd0dpHszK0QzkrDx/2cBlbd423DHoy3S74Psti5mfl7PzVEOL7vXCrDZXl0Kws+RxJhBpCDVeDaGbzRBvlbGY/8srdC9Whz8x9Us4ONb8tdFU37xbY1nBliz5y7vGbCfqrjOjlGNx7vHDutWEuxup9FgnK27CLr3jIFrX+zos+VTYfeBFRjhAOBK6NInvYDKPDi6nrmerCvfXopTrC9KaywYGBrRREmbDryoEc+S59g7dpGsuhDd07qSPQmCYyaOH/kcsiX1sei5U3ONqk9vpuik3lAlTTVuk48GHQj1FMYeYW6YZa6clD1JptVoHLZaoAZpjU2Ng7Ceo2syFWzS8MFzvWTf2an3MoPY5R3A7BZaUA+FO112I/96jmOvr9LF+5RrAFd+fh/IkCrpmMwGxDoDyNxLn2XxOpjwfzteWQWixb8x7JkP+5hFsjsO0KoYdklXtMvVT6hQ/yYy8DtjjqhQK8ZiNVFgrS/XNwxefga2ixzcpvQv+ZBEqFFILbUghsM2LziaTciMRGD8KPS8hd8wA/umC17kZI8yzM82ttmhIWT+od9PLJI+TaDN8zPxJZRca5hSCFkPZwfj4KnJ9BktKZiyThoR6aprn4GrGycjLsp+cx+dQLM3vWazZjgK0WckX/Qtna6qozLIMu2K9Rw+1FHPPUEx+mhrxt0A38Rs2xfByx+264+IsbyRM2DPzcg/CfXDaPw2TNVUw7g0j8XULqbB9SJ6iRZg8g2fZr/tSbKlIj5F2+uSxWksbKdc9oKoNm/v8l0nngIzGMnHAgdCVCFTgN/5GaLN+m1gb/U4a9WWmwo4dZvdwzSLQ0BIPFAd+FBHJxLxIXotTy4a3IJHeAL5H8tSmEdoTJEZMRUJP4UZS6ztoWRadQC8ZO7i+xiq/+ZpNxFA8Fq8PAZMC5ZXzbsnySCJ3JYyxNQekxta4oaE0ONgjT7ZZ/gx2uk2EsZqdh+e+05u1cAyzbfZhcyOHGwQSmrjHrIAfLeua3l9vMbYcU9QrsmiE4glqqjQeTa+gdwehHIYR/mUP4rh++vXx/Ozwvtj20LkMytlG/OqN7QaZdVlhOxp0QgvkxpP5W6kzh9iScFXNooSs573Q/nf0WUWi6ov8K2eKE2xRH/IcYohTwnKwhv32YAkAY0atJxAed6JNlwXp/RXmYWHkMQVDPTDvwKEO9DPveUYQzOUy/N4Vp6jHW5X4KaW2PMJ9CMj8AB2sAbrJT36lWh2UkFzLU4+rj20SzNOrSTJaroHuVejJo5f+tNlge0v205enU9tukeeCj1prhIQm25s6WIyNwXvIh8NcofIN8p8qDSQSv5pUAVc5g4ssZWL/0Ka/SU+UfG4zCfziErBrBnueRvs/H1x+QoovqgTIyt+IoW00w0pb92Bic1/zwUq+mcsYTOl+tIPXy2iD/nWDpd8Lxm7fyBiL7Vd+ozGJqx9I39pqywYPA8QImjowjqRpguYjM3U4+MNdj3Ugt5QVqsSpCR/7qOMYX5EMvCTuc+6hMDs0QRs3bbhValf9JBuknVUkUkwmkTVaYmT3QOVXzyJATKMP6HrMO6pmf8KPwP16M31LvWUbxPtlH261tI0zvg2yxUfAkh2zJIL7A03+exsTXoQ50ZoHvCydCxwLIUn1wNmw8kXPYlEHoMpfHC/Zm4qjmrcM22OCmBmkO48emkOblL5Nc823JYqXlJCiQuJ5PoE99M5B+Rof6Zl8LXVHevfuTGD8VRVGuY2VkLwUxo61iLyhPO8i+brWXK7PJgGw63cSBOjCwJ4PwxTgGDg7xnqkDQwdID98nyIE7+T4K2lTVkgu8AV7OI3pqXNMoyyNzh3yf6rifJZC4a4KV7Ko+EQTPp5XzmZ6/Ihnt82GY3azbhZHjpMMTVV9ZvOaD/3cP/Ae0fecmafBGRvRyVZaZb/yYaOiuVkH3zWTQwv9juxc+ywwC56u2nzwz2Zntt0nzwPfxOEIH4hg2k/G+w57DcDa44B4kp/Opl8yjhoNBDP/ugpk7vznHHBJn1LOo8scWMblhBj2VV5md5CCV5zDFbAhemzr2b8TAry7MR/gQyUYf5u9NwvAtdZ15ZbLuISWrzrNeXhvlv12ehLCb8j9MPRm1W86G4Eb+PIqRn0hZVAFTd/rh3qs1xNb0X8hifm8SbqtSji6zHd6L2WW3bAwHJjHrCGNAlqkZrqQH8e87eyS8EpIn7PAhhFyJD138Qz2/H+2YcVFw4+doaVr+Z3EEBqufLFhPlal3F6SGUxHZi17Y1GeD7w5gbs885g5x2X88jWzMheRB9Voz7EeogrUd+CzwngvCdIYt5sueH9e2cx0IREaR+5ynbw/Ccmm+o5cuDHupN1G2wudZUms02BG8Pgs7e5Ypl9OJ2P4wJrfzw21hgOsiOfItYTiZ7VM6xm3koNuSxQrL+SKJwDYf8H0OJXUoi3p+IfsMhk5za2iqK/Z4IYHx537llfp3bAgUA5g5Il+pUM4idZcCZba9GtP/VQjuhWHFJx2r7wWce13I3Adcg9W63L/HjcyDAvk6dQiW8nZuFo7LA4puzC4kDsUxW2n85xD/akDzKUAA5XMJBBt939Y7Cn93EDZWb98xw/98HAnNAtKsnsx9FMEAt3nrGSNCf4apd8pPYDRNg8nyBvwZb0WW491TCGtlqWPlNt5cBs39v2z7C3Pou8I/dSLbD/VPdmj7bUKG2Tn/1HvlWqr5VODN59EFR93yVF6PXvBLNjpe+6rs+mJe8tV73fjPScnOXvPmmwJC84nDW0vMV7eMb5tvWDGrYQvrwZ7WiGU842Pd5QAi+8bha/YyxluA7aMBGH4LI6oZEy/fncD4Lzbq5VErkFquj352UbtqPdMHx07qXVzVDNWyIaAzQWT2D3X4KvJbDBv2PxWB65RP/zbm28Y2B/rvhxG5Xx0gK+ejGD+boTojrEHwetBR4JNnPWFf27O3tDRd8reWwSDip8oIsBkuzKz7b4Tt00X4FlII9vJz1j0W+K/OkU2w4R8jzGwIw+rEzHshPIq8rm8uvkyU2SXkYf89NxA++JbXmo1+RKNU1l1GKrNZHrKyDs7AevERlV1Yg+D1oIt1+/jfAoFAIBC89SxjqFMgEAgEgjcXEfgEAoFAsK4QgU8gEAgE6woR+AQCgUCwrhCBTyAQCATrio4Dn/xJQ2UhV0FnFJG5Hm86jdaqy5ctzlh3wdNXx9thQ3l50Vp59okuK8bv8N2CJrRYBFXQnCdJRO90MD1iMYPY78ufCvFtpnngex7B0CtwmmwF393mLvScr72zsgp5ZXXdD4cxo/lQVoEvG8Knaurq8urmeiveDFSP1a78vOYkMOUaRkidoHnV5ZvGuFVfXsEa8dsovAs+pP5hU7TlEGw2rdLDKfTU2GEnpE9ZX3mweB3y0B5vSh3oPJ/Zq34Mn5pfOil2I5JTGPokRHdaa968Bk3zwMdWVuB/vizyl4dh2xOHqc4H4vlLwxj42YbwY2UOwNxPdoQcQwhVZnIvI/ZvtmyIDZMZdX5NzZIXT0IY/j9xDN9UjpV+60N4FwWil7aSgQuzUgGT6tx9qy1feWZ2/rdgTck+IHeyawAONtl0wwmnV4M8Un+8aqW+DnlokzelDiwjn7YvU5D+V7+8U1P2zkIqTCoLBAj0sA/Y61GI+iW7BRJgkCwbLfQblW7QfnnOvYOz0vyXDslAl7MkLPsnpYR2ff1CQprcb5GPsesdn85JOXkp+BaUbkj+j/3SDUqrMh9mhZIU3gfJFdHPjJn62lI9796YZINLCmvzooHl3fAZK0UV3X2ezkuj200835AMW1zS9D3lUH1S0hjJyBfjm0Tu2366lvLwN9/Bl9tX8l2d43RF8q1HelJybjLI55vk9CjvWdovz+cXlOa+dUuWbl6uj3zS3GPlMpl/ctLcpx3eT4aVxyPNMbltVa5VZVFITkrujco+GBySL5pTDhBL5m1sYS+PIh7JYVHKJh//8oZUyV4znS27XIScJ1udawvS3PF+yW6i/d0mWXeu71vMlthq3tKG5U9Jk4M8DyamU/VejeT+SAofckgWg7KPyX00Xi1w6d605N6iypHsZDvZnHq44zw0oaFOHkmTvZA8F+n4Rzwf3RbJfS5R1SejhT00tK1GdaDjes2hfEyTPFUbMGwNkjT4IZYHVZZLysDKaZeCC5r7as9plM8W+tPXG24DWp3W1DP9XJ4t8sRQ64uB7NpkkAwWRd+2A2HyYs3gev2Vb9bC0zU18j8sn4fmpEJsVLLL5/gqdSUX9UkOVR4b3dJkUi8P+9kbmjrOfcPjOcmn2leNDFUaBj6ZOpOgysKHSfJcySmTM/9DjuCgQbL9Z1E+rjp6x9nFBsfbY2ngI+FuJ+FG+San8KOrYgyNJpVWmTsIyXlRr8LqNRRY99M9Kd8qpcc5qdAiYCeOU+D6Wq0OrOxkLBTQKkYgT+jtlGbl21YDn8yy5NuEeg6W3YMMwHE2JZXkspSkxTN0j/1hJX0icdwkmZjhNTjeGFYem2Tb6ZSm0/xslsbjWcnZ7ZCC9/i+p3OSx2CTxriz0Vfg1vZSyqSkRbUhUUpIo5tU+TbX2fLLxfP0NTkF9dqzZCfUgFjkaevL0IKmga9V+es5lQZyZ/lMUzo8j6XkKDUE6b7y9qI0Rs7WE1WdQEkqZElW8t/LyUMjmulESQcmctg5nu8a22iZlxa2tVTWy6vXaj6Y/ShZJXk9Lih54nkYW+CyLC1KQfJN1XvwclrIwVfKOSu5SGeN88lopr9am2M2QPfYScGY1w3lfHe10b0k8DXP0+J/bBL2zVZks3i23frS3D7kerh/VnrEEypEPZLJQDagmiLL5yab1L9nWimLqpsFv2RitvJU2SzdC5LMquWr+ErVpuXysDJW7atwxUOB3C8l5K0qywt8NfskKggGZ8lUCKZQy1ilZSRDBTDU7mvB0sDHFbOdnA8XYClHkZ31mrgxyNecmZOmqbVoMLCIr20tNlBOpYxKj9J+hle4dmHXq2X/O0yC90mzF52S4TgXta7sbQa+ZvJtRsPAV608MhkyINUY5MCs7aESOarYtfvqolQ+14+qBSuwMlQbAwraBoKuAi/DXqq20URnKynX7THJUiszys0Y9Tr9C8qWrgytqOvkOC3LX89u68t9KVp7U/LvuVLnmmXloRHN6pGSTm291jVIW+SllW0tlfUy63VdG1Bgo0xLdM/OrzjYNsvZyCYqaPWnlL028Ol1QgF4a9VG9f6ldZ6W+Fx2vWl0SdBYShP7kH2ixufJKDqpyEL2US5ptsY0WX70I3xKY0TdJ8tju9ZXcl1rGjm1MlRZ3ucMDrt+hnn2jONpESX2dyaFTH4CffKLJfy3awblfBbqqkvLxX46Ia/v18dfbrF9noXziH5ts8yFMAznsiiVSpD+ycKf92LgTDsrcxvg+T4MB1sH7YPdCPyURr6d16F2OOG8GUfiBVD+LYzYfie8g9SOujovP1Rmq6PjwNDSdQub0Uy+y6G3T79qfLeBMltAgf39V4byGYNXXeeO/axs7ULSV1vPIOxw7tJPvJy5l0H+m75qevQb+K6M/JM6FtCGvRRvzcC7wwrrB8rPe5kfaKazlZQrl0W+VmakwYE9ZcSTq/yq17Lry1K5ywt3she7uJysH3gR4YfktdaujSJ72Ayjw4up65nqYqGrWmdb1yPHVv36FAaSc67IrbtFXjqyLZll1uu6NqCQe5KHfZudb3G2D8BZJj+gWTG9aTnr0VR/9bCjT5cNA92jjIJcsevTLE+2TTZkFpLKuphE5j55sB01vqhT8jmqcQ7YdSv5GNC/y474QopvE73kR3XmnEWGbh/zqOuzsp8VR2/SEa2u7dr8GWCiNFg5WrE23/H1ToKisPwCSfWneclkuXRb4L6YqixwmYuOwvY8Q2WvFtR+ahK+LeTYGXS+71M3stdiJEYb7BR98nm918s+pKC4zaYIb6MH4ccl5K5RW+pHF6zW3Qjplv6vg4X6EL1RxP8A4tdjcB1ww7DFCTdo38M87cvAved1f7zsAbUja/S1iNEVLDtFLcea9Oj3cwMLaGYvt0Zg2xVCz0/k+B7n5F/4oHyVQlOdrX651oRVqi/JE+zFrh6E/1TklHscJglUMe0MIvF3CamzfUidoEBgDyCpflqzmnV2OfVIS4u8dGRbjJXm5yXRSn9rjf30PCafemE2UtA1mzHAVuG50sHLNGsA9SKX6HrxZPPAZtrA/X8TVj/w2SiI3E9UK9Ra8jyG6UtWuPcpzZ6+XU5kszUtctaqfd8EI/3HWmmJ9KK8WyX7JwVOh7Y/ZoBluw+TCzncOJjA1LVWLXwbnPtM1HqZQewqBbxBJnQHho8UEP5tDsmb1JLZoZz5WmKxUrsxiYT6icUqILcck8n2vh9qYS+sx1w8FMRYr2rMeWpx8z8r1NHZSsplp5b+fep5qD0imTQSvxvg7G/dmuyIVasvWSRuFuE5PQZ7RVS5pa++U2/fvncU4UwO0+9NYZpa0GtTZzutR5wWeenItnR0mB+rDZYlNqDA/Ajreeq4k0Dc4MTAshtVbepvLbkTQjA/htTfFHSp21i4PVnTC1sGm+zkDdPI6BoaZSQXMnDu6uPb9aDg+yE1Bm63M1rXOc0DH0V9w8MU0p186tY7grHBKPyHQ8iq1vk8j/T91VVhOR/HlNuL2IFpBPinD5YDfrgvBzB+i2f4WRLjZyNwHhySWy22g6MYuBTABP/2jy0qG7g0gNGDzJmVkbmbQVHNczlDyinD+h4Lmc1x9DuRicwg3u/BEG8eOVzDyFycQaLXBWejJtNy5NuMDSYylzTSD/h2O2zwIHC8gIkj40iqC+6Wi7IsOncuCvZjY3Be88NLvbSKOJ+Q8df7bKSFvVg3km4W4kjKx8rIXx3H+IJ8iGiis5WUa4sXo4MRBE4lUZQdH1t82YeJ98bhVz9FWS1a1hcjTO9T2L3fygGQoyBRJRd4UGCLAZ8a13wuk0fmTr46vPksgcRdshdKe/XywFh+PZJpkZeWtrWkDiwzPxQkA9sjGPkixodGyyjez8qBiPkR5y8BBFQ/wxYZ/mwC5tP+9j8dWJLPVvp7CWxxwvV8An3vVIeRjY4A4ivxT90ujBzPYfxEVZ/Faz74f/fAf6BZX9IAzwk/Cv/jrfpzWQek61VooDUPfB+PI3QgjmH2wfc77PlIO1jgiy1icsMMevizuK4PnAjc7PxpwVJiOKoqxB5Aal8M2R9d1QVxTW6EkwFkj/MZNaxuZD5JYO5TLuCNPswteJHaq4wbGwfn4PzfOfg2soNFZC96YVOfCb07gLk985g71Ew5nMEhuJhT2OusDgvsdMH9IIPCPmfjMfJlybcJFi8mz5oQtLMyDGDmL76/Bf0Xspjfm4TbystutsN7MVsZ6+8YkvP8vUkYvu2RFyJlaVr3UAXSrGRfpbm9GA5MYtYRxoB8zAxX0oP49+pK3s11tvxyKXkazfthlZ2AEc7bXiQWqDVe55lPe0QwxGWh/pQJGlrVFwu854IwnWGLQLPnWY16KuQozs3CcZktCExpmF1IHIpjdpAfRg7xrwZgVp3aBwGUzyUQlAP5auWBsYJ6JNMiL61sa0kdWG5+bBj9PQF/fgQ2OR9GWPeT82aH5DyMIqf6mXedSJGfSXxd89yvGUvy2Up/a8yLJALbfMD3ucqjJIl6fiH7DIZOJ/lJzYn8i5VF8+OTc7B6OPdRBANcB9YzRoT+DMPdqjf58TSyMReSB9ki4OxaM+xHSAerEPi6qIDsdXeBQCAQrFeuH0XXV3Y8ooCubaiz6QU3U0Oj6TPUN5C1eblFIBAIBG8O2xzovx9GRDMFZDkfxfjZDNx71RGWtwcR+AQCgWC9s9GPaLQPc7uM6DKa5eFW6+AMrBcfIXyw9VuSbxpiqFMgEAgE6wrR4xMIBALBukIEPoFAIBCsK0TgEwgEAsG6QgQ+gUAgEKwrROATCAQCwbpCBD7BmsM+gu06HONbgteBV62T/B9RpOtNYafym7cy88easGrpx+Dt6sHUazjp9arRUlZZTG3rgvc3vlnMIPZ7O1MetiG7J0lE76hT560ezQPfWhufQCBYe55HMPRa1eMswseHEfhddWhpjFu95AbfPsqXh/jUdOuI5BSGPgmRVldO9qofw6fmV32ybtHjEwjedu4mXu5kxy2xYfS2hBtH+HyZ+RSSq9+ofy1Is/U41xt7ZyEVJtufsLsJti9TkP539ZdG6ijwseGRnvNJxE/08QlijdjsDlWX7nhRRIyOVSbCNW7G0A98Rvd6vUfdPtZd7sHE71EcdfDFB419CNwsIn/taGXx2eXOFt4y70T51gR229UJUbtgbbNs5fszGP6wumCieUc1j03TJJSyGWH+wAwjWweLLUBpG0aEDwMV/5jC8AfqPftw9FrVQzS773Jpnl82NOFFVHvfmjxRCsh8N8wnd1bylDY0nKa7KbLOvokjeqyqs74TcRSfLLURLbJM2cTf9fLHbO5wFMXrAfTIeTxa6Wlo7azrg2FM/bEMYa4g/fy1AHarun7HDO9lfryYxJSbT4jMZHAsinybOileG0HPgRmylXEMyIubko3IRzgv4hgh+xu5xbc5mdObOxoKZT2brh2a+i2nS/ZzStPuvzUCo3WcegKaobG7U9jdP0J5isAr529IM7l6GWmNLRkdRxFtNjzaBKaPig/5cBihZ1a9M32R19gZs/spJCvqUWx6s6o70o1sh/yojiKV+0Mrdl/6/yD6eQ/cP9C1pweUek3XyPB7qb5kSbm4DWUu6evR2vi9mmFKmXr7coifr+ZHL58adH69tezKabLdBj5OPyTPY8StGAI7uI96x4phKl8lPVWPRjOsZiPZm+JTN38S0fca2cwtDdEtXc+XeodF8l3JKcv4lxal4HZIpuPK4vSliJvOD0qL6nL9f+ek3FP+d01aMnWWxofJI83xawo/utisMpLl0JyUYzf8pyDNHTRIBn6/TmiVd5nHi1JKvhFB95ply9jzpfgbl21RGttkkDxRdd38klTI5qTKKvpN0pTujUk2tuS+KqNMULLDLYX/5tuPZyVnt0MK3uPXP52TPAabNHaPbbS473Jpll95GX/S0c6glOJ5LCVHqQzVPJdIpwaNDkt/TlMZ6JpD88qODlB0ZqqW8ems5GL3t1D6PI+FK3Q/g1+qaHHBL5lMbmn2T43MTBo5MZvbZJP690wrZVD1KV+nyfe9Gl20y3LTZ8dBuk7zfDP7krOck2YHITnOLip2y+uA7T+LbItorZN6dU+WLdfJ4n9skuGzG/LfCilpzGKQ/HG+2Q45slWyZW15DBaLZKnxH0rdVeq651dlv/TnJMnCQyXRwPJM5XKcTUklWYYlafEM5Xl/WJFDJ8jpa+vRDcm/lWSmyVviuEkykZ8p1LsXq6cG0l2lqhWkR4pyCCZ/uzT5J/35z6I0ST7FcU7VDR09pK0/CvK99s9Kj3h2ClGPZNKmz8ver5ad6fyQScLgLFlDZ7T2ezW6kKnZV9FF1QYTJyndSn7qnK/KtqXsSA/bNbZbUy+0dqreBxZfpf4rPkH1iYotY98s1yNtn61vM50HvpoKJN0ekyzwyUZbilCgYsGh9i6MmrRkdPuUQjkuaM74O0yFskvBDN9m1EunDVrlvR5aoTcum+IkPFdUZTZHp8glZWGGYJJGk8oWO9fydUrZ4CSOG/i+zu67XHT55YaqryRUkbaSk1xgf5eksC5QKrA8V9NoH/ne27Xy4elTBayicTwN7i/rTq2kTOassVEjNuagXBGtcpWAo9/XBstKv36+ZZjTtoyRtjXIQUXd10onRJ06o9OrGng0Qbqafruw+lu9Z+prC9XlWclvcEqzsuC15a1xlA0DnyZPDNYw1DZy2oTlpdb+chedVZn8w2SoCdoMbSBnfoI5b7WBqkO1vwLpmAXPeV3jc0ng4z5NsVcVRf/Oizys1Su7fJ1Dmszy7TaR9dzU79XoQqZmX8v81DlfvWdL2TW3Xb3/Ue5TW0/mDlZlt0TeLC+m0SU20/kzPoddv77cR31wIoXMX2zttBDCjmn0vEtd/RMhpJUVHDvCvkWT+gYTTHQ3m7xe3irQJO+M8sMoAs4eZViCfgOnqwtvNi6bA4Fro8geNsPo8GLqeqa62CfRLE1ltel4dcjgQRpp9MG+Sdlkqzznv+lTuvT8N/BdGfknbG2y5vddLk3zK2NHn27ZMQMM3WUUCuzvHHJZytlW/dCm5QP9dkfYtTozwGQisW1qlF79+xt2OGG/GSdNc3qdNStLZ5FJAzFPddi4q8uKozfpiCzrDuk4/fr5lsmQfeYn0Fe5jn67ZlDOZ+kqlWY6aYMtXvh3RhC6qth0PBKC9VMvWVgn2DAwSNcuMHtJY+4nI1x7fHAdiCN6k9J9kUL8phPuwQ4mPO6luqBd/7Cbri0X0G6xVHJP8vKq6VosFs1A518ZynEMXnXNPvazsvUxScZsfGx7ANGTWXitRvQdnkLswVK/ljrjxNDlYYQvatYHrUc+R6k6yM/xbRkD+nfZSXYVC11a9g0ODGxNI1NbHduhhd9riyX5oT60pY38tJRd57a7pH5TvnLFkvy3vEL/QnXoM3OfKt6OmvITK3+5pVymm5hhYvbcbYHn5xxKj2PwIASXlYLET5VR/2VCwW8D/3O10eb9SQhDH/qQO55A7jE5Ivolzmg00qRspp1BJP4uIXW2D6kTPfIiuUm2WGKrNHuDmL9QgNdspCBjhrl/Dq74HHyaOkmtF2VRSO2Pr43V8L7LpVV+XxNMG9ZmtnhqeS6R9eLJOsFomSw7/d5JUBu25towVm+FNGr/f+FG9FIY+RcUqH6ywX+4c73373Ej83sC+YeUBtWS4V7AudeF2PU48EcM0V4XnKv9lsKq4QH1K2pkvIhROUCZ0H8mgVIhheC2FALbjNh8gq+ULpNBLO/F2N4QvJ/HNPtXkzJKRQoK7/LNlaD1eyuinfy0kt3qYj89j8mnXpjZ+xJmMwaiLty4svTlmM4D322K8vxPGfbGmMGOHk3KBosDvgvkPONeJC5EqYVTn/LzRk9H14hmeU/HEe8dR3B/tb2Wf7w05w3LRq1R+95RhDM5TL83hWlqzbdOM4nQmTzG0iUKMtSSJeOYHKyeK7deki2MpN59l0ubMmgMGRv58exfusfIKLbd9VgpNtipm5J+oM9z+XYcmUEn9aUbQfn+kLRxeznN6XZolb4it9p8y8ijAomVNWjawHDAD38ygrnLUYQ+8sOr65G0yeAQXNSznrseQ/bAkNxjNOzzwvVLFDO3E3R8YEnL+2Vg3WhBNltjE1rfY7FSvyOJxH2+3Qjq5bhOhrGYnYblv9Oal4TsGP9+FMGfqeF62Qvfb0382ibqKVH/MqP7dq2MJPWUnbs0Fno/hbR2BEd+83UAjuXopQ2fraeIgrqivQrlR/tSHp5TL7mT/DSU3SpzJ4Rgfgypv6nhTn6ncHuyZvRFofPA92ASwat5xRmXM5j4cgbWL33yq6vlByTgouqmy8jciqNsNcHINuUKHKoudPgsCt+Jl/zlTpO8M89juU+Onyu8fHcCo5fUsjQrWx6ZO5SmahTPEkjcNcH6Pv3dIk1WYZz7CphwaIZYNG8p2o+NwXmNnBD1LCt3fkL5kN8Aa3JfCsdTO7qw+5I+ALWkZX5bYYD7oBvJ06OIqmk8JEP8ocN8rADXMT9yp0cQesjzzezs8zg8x4ebvBJtgOeEH4X/8WL8luq0qFV8n2S9KgGnVfokt8+op336KKbu8nw/J/0+ob97RzA2GKUeWAhZVRV0LH2/A5lSy9fwkBxpE3+Mbid8Xy4icCwE5xfLfH18Qz+cvWnMXEzB9wl/mX0DG95M0L403HsavOC+geyWgkH6Ad9eZRweH6w/BDBR8T1JjF/Q+J4NHgSOUz08Mo6k6vDLRWTu8o+wn5CTZ7rgFJMJpE1W6jPVYHJj5gr1cA/7EeOyNlO3KptOV4be0O3CyPEcxk9U9Vm85oP/dw/8B7RSjyB4Pq3U7xdFRL8KIL7Ph+HlKKaZ3+ONsig1eIqyLyHf9o0fE0vMqyY/n1MZ28lPu7JbLbY44Xo+gT7+9in71fsSoPPAdzCI4d9dMHMnPeeYQ+KM8jSgmKWuvk19jmHEwK8uzEd4JWLDehftmOavoRv3xDAcmezwOcIKaZJ3NhYd/jKHkfcVYdnOWBCK+cklKTQuWw7xrwaqnzl8EED5XALBnXRRizSTJ+zwIYRciQ+t/EM9vx/tmHFRBWQnbPRh/t4kDN/2VF+z3kNKlCtnk/u+SCN1px/uvR3Wkhb5bQfDwRASp8rwW3kaXxUR+N7Hj74EPp5GNupAZJDr6oMgjD9mEdb0YuvCrou5kDyofsphhv0IOafV6mm1SN+wdxaZiA1hNd9m6kXIDSALfLFFTG6YQU/lUwgnNY46ePb48ThCB+IYZp94vMOeXdXH8S8vDGUXvPuWOwZmkxtymfsuuJgdyljg3AtkHrgwNMh31WLxYvKsCUE7K98Aqp8zrBLkexJskdUdqu8JYeCc3vf0X8hifm8Sbm63TP7ei1klYD2LIzCo+cSH7HtyIVj3OzXTvhmE98UwdDgiX9v/VQjuhWHF5xxTJM/uNfdRBAP8maL1jBGhP8Nwa020dxT+7iBsTOfvmOF/Po7Ez57mzw8b0czvsUbZjzfgz3gVX/KODePdUwgf4Yc5huNzmFpOfjqQ3Yp5kURgG/ma73MoqcPV1PML2WcwdFr2qFXoYNvo37B5s3j98j4v+Za83UXUe8OtUxb8ko3K2uH7iIJ1zptcv98qtG9FrpB1pdOYr67c6slg5S+3CJZJHxw7Mwhf1cxpV84jeiaIzP4hOPmuZUG9i0c/uzrqqQnWOc+iGD9dxtgXq/fKjEDwUtnmQP/9cPVxGlHOk12fzcC9V+9RReB7ZVjgvzqHvugAjF1GmNkQgtWJmfdCeBTxiKAleEmwmV+Y7flR/nYewe18t0DwprHRjygb0t5lRJfRLD8esg7OwHrxEcIH9R61i3X7+N8CgUAgELz1iB6fQCAQCNYVIvAJBAKBYF0hAp9AIBAI1hUi8AkEAoFgXSECn0AgEAjWFWsa+Mp3JjCgzjbhVmYyeL2pWYCxmEHsd/U7u3qLM64l7DXzHkzp5vTTo1+kUdCY1rJcMU+SiN5ZnanZVkOv+jSKyFyPr9L0a68YXZ18DXmexgR7nZ75vHeGEXn9nd66ZA0DXxYzR8Zh/rGgTB1zxQPD5SH0nO9k0uNXTHIKQ5+EoFlDetXJfzeALuMI4uqcm68FSpBXpxliP+OHuzF+/SXVYraCM7vn5/Un1ypfHpaPv062lL3qx/Cpef0qz68NCUy5hhFqNQnzm8BLqJMrIfuDF+PmEArM55Xm4KmZ0yt2+PWy23Z5U/PdiDUMfBmk7tvh3ME13w2kk2s2J/fasHcWUmFybeaVk8lg+kIRjt4ZzPC10F4nKsvo/MOWPrIg4urD+Mtynjv74fghhNiSBkEZ0atx9O98vZZLsn2ZgvS/y5zcec1xYVYqYLIyf+YbzJrXyZXB1tC07+pX5rDUrl8neK1oGvjK92cw/CHvttPPvEMzy/WLPKLH+iqTJBsdRxGVVw0g7lKrbIcPEXLs47ussH5wHP+vz3vg/qGMzOkBZZHTE/9vRP7Vhb7/aloRN0dg7LJi/A7fJpJfGGE9pbTvyrcmsNuumfDUHdIslcGGs7yIPoshIE9224Wj15UjxT+mMPyBso9N0nr0Wpvtctbz2DZF/Z86vMgg9H+s2PxFvDKEm792FH2ViYSHMfVHix4Sm16n7MbkCb4WGt9dH5Ldd8OwcnkzXaQN2kVe6g3n1exjstlRlZ/xwyHMtBPI2NJHB0II7ssiep1L43kSE84ezSTZ1KPQzK6vyNwIo9UKo9HMF7btwfgf2uP82no6eeGEc191cdQKT0KYvu6Fz823Oc1to4ZiHCMfWrH7El+shdtyZSJw91R1cWC590syvJ/BjMsqH9fZLEc/tMhtUVt/6pSx+McMvHzSdjbxec//1OvHtKHXDm2D5bXnmyRiJ6r1V1/m1vpTkcv9r4h+6PF5BENssmnuDxrXiwayfVHU5a3LuBlDP3Bd1dbJZn6Iwc4/HJXls5nnQX+OIjv1GJuAue9EtU7XIpeFTfYt50ur0zT1qvvgu0zBj/u4wO/8UAc0Tp/B7apDH6foO66xcaNSxidRHFXtj65RV4VpDdfbH3EEKtdvxrBanxgNfU29R0a1+5RyhrRlkv1LEcnzVTtvWsdbwWZuqc+iNLbJIHmi6kL6JamQzVWW1U8cN0mm/bPSIz4TciHqkUxsifnKuvvqkvx8k6hdFl5e/n9fuDKZcuK4QbJYLJpz2FLz1WXopceLUirHz/6nIM3u06bH7meTbDud0nRaPYd+j2clZ7dDCt7j+57OSR6DTRq7p2zqabKEvu5YgcpC5T80X5EHmxjaZKousV+6F5TscEvhv5Xtetz4zCDZ/rNI+WR575emH/MDMnr5lSgvBm36f05TuaCZfHWpvPX7SlJ4P8nrLN2PU3pM+mQyWkKNHGToepK344Iq75y0eDtX0V3hR1dVVn+HJTfpYjTJjxZqZN5KJ1zuqYhbwuAs3anK4n9IxySzWltqbRtcDv8sSpPbqRznqnKQbfnQHJdFSVo8Y5ewX7VLxQZtW/ol/6+8vHVkpp8Il92PdLMzKKW4/kvJUcmmtQcmA5gkzxWeZqkg5Z7yOy5Jq5le6dIObUNOHxbJp96by0u2RUYr/Wl5PC31w6Wz81KEbGHntKK3pvWivmxLTO+9QWlRlfPfOZIN/7tmAueWfoidT7roP5uSSly/iZO2qn7vjUk27fmkh0e5Sq3WI5fFLc3+yW/G7Nak9ZEk6Vq7rKHp8ZbpMz127uMUfZOtqek8nZVczD4tVG5eZwpXyIYMfikhby1Fn2/FP8Diq1zP9Oqgeyi+upmvqedbavfx+rOdbEBOnutMq8fSohSka5wXtd6hfZr0+KgNx5pxlYhqgGmTRenCU4su+B31zM75YONToJn2hzCzJ4KZqzUt9yZYBl2w/57g4/VpzF+1I3B2GNnrcaX3k48jdt+JgY/kE4CNbLl7fsNuE5y77PLQQpUs7Mfm4P9IPYf2XJ7C4skQxnr5vvfcGPk0h1Bk+U8JMuedGMqMI/Gjq7IsR+ziDAa+D8H9nrJt6PVhdDCK8G8NhjBJhjM/8JWuu13wfUYtxou65SI1lKlHGIHtVLCa/hY/gp/p559rCdMl/dQcGTaSPtsZjmFrk/3khf83J/wH1J6EBfbtlsqcoqZdTtjZYpVsI5+j//vh3MmPmhzo25JF8rbSomxXJyZ5cdQQ5iqt8wzCvxjqrw7e0jYY1JP49wCC9nnET/I0XsQw/R31Tr53c1lQ7/bTUTivhRGtvAxSRmn/FKb38fK2OYTlOTUGxwblb8NOH3xbY0jcVbbT348jfiiM8AGepsEEy3s8/x2xTNvoDWBMvTfJy3fEg+ytBK93zfWnY+MwvDtjGjun/FyOwflvZf3D1vWinmz5MdX3bLCQbPjfWtr2Qx6Mn3TAwPXb/28f7Ne536Fbldj/6r1IDzZLzYM5mTIi52ZgPTUJ3xZ+M7Lb0PdORL6bazFa0w7tpr9MH7dds8D0e1549wH2L8bh5nXGdMALdzmOhG5koTn2E2OV6w29Ywh9bcDMj3zUY7m+RoPvzBjscvKks088ZE8eBFQ9GuzwkB+IL6TYCR3TJPA5ELg2iuxhM4wOL6auZ6qLnlLFyNJxu271XcocOZuOMrJlAE7EEWdDZHfmEDK44DrkgvtmFHHmdG7TsUE3nNx5lB9GEXD28GEXKwZO1zo2Ozk8vdEy55f/pk/pLvPfwHdl5J90sJ6ZhuJVLwa+AiYvj8JeUWQWGbKxmKc6LNzVZcXRm3SkwX3Kv5Fj3Vld6dp5wIfc+RllHb4l5JDLkka26tevtnzQyXrWBni+D8NxsQfGD3Yj8FMaedUqG8CGouWyGK0Y+sWG0J/z8G3kB8tZRE/sRg/XhXXXuBL0GOqK1uqQdTGN1EMTHHZFN23rpNsJ9xFNg+DmDKYs9VcHb20bQOoMNVguDyN8sdpgwV8ZcoAxePnaaPLPytasyyKn8WbOXZ0+VbKjTxefDVRhy1AXo889ycO+bTWeUy7TNhx2/WrozJafFpUg0EJ/eiwY/rcTsctRxcnlwwj9Rg25gyzstVcvamVrOBBC2DGNnnet2H0ihHQjQ23XD/X2aeoq0U3etFyArIrtAURPZuG1GtF3eAqxB40qRX05G3ZQg+9mHMtzv1raTX+ZPs6u1Td1YigJ26YWNtKC2rw6KK+gvGSX4WuWYof9Q/4nw2SG2WKDrcPg2Yimz/hMO4NI/M1ebOhD6gQVwh5AclVfie6H60CGjDSPLAU7HBwmAyXntC+Geaocyd+jsO91Ki8MPAlh6EMKDscTyD0mI6Ff4kx7joO66MpLGtrfz8tbfiWWNGP8syICB5c++6Ou+pL7LJ6sZ1x5hL6lltEfI7CqxuqcQblMFZ7KvWZs9CD8uITcNQ9AvVWrdTdCTVp41fKU8Cg+CbfaEmX5d22G75kfiayii9xCkEyVs8GDUMyJ0I4umCkImW0BlL9N6F6uaFcnzs9HgV/CclCN/TQDV73VwduyjQxieS/G9obg/TxWaYkqeDBfmxdpEaN1Auy6oA39abEc9MHFGnLkG/K/RRDfT70H3lhltF8vON3Utv85h9LjGGkmBJeVAuBPtbVttTCh/0wCpUIKwW0pBLYZsflEssY+Xn+W4+NMG9T6vDqUy0XgXROMbKNDX9MW75mrDdYV0vqtTvZiw95RhDM5TL83hWnmmDfZqZ2VRkZXkDKSCxlqjfTx7fZw7nUhfnMOsetZDLvYqsAGuA+6ELk2gwR1f5z9vIKkqffXq+muE/nHrSsDa9VkkqtnyJ4L0xhly7eUAxg+r/YqqJdBrZPk7aW9jLrcn8bUH26E/9Yb6uJ/rJj5ruZFARlKn8SQ/Us/oFJUuw+NeF6s85DeAMt2HyYXcrhxMIGpa8txKCnSmR3jp9XhQSKf1TQE8pj7bwh9kRIKFIQKhUeY+7QaiDrSSa+XnN8UZq5FELrsxnC91cHbsg3K7/ejCP48B9dlL3y/ccmovZuX/Kq/daOlzlBsm+j0ukzbaEpz/S1hgxve/Wy4M4v5y3G4D7jJyhgd1osaDBYHfBeoMRP3InEhuqShuZp+CBvscJ0MYzE7Dct/p+usUm+DndxT+oE+F+XbcWQGnejwbnVYfvqr7ePaJX1fr1f21r6ht0fTMG3X1xRReMb/fEk0CXx5ZO7kq8ObzxJI3DXB+j793e3CyPEcxk+EkOXSLl7zwf+7B/4DS9rjFcwmA7LptM4Zy1359Axm0j54P+b72PBmcgahO2641FYm1W7LfXJwXEDluxMYvdRa1fZjY3Be88NLLUb17PITqizaN786pduOsauTwCkvpuQ3Galrf8KPwv94MX5LLV0Zxft0nzo95HQkhNxnfng0rWKG/dgo+q9Rr2/JAwPWGHAjeXoUUbX8D0MI/qA90UYVIEPBgX/c+6KIKPWWqp9Bl5G5m0GxIoQMOYgyrO/J7bMOscJmYT11Xlb20e7XIU3Fs2Bg0KEf4nrHWnnrqzOd2DFywoGQx4fYp0tlJtOJbZjcmLniQuywHzGWferdBI4XMHFkHEm18rFnmiSrBimsCo5/B+D4ZQQjv1EdYzvYPR8uUTzRSq/t2EanNNffUigPFOxiVJ7oTQ98B9TGSWf1QqX8gI5XDRWZW3GUrbwnoWWZfkjHkwzST6qaLiYTSJuol8u3tbiO+ZE7PUI9F37+syh8n8fhOa48z1wpy01/TXxcG2TOBRHlY5jl+xPwf2fF6GE2bN3M1yiNoejlKIpybKFzv/FjYiXmynhBPmhHHwK31Js2p0ngyyH+1YDmdfUAyucSCPJA1H8hi7mPIhjgz0asZ4wI/RmGu0lftP+rENwLwzCz9I7xNtUWJ9zFDDL7XNVvcyxOuLrZviE41R7F9gDCX+Yw8r5yP9sZC0IxP1WtFmz0Yf7eJAzf9lRfV98TqDjJZbOVesFngcDecaSZAj+eRjbmQvKg+gqvGfYjVCFrK/iLOEL/NWL08zprrFNeR/bT8TovCBkOhpA4VYbfysv/VRGB7338KMOO4PVZ2Nm4Orv/u07E9ocxWVlYtIjsRS9s6rOsdwcwt2cec4eWU2UdCERGkfucl9UehOXSPPxcGfmfdqMvOoxUpUdLPYfkCDLHqFKzonWoE8sBHwbKJoz+u8G69B3ahmnfDML7Yhg6rMwmxGx5fm8Sbi7bLrMd3otZXQNt1dkyiniSHN0JmyID9hz153ot4lZ6bcc2OqOl/upgIB15rscQ/8xHdZfvZLRbLzQUsyF4bWrQNWLgVxfmI/W/kVyOH9LxLI7AoOYzGJLj5EKw/neCrCxRByKDPG8fBGH8MYuwZqShHTJfba7cT/l5lYbMctNfKx/XAs+ZYcT2KrIz7mCLalN8kO2yma+hxtCPN+DPeJXY8o4N491TCB9h162AchapuxTss+3V2i4ybLEQrWAVyWJqx2akTksUXPguGfZtTgB9f67jZ2dvBEJ/glaw7+7IRs7W2sibQ+tnfAJBR9jg2GFA7Ko6lEG8KCP9zTgim9xwCaf5miP0J3j7EYFPsOo4z8Yx/jwgz7BgZrNQvGuDL+ND4rbmzU/Ba4vQn+BtRwx1CgQCgWBdIXp8AoFAIFhHAP9/lADXr/by4mkAAAAASUVORK5CYII=;" parent="d-dwPR9BG6M5_yMjoHCZ-1" vertex="1">
          <mxGeometry x="68" y="154" width="107.58" height="55" as="geometry" />
        </mxCell>
        <mxCell id="8edfGr-UJgzJI8FCnGSd-60" value="&lt;b&gt;&lt;font style=&quot;font-size: 7px;&quot;&gt;IMG&lt;/font&gt;&lt;/b&gt;" style="ellipse;whiteSpace=wrap;html=1;aspect=fixed;" parent="d-dwPR9BG6M5_yMjoHCZ-1" vertex="1">
          <mxGeometry x="47.5" y="160" width="15" height="15" as="geometry" />
        </mxCell>
        <mxCell id="8edfGr-UJgzJI8FCnGSd-61" value="&lt;b&gt;&lt;font style=&quot;font-size: 7px;&quot;&gt;IMG&lt;/font&gt;&lt;/b&gt;" style="ellipse;whiteSpace=wrap;html=1;aspect=fixed;" parent="d-dwPR9BG6M5_yMjoHCZ-1" vertex="1">
          <mxGeometry x="47.5" y="183" width="15" height="15" as="geometry" />
        </mxCell>
        <mxCell id="8edfGr-UJgzJI8FCnGSd-62" value="&lt;b&gt;&lt;font style=&quot;font-size: 7px;&quot;&gt;IMG&lt;/font&gt;&lt;/b&gt;" style="ellipse;whiteSpace=wrap;html=1;aspect=fixed;" parent="d-dwPR9BG6M5_yMjoHCZ-1" vertex="1">
          <mxGeometry x="47.5" y="206" width="15" height="15" as="geometry" />
        </mxCell>
        <mxCell id="d-dwPR9BG6M5_yMjoHCZ-2" value="" style="group" vertex="1" connectable="0" parent="1">
          <mxGeometry x="-613" y="180" width="200" height="390" as="geometry" />
        </mxCell>
        <mxCell id="8edfGr-UJgzJI8FCnGSd-43" value="" style="verticalLabelPosition=bottom;verticalAlign=top;html=1;shadow=0;dashed=0;strokeWidth=1;shape=mxgraph.android.phone2;strokeColor=#000000;" parent="d-dwPR9BG6M5_yMjoHCZ-2" vertex="1">
          <mxGeometry width="200" height="390" as="geometry" />
        </mxCell>
        <mxCell id="8edfGr-UJgzJI8FCnGSd-44" value="" style="rounded=0;whiteSpace=wrap;html=1;" parent="d-dwPR9BG6M5_yMjoHCZ-2" vertex="1">
          <mxGeometry x="8" y="328" width="185" height="27" as="geometry" />
        </mxCell>
        <mxCell id="8edfGr-UJgzJI8FCnGSd-45" value="" style="whiteSpace=wrap;html=1;shape=mxgraph.basic.roundRectCallout;dx=168.6;dy=18;size=6.67;boundedLbl=1;flipH=1;" parent="d-dwPR9BG6M5_yMjoHCZ-2" vertex="1">
          <mxGeometry x="10" y="38" width="180" height="137" as="geometry" />
        </mxCell>
        <mxCell id="8edfGr-UJgzJI8FCnGSd-46" value="&lt;b&gt;&lt;font style=&quot;font-size: 7px;&quot;&gt;Like&lt;/font&gt;&lt;/b&gt;" style="ellipse;whiteSpace=wrap;html=1;aspect=fixed;" parent="d-dwPR9BG6M5_yMjoHCZ-2" vertex="1">
          <mxGeometry x="14" y="62" width="20" height="20" as="geometry" />
        </mxCell>
        <mxCell id="8edfGr-UJgzJI8FCnGSd-47" value="IMG" style="ellipse;whiteSpace=wrap;html=1;aspect=fixed;fontStyle=1;fontSize=8;" parent="d-dwPR9BG6M5_yMjoHCZ-2" vertex="1">
          <mxGeometry x="49" y="162" width="20" height="20" as="geometry" />
        </mxCell>
        <mxCell id="8edfGr-UJgzJI8FCnGSd-48" value="Username" style="text;html=1;align=center;verticalAlign=middle;whiteSpace=wrap;rounded=0;fontStyle=1" parent="d-dwPR9BG6M5_yMjoHCZ-2" vertex="1">
          <mxGeometry x="71" y="165" width="61" height="14" as="geometry" />
        </mxCell>
        <mxCell id="8edfGr-UJgzJI8FCnGSd-49" value="&lt;b&gt;&lt;font style=&quot;font-size: 7px;&quot;&gt;Meh&lt;/font&gt;&lt;/b&gt;" style="ellipse;whiteSpace=wrap;html=1;aspect=fixed;" parent="d-dwPR9BG6M5_yMjoHCZ-2" vertex="1">
          <mxGeometry x="14" y="85" width="20" height="20" as="geometry" />
        </mxCell>
        <mxCell id="8edfGr-UJgzJI8FCnGSd-50" value="&lt;b&gt;&lt;font style=&quot;font-size: 7px;&quot;&gt;IMG&lt;/font&gt;&lt;/b&gt;" style="ellipse;whiteSpace=wrap;html=1;aspect=fixed;" parent="d-dwPR9BG6M5_yMjoHCZ-2" vertex="1">
          <mxGeometry x="14" y="108" width="20" height="20" as="geometry" />
        </mxCell>
        <mxCell id="8edfGr-UJgzJI8FCnGSd-51" value="" style="shape=image;verticalLabelPosition=bottom;labelBackgroundColor=default;verticalAlign=top;aspect=fixed;imageAspect=0;image=data:image/png,iVBORw0KGgoAAAANSUhEUgAAAb4AAADkCAYAAADn70HMAAAAAXNSR0IArs4c6QAAAARnQU1BAACxjwv8YQUAAAAJcEhZcwAADsMAAA7DAcdvqGQAAJnYSURBVHhe7f1/iFPX9/+PPucyhQQsJNBCAhaMWDDDCM2g4Az1j4n4ATP4AjNYMEHBV6zQZizUiYU685J7fWcs6IwvaGda0EkLLYmg34nQMvHyLkb4jiTl6k0EZeKlYgoKCSgkUCGBCueufc4+yTmZ/Jwf/pr9gOicX/vsvdbaa+29zzl7d0kEBAKBQCBYJ/w/+P8CgUAgEKwLROATCAQCwbpCBD6BQCAQrCtE4BMIBALBukIEPoFAIBCsK0TgEwgEAsG6QgQ+gUAgEKwrROATCAQCwbpCBD6BQCAQrCtE4BMIBALBuuKVBr789QkcPXYURy+l+R6BQCAQCNaWVxr4UpfHEbqUgK3fzvcIBAKBQLC2vMLAl0H6Nv23bxyjvQZll0AgEAgEa8yrC3wvMlh8ADj3OSHCnkAgEAheFq8u8N1NIQ4L+h0WvkMgEAgEgrXnlQW+fDqJPPrQs5XveIUkT1jR9c4ApqgHKhBoSZ7eDGNXF9mHFcOXMnyvQCB4k3llgS97LwEYbLBt4DteGTGE/psHXiQROBfj+wQChdzDLMrsjxd5RI8NYOSWvFsgELzBvKLAl8fifXInW2x49QOdlIdNyl/9jj7lD4GA8SIL05FHKEkFzB8y0Y4iQleSyjGBQPDG8ooCXxZp5j8cdgo7q0+5LLfR28SO4MINhK+kEPtsBWH4eRH54tL7lp8VUX7BN95GXpRRzFMZ+abKW1Huv6hZtMcGA0xwfeGXG2nlYkE5JhAI3lgaBL44Roxd6GLPNio/I6wn4pXjgQ/M+uNGa81xK8zvaI6bhzBDjkTmeRZZ8pQGk5nvWCX+msFuyrfxmJqPNtnohOeAA6Zuvr0Msj8MwGo2VsvLf8b3B6rlfhshmQ9YzcpzsLet3Fts1YYZ2apsrSuwEYFA8HrQIPA5MV2SsHiWf1i+dxYFqYTcBaeyTccnHxcgZYLUXyK2BrFYytUcz6HwzyKCWynAHZxDoTAPPx9SRD5HfT5qTX+wygOd1PvIUUC1b3v5H8TbTi5CkjQy62UykWjfIka3KLveSraMYpHKLf0zD4+8w4XZp29hucm2GM5+MRwuELzpNB3qtB8fh5v9QXW+dihLx4MU0s/53zqKyP1lgO9zN9gTkgqZFNj7cVaTUdleLfLUk6T/DK+wVW7f75UbA/bDHtjX0weK3Xb09dL/vU4431N2vVX8uUg2a4dr8NU/lRYIBCuj+TO+DR74PyPvfTOGeJ3Alv0tjPJW5uajCF3OKzu13AojBB+8H/NtFf7sx2LROJEHU+jjw2Te3/g+LS+KSJ4fhlUzfLr7knrPGLxs364ZOUCnT2xWzrFPyAG2EeWHcUSvzmD82BD6PjDjqPa+T6IYOR1B/q8QvJUh3DboXk60o7J950WfmZetfwoZWUbs+VkG8asRTJ3wYveHA5h6qOxPfzNA53qp5FWKf0xh+EM+3GrsQ+B6EXjOr/9qBEM7rPoyEpnzffL53mt8h0wR8RM9SjqeKN+3HMrI/E73PhVA4JM+WM1DCHGVFe9HMPIhpW8eQVL3LJDpOYCZP/KInz7Kh0tZOmSDv81gxLMbm42UDhVNS9TDZMflsQZlzj5Ik8G64Xybe+8CwTqh5cstzgM+GCiwhX+r7fNlEf25DM/VOYxtAuI/zqE29CWvhGD60od+vq2SfVgzKTU5qmTZi8A+vl3LiwymdlnhfexD+m8Jqa+VJy/VwOlCWJLw6IKD/rZj8k821Ea/zJgyFNuA8gYbBvb4MFCOIf3EAIuVH6CShP49jPi7/bBscqLP2rS/u0KKiB22wZmk+z0tYfEsleGPAIbOsJBdRJb+69njhv1ZBPGHRpjY5x+3AnCeLsL1qROVLFPDwdk/juLnKZSo7IVvrZhyDVOAoDLu88D9fhyxO3mU+OmMzHcjiJX5UyxNLznz3wDSViZLkqZD+X95GGDb4cboWT+smTTydK8eprK/sihs9cDFDKMYR0L7LPCPIFxf5WDbaYFzh52/IGOAfdAF56AZ2ctxZDcNYEA7hPAihrnL9L/FpsjDsPplztzLwHBgCCuRhkAgeD1oGfgw6McoBbbYtyF9YLsfwsxzD7y9doycIA9GvY3p+/wY40Uc4UtW+DyNXIUBZva2wIssYkkD+j+ywKQbD1WhwPBvJ8LuFB5964KFOlSOHcxj2tHzoXJGBfk5jAP2NlvlJnKUFpPaQzPDXLl/CvHfKUA/ZiW2YfSkS9m9Ftwcx/AvBoyecMNEvUX7yUn4KUvZq1HqrVrgGLRr8miB1ZLHzOkExu8tYv6ijzti2neEHPfOSYS/tJNkqWyDTpJQHPG0AQbakcmwQGpHn9oSuDWB0KYg3Aa2n+uCwfZvmcQon1jAsWVl790a5LyXlQDWyz5fySL7wgZbg+Ho7EKMNJ5Hjol+32j1OSE7nz8bxg7SMfufU6Ree4T98Z5ZGVInOa5umZV5Zd17aptwAoHgTaR14CPHoQS2MOae8F1E5koEhs99sgOy7PdSry6Lqe81Q4ILUYQsLDDy7SWQ86PWf/ZmFvY9jZ1r5rwTQ8UpxE9WXV36NruPlQKCsq2Sfyy7xWViVXpTMhQEyXGWv/Ov+WwusZ/Y8OwQBrbzHd3Um9lD/z9YVJy8TBbUYZIp3wwiuneu4qRlHoYx8wf1zqmXWhk8Lhage/Ge95zkAFKMIRB1YHyfKkBFF9r92Yc8OLwvn7BCsvK8rLDbYX0IGJs0TIwm1meLI/AVC4D10b289CKNyW/LcDJ5sBirZbXK/DyNxAOy5b18WyAQvNG0EfgosB0ZgRtJTF1kjoGRQfgXC/wHecDa6MPIPnLKP0UR589r4ldDsPHAWIvSEieeJZG1OquvjNfyJISRU2bMfu+pvhxDPUl5phW596PsUinU+Y6ufbTp9cP7KbtjGoH+3QitWfAjh0o9S1CvuSonA+/5lrGkOBYz4j/k4PtML7H8zZj84oVzl1KAcjGNic8mqN/kQN82eReH7rOpiMgXUTjPuGSZVhsLZcTOxDBwWtmv9J55cFgl7HYDcqzBwrfrYdnrAXs3uPjLEPq+iOuDH395Sdsjy34XQPYrH2w8sC61pVUo890E4vuG4GzQSxUIBG8WbQU+9SWX7C9h5WWR+2FELF4Mb5SPEga4D7rJj8xg5io5DwpO0Z8c1cBYCw+OsYWC8iagjNqrqQ5hxs+OIPHpGHyV+5BDvEr3YP5pa0+Nk6NA0aiL0A4G/p0Wp/8CBff95A6LcRztP4pY3bdWV8gLcuQshm8jZ6vs0UABsLYHUwwh9p4fnppp3nLZRfo3i9CRPvQ5vRi5kID93CIKpZQ8TF2RLZWxfNmHub2TcPE0lMaCA7b8OEL2cbjlCKA2Tmi/+gnKKlCg3n15U7VQyvM7m74BQ42oueSYPISb/W43nP/V9OILBdIy9QrVJKhhdHTBhxnSk/Y5nsLqlTl7O4EBsYqIQPDW0F7gI5yfj8L21xRmblI/JUK9Oe2wGmHYNyx/+hD9NoTs9RBm+n2awFiPLOzbeUub8SKNFHtGaHAqw1bPI5j5oQz3XvXbQOJFEsFrLkwfor83GGocUY4CAP+zI7iD1EyfVmaOsdsCTzSLG6x3RQFnqt5bqyvlryz1+Yh6b4LqAnFGkU3ZBM+/NfLg5J6wvLkxnUwhFQ9j9owf7kH70sBpimP8gh3jBypS5yQROFlG4IhGo7xxsiqfhvyVkRtMeYsV9kp6FPTv0X/a+VrLRbmXa9oZRCozDSflP31qinKnhXpwrGHEXng6EIPvRw9M+Zz8/Nlur9PQWoUyZ+6ZyQ611i4QCN5k2g586PXCs6mM0NUJhH/qgWdfjSOgXqGPBaQ/ZjB8JgLnwaGmQ1qwjMI3yP9m/EG9RPrPdtKvvAV6c562NS8msJdcjgVhPetTekd1h7VqSSN0SQ4trakEiRhG9syQW2aY4Px2VnnZ5HFO3rMq3J+B95uk3HtZSp4CGf23Z0Du9egwDGNIfRaoRXbUFDSW9EqzmPlXAHG6k9y7ymdgOjwChyb4KL3sLCyecfTX7q/pBS8bujcrq3OX9uNvHswPuCpv/WZ/cMLPhn4ZW/0In6Mj5Zw8yw9DeQbHYC88DSH1VQgeFs+KJDO2W9eAWK0y03644GraiBMIBG8S7Qc+CkK+z+0o/zCOKbsHQ3WimusAm7sjg/QdF3wHm7eQa18Nj1MvskwOJnhCiXTyd1PkdFL3iuTD8oh9MYDgtmmMbulgSPNJAtF79cNLFeqNMAesCaQl7SXdZvmZm4OOdwJ7/b0RmStTyL9nk3sWsqu+nZZ7RDLP44hRr5oNHWvdOMPwKXuJaCnOPeyt0xjmaj85KSYRN/RhgOQov1xCvcIRbQ+ngqv+fk0vuG0eZuXe11Jq1l68k6CAbID/iOaNWT47iorpPQpBm+xwqILgx1NnnPBhWh7ilJE/Lif5VIIYY7XKbMPoxdE2GlkCgeCNQeqEPyclcv+S/dwjvqOGf25I1DuSsC8slfiupTySJnshOS5o0vg7LLkpXe2+3EWnxLKn/kx7ZulKxqIU3Er7DA6pf9AujcbUOynpkqOSRpO07+9FaXa/U5r8kx9uBN2bXK+EI/PKdnZScsAkeaIF2ihJj350SyaTX0r8oxxuRSHi4nk2Sc7/zEuLuUJVFn8XpMWYn9K383wtSmOblHPl+/1TkBIn7RK2T/KycrjcXZEGUv17XvKZKB2TW5rNKOeUMnOSb2u/NJlhW/MSNUnq6CUljVnq7efnW0al+duLUo7vbUbpXlDOY0X+Wm6PSRa4pPDffJu48ZlBMh2al5iUVeaP0PXbg9Iiu/xpQhrbDsl5sXr3R+dINuweJJ9FjT7U/fb9o5KH2cT/sr2rVGZWLotPmtfkXSAQvNl0Fvhkp2GQ/At8sw7MoTV00DKPpGkKSNNpvkmkvrYtdfYFckTMmXdbJPe5hFRQHd0/c5LH4pIm47kax1WSUhc9EvUOFOe40S1NJrVutQHklO0Wu+S7wl3dPzlp7lOHZOpW0jF8RI7wqXKoGY++d0m2TTbJstHS/MfyZxkjSXIys5J7i0HJc7dJcnw6Jz2qFZ8c+BzSZJZv1+MxBbrtJiUd+pm2+6S5P3lCPLjrGhsyirPXBhcZkrHPZJecB8ek6Sup5oGPB2X1vtqf51d+zq8eTZkfSeGD1GihcuZqGhOF5KRGFqT3bxd1OpYDo8kjzdeodf6kUxr9MSU9eqo5e5XKnPu2n/Jjk8Y09ioQCN5sutg/5GheHWyqssEUgpkwXLXvHwjeDn7zouvSEEq/epYM37723J9Azw6yz6dzcNe8TSsQCN5MXm3gk6ci8wE/JfQfZAveKrL/7UNPdgalb+s9oRQIBIKXSwcvt6wy5Qwm+p1InYqJoPe286IM+2p+CS8QCAQr4NUFvu4iLMfiCFemkBK8rbAPw+1L5r8UCASCV8MrDHz98H3a2ScCgjeUFxbYKstICAQCwavl1QU+wTqBfRhu1qx8IRAIBK8WEfgEa0wehfedsIs3IgUCwWvCq/+cQSAQCASCl4jo8QkEAoFgXSECn0AgEAjWFSLwCQQCgWBdIQKfQCAQCNYVIvAJBAKBYF0hAp9AIBAI1hUi8AkEAoFgXSECn0AgEAjWFSLwCQQCgWBdIQKfQCAQCNYVIvC9zjxJInonzzdWgyIy1+PIPOeba0IM3q4eTD3kmysii6ltXfD+xjcFq0r+shfWd7rQ1dUF6+k039uM1dTtClmNurHq9WutWYf1YY101Dzw/eaVK0XX4Rjf8eYRO6xU7DfRWLJX/Rg+NY/VU3sCU65hhO7zTcFLoXx5CD3ns3xr5axKei9iGPUk4UtKYNP15k47+IEq6VPW17bedFw3nkcwtG2KQkeV1a9fr5o0xq1eap68CdTL69J9a6Uj0eN7jbF9mYL0vz6s3trlLsxKBUzu5JuCl0I6Ged/rQ6rkt5fGXIz/RjYzre7+f8V8kj98fqGhI7rxt0EaqW2+vXrFZNPIfmmRPF6ea2zb810xFZnaMivHrZyg4RD83zHUnJRn+Qw0TnsvG6T5Ph0Tsr9ww9K85KH9huOJ6RCfFRyGOic3knpkXysJD26ornWYJPc5+g8+RjB7+2LJKTJ/ZZq+l/ekAqZWcm9xcCvc0ij8cpVS5g/pKTv+ZXv4Ok6v01I4UNquhbJfXGRn0A8npN8203KMfYz2SXn2QTlWJIenbMr+zQyWbpPKTeOhKXEObdk6VbSMW0flW48XZRm99skAzsOg1IeflUtcrpqmv8UpPkvHZKJp8Xk5fpek+cKJWnxW7dkY7Jm56kyk4+xfNmlyT/lDTl9+9kb0tynDn1+WPk/qi9f+RrS0w3Ki3qNbf+stKjTuXKP3Lf9EgZnpRw/IvN3WHJr8qCjtChN63Q9J03v0+iuJv8Kq1SmDq5pv1wFae4zu6J/g0WybKQfpSvzT05zP0iW/ZNSgmcpd9FJ9SRYlek/i1KwF5Lz4v+vcXq1FFi9Ue1Mn34h6pf6tyr2bWJp7J3mdVIlJU0O8mtNyn1c37MzFFkHr0xL7o1KukwuvqhOEopPUO1vo1uaTFZlreeRNNlLMkvekEYrciY/oK2LrL4empMKsVHJLtu+j3Kh6Exf3zzS3D3Kl8YvqPli5bVb2LUGRWYbqR7S/k7SkFF1ZjBJFpNBMlgU2dgOhPW2wHkU8UgOC09LtSl+TC2Xtq4aPvJJc4/5cUbL+qAhPSk5Nyn3knW60SVNR/yUV7+U4KcoLEpjm3gaah4u1vgorbqa2Gkrn1RITta3k3p5na+zL1urI8Veggvz0qjqn5nv1saNNnW0osBXiLiU40yp+1wVYzfR+UpGmDHRPlZ55PPot10JfHLllo/1S6PnSEBblOPOizx76r3Zb6NTcg1yA+A/y8ceybVV3fZI8xXHq6dR4JN/W12Sp5KuTRq7zU7ISbODynHbXp/k+9QjOUl5/d8q+ZIVwc7XyGTpPl5u9iPFOPc5K4Yl/yz9kmcfv4Z+dQ2Z0Cq9FHHrneHfOSn3lP+t5d4YVSSqwKollArSo5y6oTgubZAATJInyo8/nZVccv7o+hwL86TjKx5d5VGusUi+Kzm5IcAqZ3A76ZwaNwqae8jBoF+a1lTmErOZndN1HEWJdGUg2yEnJ5eRGkbfKjbSaeBbXpk6uKajclEOyQbt5/ShJXHcpCvr4hnKw/6wIlNug44LyjWPLjh0gbZeenr49V+TQ1DTP0tpaO3nz0nJzuoN31wKczK1tsntentQSv2t7CndC1I6binMt6UFv2Qykdy4bS45rkO5Byzk8Lmc2fkO0oV/Qd5U6usmm9S/Z1q5J8+/tm5U8rVTk6/kqGTT3pelU2l0K3SaxuJ/bBL2zXKZ0vZZrc6WUsqkpEX1/qWENKoGHAb3Q/1nU1KJ6yhxktKvpNdOfahhiU5ZkDNI/jjfZNwekyxkxzdYmrV5oEA2d4gCisbWmtlpU5/0eFZydjuk4D0unadzkocC49g9ZbOu/dXZp9fRUntR6mo13XZ1tILAxzNBQc/zK09Wdghsn+qIuDHRr1oJGeq1GiU+npb62bmqcar3VpVEWQ9Ta0fepxbkHzX9WmdYpWHgs4xRu1bhxmdKS4P1TLV50+dZQXGSdFwjk6X71HxVjU52jPK+akVS89bIiWmVLl/PjKxWg7XIhl11PHpYvmqCBG+IKCgytp/V9iTrXFPjQOR78pZ47fl6J604ZFekTiHIdlxL9JiQ/NSYqlZ0fdoKq1SmDq9pu1zEkkAl261LHwxy5Ci0+7jjmPx1UnJ0O6VZTZBdkl4tsj5qG4MpaYx6H5WAsoLAp99HDZ+t1XRZ3vRyaCYb5R61ZUl9TY3RIzxncn11SbNq242jrRvt5EtOp43A16psuryyNE2jNT2qxuiul8tVo6MMNRI0javW9aGGloGDBTLq9X7NPV+9PMj3Jbuj3lYrO23mk9h9K/fh6O69gsBXay9zB1HpMLWroxU848sgJb8kYUOfnTrCjA39GOhlf9CxjLyH48H4mX5Ql5ijXkv9wL+iiF6lX5I/dr6foqMa9jvhlK8zwGSS98De309bRLcdffL9lsGeAaiP8wd2OeX/y8UC/UttvGMUgon0NwMwG60YPp9E8YW8q0PccO5S/jJs4JnvHUA/X43cvs2u/NEGhgMhhB3T6HnXit0nQkjny/xIDdsDiJ7Mwms1ou/wFGIPGpynYrdTiVUUGds2VffUxaG9hvioD06Q3v7i2xpcR/zIfh9SdPpkDqGbbnj3cXvRks8hSxqxb+HbMhbYdNttspwydXhN2+Wqh/x8LQbvu8qLV/LPehRxkkBOfcax0YfZc0DgXwGYvw/Dt5Hvb4dcFvnePth1z+0cGNhTRlytZ8uG6pzObA0wdJdRYFWH8p9JAzGPsVquLiuO3qQjT3Ly2fVwbNXL2bGD6uO9TPVFlF7yAbz6NKZZvtqleRrMHjIL5AuUTWTuU2F31NQFDcVbM/DusML6gfLzXuYHVGp11E32Uy5Avt0q1QfbQT/6fwkhwt7kfhFH+JIVPo/mRabaPGwgO9maRoYZdgs7beaTMqS//Dd9GjvowsB3ZeSb2EG71NqLgfKfK5bkv9vV0Ut7uYVlbil5RL4YxvAn7DeFJN+rgxnDS8Z2PIFSZg6jgxSYX+QR/WoAtmMxtAghdalf7mXQTW34n3MoPY5RMyIEl5WM7ad6TsyE/jOU/0IKwW0pBLYZsflEsqO8mzZ0KPNymQzNDFO9ywb9GMUUZm6Rtq+FkTzkg4cH/pdJx2Uiml6z4nJ5QO1Y+Y3K6m8RoxrHVnxK1ZfsJ5tdubN4mVCPpKZcEhZPNm5E1FIuU7nfNcHIt18X7KfnMfnUKzeGrWYzBqIu3LjS4MWLWyOw7Qqhh+po7nFO/oUP8mMvE2pAjeyPInSZItUC/b/FD1/TzkIZpSIF/Hf5ZjM7beGTqOdVcx39fnbxo2tDuzpaQeBTe1sZxG/z+FpMIi735GpbTrWo19owdrtGMFIYaysazu9xJHkvLrGgvO9l2WiV/wftN2x1YzJOSl0YlYVWvBan1g+hBuJnOd6qKCJ+U9dHXVMMFgd8FxLIxb1IXIhWW8W1bLDDdTKMxew0LP+dXvJG24q4TS1C/qcMe2POYEdPXQ9gx8gJB0JXIpiLpOE/0kC7FitZQ5Z6BnxbpojCM/5nI54XK627l0ub5aoHldVOzbxEs89K7oxj+Id+zGfm0f/DMMbv8P3tYKdWPBs50Y1SpJH43QBnf/sBqHPI2XwIJG93Vh/S9/Xns7dWDb099QPKq+ROCMH8GFJ/UyCjbmDh9mTDnmiWylA8FMRYr9p4yiOns+0WLLc+LMEAz3E/EpfnELkaguOYV9/7ITtJa+1EfrNyAA4W2NqxU6KeT5J7XsnOGtyrQps6ai/wsQ9deXdd/rlmqHA2+M56qH/Bhjas6PvXEPrUbzD2jcPXtEuuXpvFRH8Pho4dxVH6De2gCL2K3zs1JT+Fgff70OcwYvcPTD2UJ3kIIIupfuolOb1ynnxfh5VvSHh32bbHpRjO9aOw7xrC7g+tOHqd7Vhbyg8o2BRVMyojcyuOsrVOq/hJBuknVXMrJhNIm6zUH1tFHkwieDWvGHU5g4kvZ2D90gdlgHgpliMjcF7yIfDXKHyDfGctG9zw7k9i/FSUDyuXkb0UxIzu9WYbVagMtV4zyr1fFBH9fLTmW6CXR1vlIszUFc6m09UAvcGDwPECJo6MI6k6MurlZO6q5Upj/MAU+n+cgWuLCzM/9mPqwHjFQS1Jr5YtXowORhA4pQ7Rk71848PEe+Pwt/0pixGm95cGpeaQkz3hR+F/vBi/peaujOJ9st0mkyZkzgUR5cNk5fsT8H9nxejhRta0TKj1b3hITn4lraQtTrieT6CPf/TPfkZHAPE6aVo3kpegBnVSqSTIXx3H+IJ8qD3aqg81bDBR0yON9AO+rTLow2gmAN9PTowcqW1ORBA8n0aZ3YPVp6+oPPt8GGantbDTZj7JfmwMzmt+eKkHWDnjCZ2vBvJ6eW2U/05oU0ftBT4SSP5Jvvp7rBTFtC+MTNQHh6mM9G8xqpgmOD6dQy6qBMRmKNeOwrkpi9ilEEL0iz+xUU/wJQ1wHAxiejCH9F0qi4FaLNEEgnIv1AjbNhsKCxE5TxGqwLb9k0io3eXeIOYvumHppth5K4bEBi/mktNQnhKuHcVsCF6b+uzEiIFfXZiP1BlmeRZHYNBcUbr1VBmTC8GGQWlZkOyGf3fBzO5h7MOcYw6JM0s/gK6wwQX3YBnWT72V56pLIaf5YwLjz/0wM6N9x4ZAMYCZI/ywjB3B67OwX+yBkd37XSdi+8OYVL9Fe9m0VS6g/6sQ3AvDiryOKX3v/gtZzO9Nwm1V9NRltsN7MSsHs/TpYWp8hTGzX6lFpv0zCG2bwDCfXaVeenos8MUWMZr385lZjHDeptb4wljNc79mWOClgGQ60yPnb+C7NhukH08jG3MheVC1QTPsR0LINgl8njPDiO1VzjfumEMfq4urrdOPxxE6EMewmfL0DntO1SEvkghs8wHf51BSR6eoVxGyz2Do9NKHNIYDk5h1hDFgVGTgSnoQ/74TL9FOfajB4sXkWROCdnbPAcxUnrk7MHTIgPJeL9y1w/G9o/B3B2Fj+XzHDP/zcSR+rvrvZnba1Cdt9GH+3iQM3/K6Sj/rHgpAagCtl9eG+W+TTnREB9cX8ptM+rcyBe1T+5ZYW8hvh9W+ofYW8LaW66VR783R15SYb+nbzMSy6sNLp4GcmS+sU6Y3lg509NJebhGsV9gwWwCRlsPfbxpva7kEddnmQP/9MCL31YE7soB8FONnM3DvXevxnpVRZMOsz8cQ2Mt3vK10oCMR+ARrRvY8GyYzoo+9WaUZPnnTeVvLJWjCRj+i0T7M7TKiy2iWh++sgzOwXnyE8MHO3xh+KfC5ls0nypi+HoRjtd4wf13pQEddrNvH/xYIBAKB4K1H9PgEAoFAsK4QgU8gEAgE6woR+AQCgUCwrhCBTyAQCATrChH4BAKBQLCuaB74niQRvdNsjpw2YK/U1iz5LxA0Q/5c4PDLnYjsVdxz+cTg7erB1EO+uZqsQp1/s2T5hrBWfnTZ6WYxta0L3t/45htG08CXverH8Kl5Za7K14HnEQy9rCD6cAo9XXzu0TeSN9swBVXKl4fQ85LmsH0r6/xa1uWX6ZMEq0bTwGf7MgXpfxssu/EqYKsA8D8FgvUCW63gZfHW1nm27hz/c1URPumNpHmPTzdkwYZXvIjen8Hwh3xiUmMfjl7Ttw2L1wPokydm7YLxw2GEnlk1laheL6Rm37MYAjuqkywbPxzCzH1K99oIeg7MoHx/HAPyKhEB2eBYHnvOZ5D5bghWds2O/yfO9Hdh9yV9vsqXh1d3qKCYxJR7c3UCVvcUkpoZwJfmi9+bre93rK/BdYqMQ39MYfgD5XjXByTDB0Ukzw/zCYfZNaGaJWfagA1pHI4ic6majnmHftbysla3uuP1htZq9snph5bm8xmTk1VJ8x0rhi+1Odv/ixxiJxrJieR72Ys+a3WC3L4T8epqBQ1sqCUvshrdUJrHoshr5SzrnJelzvGiVm+1dUOV/3fD2KzWD8dRRJsuVcNWn+iB+4cyMqcHlJVRqJwq5TTpq9H9iKb5aUDndZ7yRmXS2lTaoF34pg3b6ajOM39B197PYMal6KJvKoIRoxEjt3h6nMzpzUpZ5Fn/VZT8qjpgEzPrbKceHfokPE9iwtmjTC7NrpHrsJwSoeR/4pYmTVYv2GLX/AxGcz9Kpbg1gd32ap70PoHrjeVbnvC5q7KCTKt0G1ImeVfqMZNZGjo11xsyrdkn+8Rv4vo6xmT/JIqjjqp9BW6qkuCy+n3p8fy1o9VyVFZfyGOmXd8vz9jZAP3knsrS/NgZlFJ8KfpSclSywV1dml5eOt4hBe/xteif3pD8W+maysSh9SZL1e4rSeH9kOxnF+UjjNLjnFRQl8avM6kqy6Nhk03qPz4v5dht6dxSxE35nJaUxegZlO4+SP3fVve0pN7S+BVy0uwgJMfXCZ63krR41kF5C0qLPK/18sVIHDdJpkNz1evOkIz3h+kvBpfxdnU5/5KUOGmTJ9XuP5uSSuya0qIUJHmpS+03pkbWfHLuSjr/FKS5QyYJg7NcTovS2CaD5IkW5C1270KWZC//XW8y5pp9PH0H6U7JekIa3URl6e6XgmmldKV7QZKpU5ptkXXZ7mCSPFdySlosrwcNku0/GrvIpKRF1e74vdqyoQZU7qmWv/RImt1nkEzHE8q2qnO1fLV5ejwrObu1tj8neQw2aeyesrlE/pSKrNuK7hszf4jKc05r9VU7qdRFWbaautgqPw3otM6XqFwGk0eae8q3/5ym+9I1ujSa2U6ndZ7ZNcl9S7/k/1W1D7Le/9gkw2c35DMUUtKYxSD54+xvup9q5/fGJJuB8lsx84L0KKdu1KNzn8RsZfE2zxtR+NG1xAfC4pPmZMdAPJ2VXNDopqUfJR4vSin1erLFWfJvVRth8rVJtp1OaZrXPdn/tJNuXUpkg1QXNH7r0bdO2Z51/qU2nZp9S+qYXG4mC9IHL0vhCtmTwS8ptY7LSmNfsizpGgvlRfGrSj008Hraru/vOPDpgxY54a1kXAvKVupry5JZsHMXSUA1Stenod2nZNJ+hjuXWuoIV86jZVRKqIbIqJ01P0dOAK6qU2iHZoHv9phkYce091QrGpdF43zV5EOXN0XGvph8RIHfa06Tjl4vjaiRNZNdbZ7/DpPhOaTJLNtQ8u+5Us8J1MhTpmafnL5PJy/ZHg7O8S1GPf0vRS5fbSWKUvqVIL2UanBoYUMNqHtPWfa8TMweLGMkJQ0LfsnA97HrLV/rjlIjx1DdV0/+GQpWlUremEaBr1ldbJmfBuhtq9V9uKx1eVPu01Hg66jOKzZkOVkjNbW+qvLV6EYH0ykLfNyRtqZzn7QEnS9R8l8rs7mDqDRmW/vRpdTTm+tHfV1eTroysp+o1WFC8htq/EttOjX75Dxu157DZatpVOhtQ5GV44ImVZ6XYIZvM7T3adP3d/g5Q+3K6gYYussoFJSt3JM87Nv0I+kWSydPCwzwfB+Gg6239sFuBH5Kg69P2Zw9TvRrJ2DtdsH3WRYzPyvDavmrIcT311mLarnkssizZwa6SV8dGNhTRjyp6VDX5uuvDNJsGOJdpYsu/6xsbbAscpXeuR32D/mfDJMZZosNttWYYLY2zxsoz1vTyMhiciBwbRTZw2YYHV5MXc8oi1N2Qi/lnf/JMJnNsGzSjod0gENZ+LcCy/fTIkrKFoq3ZuDdwYaXlJ/3Mj+wXBti1N5zaw/6kEKGrQuWof/zE+hT9cZ+u2ZQzpPu2OF7GeS/6aseo9/Ad2Xkn7CjnFr5s9X8ywXw6tMhzetiW/lpi2b3ybGqAMdWvY4tH3Si8+Xpy7mrZoXJLV74d0YQuqpcHI+E6q+TuD2A6MksvFYj+g5PIfag1c2Wkb9yFtETu9HDbdO6axy1A/y1MjOQXeSKinW340fLD6MIOHsq9j9wuvYOdpKRfvr0ZfvnfI48lAN23SokFtiWsyqJXVvHDDBRFtlq7c2wb9Ec32CCiS1IvZFv19Km7+8w8L0ENnoQflxC7hq1WX50wWrdjdAyXtt2fj4KnJ9BEnnMRZLwHPGQmF8HPKA2l7JIYuW3iNFmRvSeeY1WACijVCRH9q6yZdoZROLvElJnyd2foIpuDyDZZAHRdjCb1yDnt0Zg2xVCz08UdB6T86Vf+CA/xlglG1Ig2auG0zsJalXW6C4MFz9MrfiaY/T7WT368nnd8tOQVdEX9c2/cCN6KYz8iziiP9ngP6x38gom9J9JoFRIIbgthcA2IzafSFJNaEJH+csj5NoM3zM/ElnFNnMLQV2DcMU8CWHoQx9yxxMV+0+cWdU7vFRMGzr1zBT8mnRi2vH9qxr4rBstyGZ1jxBRft70sTFRREFdlbeCAZbtPkwu5HDjYAJT1/RptkXvCEY/CiH8yxzCd/3wreZaVHZqud+nHoCuR5RG4ncDnP1NWi8WK1WAJBLtvGixFlCe09o851NI5gfg0AZd6oXY944inMlh+r0pTN/k+2shvbbS7FqRTcZRPBTEWK9qznlqzfI/KyzDhtIZ/QPwB4tIGezoYY1iG7Uy7ycaNgRYqzWTbOFAXyIvJz/U2yBzz/5V81KN2u1sRF3bWXmdNxzww5+MYO5yFKGP/PA2a0xusMN1MozF7DQs/51u483MdvOXQvymHeOn3TCpvft8Vm9XLWjpR9NxxHvHEeQr9DPyj1vfYXn+mSC/ZaMSZHV1rJ7f1tNW2mtBG75/VQOfw+OD9YcAJtSFAJ8lMX5B+/UMVZQPgSgZZlF2wGwxTz8mKvWGtu9mUFRrazmD5EIZ1veMyrbZDMNDct5tyZO1AJ0IHQsg+6UPzsoQUx6Rw30Ypt7CstnixehgBIFTSU05fJh4bxz+nfIZ9dngQeB4ARNHxpFUjaZclMv8chxmBMHzaWUI80UR0a8CiO/zYVge7cgjcydfHd58lkDirgnW99kGOf1NGYQu83yya6lVtSbfRbWBdSN524U4knJmysizhTYX5ENECxtqxv1JjF8lGbC/6bqJzyZgJNuRB9WoMo0NRqkXEUJWTft5Hun7ivHaj43BeY2cLdlV5dZP0sg0fWuzPczU5cym0x01NNYyP1UMcB90I3l6FFFuz+WHIQR/0AbCVrazinW+2wnfl4sIHAvB+UWDTzKeZJB+ot6M3HcygbTJSv36RnSaPwoSlgziC3zH8zQmvg5VdNAOLf0otTYs9yn4qTK/O4HRS63v0No/N2CDG979dO6pqt/OXgpiRqdm1jAMVReBfRaF78Sr8hCNfH+V1R3q7A0iwRYC3KG8emrcE8LAuUnNOLsBnh9vwJ/xKq/6vmPDePcUwkf4Yara2Yte2NRnYO8OYG7PPOYOcRP+eByhA3EMm9m17NlYcwx73XCWrfB5tCP9BWRvU+8so2+l1ieCIc0zEvZTPiQmwcYWMZr389e4jXDe9iKxMFbz3G8p/ReymN+bhNvK0zTb4b2YfTm9p95R+LuDsLHXgN8xw/98HInKQqo5xL8a0LyCHUD5XAJBOZDbEbw+Czt7zsGOvetEbH8Yk9vlC186hgOTmHWEMSC/zmyGK+lB/Ht1heUWNtQE57dRDP/ugpldZyQ7dswhcUa1HUXnkxtm0MNfo+76wInATf7MbKMP8/cmYfiWy4h+1j3UsGjRKm6H/q9CcC8MK/k61rpvIrOG+dFiOBhC4lQZfm7Ptq+KCHzv40cZrWxndeu8419eGMouePc1GD57FkdgUPMZAOV9ciGoNG7q0mn+HAhERpH7nN/DHoTl0jz8nYzmtfKj2wMIf5nDyPtKnmxnLAjF/ORdW9DSPzeC+e0Exp/7K347UAxgpuK3CUp7/qId0/yzA+OeGIYj7aS9NtT3/VW6JDbw/7bCviM51YdH90Y1D1TXKUIWgnUA+1ZsMwX81/JZpuDl0cLfvX4vt6wWbKjqVASuUz7h6AWC9cCzKMZPlzH2hQh665o2fP9bGPiUmWDkoao9NxA+uDbvQwoEgtcFNlMJ1XmrH+Vv5xF8RUPwgldN+77/7R7qFAgEAoGghrd3qFMgEAgEgjqIwCcQCASCdYUIfAKBQCBYV4jAJxAIBIJ1hQh8AoFAIFhXiMC3HJ4kEb3TzswvL4t6i30K2kW/+Kqg7qKi64ViBrHfX9YUgq8K5bV//YLgrxdLF0ReXf/WPPA9j2BoVStAGuNW7yub43G1yF71Y/jUPF5V6CtfHuJTp70citdHsLmrTkV5OIUe9v2U9ldjL2zF92Yrjrc6LhC8VJJTGPokRJ6qXdbWp73sur5eaB747ibamLW8A+TVAPjfbzC2L1OQ/rfBJLgvgXRyVbXShCKSpwdgPZ2DvV5h2azztUv1aKcIujWCga8MmMyW6FgJ2VMl+LaNIKlOhN3quEDwstk7C6kw2WTuzhrW2Ke9vLq+vmgY+IrXRtBzYAbl++MYkBc7DFSCYP7aUfRVJuodxtQffIrlF0mMmI3wXqtOuVy85oXRTM7s/zuF3f0jlEYEXjm9IcywBT4b0Ogechf4XxH9UATrmXYNYIb3FhrmT+7iU5f5fgYzLqt8vO+/DVpTL4qIneirTtps3IyhH5TFDZd2w72I3p/B8IfKBK1s5oCj1/S1ofjHDLx8Alc2qXXP/1TblI3zWwub2b4H7h/KyLCAxOR4oloxymnKwwc8nbp5mGp6fAl/hTF5x4dUchLO9/g+LYUCyrWLt2qIXZyB/cwU3BY2fa4BlgNBjG+cwfT19o6XtTKln3kH2WAj0WhgreSuHZqe54s4Rki+1lOadjwFXaN1vNqyf5GT9V2Z0Nk9haT2XsUkptyKzTD99R2LIl8J0O3ZQC3lWxPYbddMmOwOaZa6Umx14lYMgR38nHesGD6fJCtoTL1hW/2+ztMt3qQeP1uD7gHbau962dZUWeiOlxH5V029o/SNXVaM3+HbRPILI9fX8mTLytxD94xXdGrEZp18ebrPqBx2drwLR5nd6YZ5W5T1bmOf1rSusXscjqJ4PYAe2b8crdNjbFLXX+QRPVb1TfVGShrLvw4vMgj9Hys2fxFveE5zW62P4teMMH9ghtHI5EM/2zAiLK/Pk5hw9mgmxR/m9tUe9X1mHjP9Xdh9SW8b5cvDS4fu2cwtDam3nPyCXzKZqkv3l+4FJTvc1aXd5eM+aZ5t/z0v+Uwmyb+gHNIvwd+EZvd4PC311ywlX4q4JOycluSF+5vmjy1lb5BsW/ol/685qcR2/cP+WUop4qayB6VF9fjfOSnH06y3zD92BqUUz1MpOSrZtDJ5zJa/N0meK/yepQKlJf/VWp51mD8EyX5OqxWeh+2aPNSmw/LQ7ZCC9/h9n85JHoNNGrunbDaHyQ2S51e+yZHlXpFDLYtScKuhqnvO/BE1762Pj20ySJ5oQTlAkitkc5K61ZQck7fGRkjGBotFsmhsmenQcDxR+Rta/fxTkOYOkp38Z1E+TglKs4OQHGcXGxxvwwbq8XhRSuW4PijN2X1avSoyh8UnzannPJ2VXGiuM71tKuj3tZGutt5nJiUH2c1kRj5CtHE9t7WxBa6tEul6O5WN5MfIXXRK2BdWZEkkjhskC+lHX3bVNpYnW0WnFslXqXNKHkxc50q6Nsm20ylNp3lOWF3X+bw2ylrPp7Wqa+wem2xS/55ppUwNfBBjaV1n8jJJpv2z0iOefCHqkUwG8iFq5Wghf7VcSn0u0D0oPbKPpnWrqa3W4d4Y6cglzXK/JmVq/VpOWrzNdUMUfiRfUlM/9T7WLk3+yTeb+EzZb6uxQKYkhSmv/d9W9zA6DnxMEa6Iml2G4hS0+2TFHAlL4SP0f8XQiDYDX/N75KTpndrjSsGcF5WCNb9WUbjlpCZPDZCdOgt82qQ4S5VSGxT0Tj31taVhgGhHnrUsrQyt88DybPk6pWxwZIdTs68+2opS5dEFh4RucgzMMdHPsMUpjUZVA6sxVk5Vdq2Op6QxCwW+K22Fuhq0jlORv+PCrOQ3OKVZOXt6Gcv3rLFziZwJBmfpTILZrWWMcqRBDqbqvtbybwe9XSkyr3Uucwertl4PfRoKHaer1vsClYsarp5ftTpofX1de789JlkMfkmueUye6t+ynimw/kjyVOWta7gsT7Z1dcryAGqUyxtKuq4fa+yrTuBrKqs6Po3du2ldY/dgQaEN015S1/8OU+CtrTd6H9hS/rxcTKaL56gOb5+sNvDbpJ6d6VgSO5i8TdJokm/WUiNHffrs2mqZm/rMf/TnLmkEczp8qzOLTBqIearDT11dVhy9SUee8HXJiP6zYQxf88JLv9iFtkfLOa3uYcHwv52IXY4qw535MEK/ueA7yB5CtZc/567WeTIcCCHsmEbPu1bsPhFCOt/sPS87+nQr/xtg6C6zkUCZ3JM87Nt0J3Day297NM9D5l4G+W/6NPfpwsB3ZeQ7vk8V25cJUOdVebbHntFd7EfcPYDxVVlh3oHAtVFkD5thdHgxdT1TXSS3JTYMDALxBTY0ncbcT0a49vjgOhBH9Cbp8QVbJdsJ96BmBTNHzZAtW1fxaREl9ncmhUx+An0a2XXtmkE5n0VVes3lX4/ywygCzh5lCIh+A6eVoXQtjq36gWQD5StXlHO1IlqmSzIa3zOEyH6qX/uWTvbb7Pq69r59AM5yHAn2Zt4W+htxxNnQ1p05hAwuuA654L4ZRZytcH+bjg264dzALmR0LluZWp1+1Ef3JV1WHrHYyRe0nsS+Ux20Vdd6nXAuZ/78fI68hgN23eryBvTvspO9p+StlvLnFK96MfAVMHl5tOU6ou3Yqg55Ydp49XHBgzTVxD7YN/HtchbRE7vRw9Oz7hpHixQ5LXxmN8WCz7KY+VlJLX81hPh+L9wVW1JY1ucM1FLgzq76WzypMY4XReSYAT/PIsv+XwbN7mE5SE7stzCilHb+t8iSgrXMXzt0W+D5OYfS4xg8CMFlpQC4klXbm7Aq+W0Dajkuuc/K1i0jB1SRuwGWwSDGD5JBX2dyImfVS/qveRSTyWRgt7OytToOmHYGkfi7hNTZPqRO9MBoDyDZpj3173Ej83sC+YcU7EiDw73U4NnrQux6HPgjhmivC85O3k6qfYlH/oWxbOk9CWHoQx9yxxPIPc7Jv8SZGmf1KnkQQ/6TMbh+8mLk+mq/3N9PjRC2SnkeWQp2ODhMjteJoX0xzJMDS/4ehX2vc/VfHiuXUYQZpk4WhV0mq1/XVp9Y0ozxz4oIHGzx5v5ybJUtTHuhAK/ZSIHNDHP/HFzxOfhkpeYRcm2G75kfiaySXm4hSB6hfZr5TOfno8D5GSTpPnORJDxHPOSd9HQY+Cgyf0iGebtZbC4ictiL3NlFLJ7NwXs40vihal3auIe8FH4M4d+ymL8ch/uAmxesnfx1hsHigO8CKTzuReJCtLmBNMC60SK3Apey+vlthG2TDZlkco2/TyqjTIGJtYhZr8vuKCOV1kY2cnRUVEcvM/FWxzndBnKCowhncph+bwrT5BjbYnAIrptxzF2PIXtgSF4J2rDPC9cvUczcTtDxAX1voBly6zXRdtBtizT1anrHEdxfbfbnH69Nw6rYsmtUB8rb7MkgwlEXwh4fYh1UYtbbWGLvdxKIG5wY4D0V1giJ35yjhkgWwy5ZO3AfdCFybQaJJB3vX4WG3+20vhfB3lI32NGz6hFVz5rWtU12smUql+6btjKSCxnqvfbJW+3In+G5MI1RtoxTOYDh8zXna1mWrSYROpPHWLpEga1AvfMUJgfV69mIix3jp90wqT1N9oY4/7M5bfjM3hGMfhRC+Jc5hO/64dvL92toHvjMZhgeppCuGL0BnhN+FP7Hi/Fb6k5qRd0nRXCnULzshTdLFeZLO+xfhhHM0vZlfu4GE2WburxN395pfQ+5klCwi/0yguhND3wH1HjezrXtUaaueaaomm4ZmVtxlK0mGPmeTnD8OwAH5XXktzylRJSLZLjM4S8vv2ZqsmbT6Y4aFPZjY3Be88NLvdZKqZ7QfZb93VweycuxqoxekIyod+D/zQn/AcVpuY75kTk9iugztlVG/uooxh/4McINsfnxPDJ3SF7q8OazBBJ3yX7eZxtZTO1Y+vaWjg39cPamMXMxBd8nfGh7AxveTNC+NNx7OhiCp4o0NhiF/3AIWVV4z/NI329y/1ZYbbDcJ4cil51Kf3cCo5fUxJePdSM1Gq6GuUwp3fsT8J9ffj5N+2cwRz0x7xextu3NdnAUzl8CCKg2zRYG/WwC5tP+ymcChh1O2NMzmEn74P2Y72PDm8kZhO644dqp7FsRDyYRvKrWOcrDlzOwfulr/1OFdqjj01azri2p690ujBzPYfxE1RaL13zw/+6heqdE9HbkX6HbjrGrk8ApL6Ya+eVl2aodzn0FTDiqw73s7dbATZYnK2wW1uPn+XuexsTXoYqsmtOOz7TA94UToWMBZEnfzjrDuM0D38fjCB2IY9hMmX7nqPI5w8fTyMZcSB5UX201w36ElMBuWozA68mSsY0pY8ZMqD+NIePxIsLyaPFi8qwJQfn14YHKq79LaHYPjuGADx5qzcc/88GlLVgb17ZDMRuC16aOIxsx8KsL85Flfru3ZRTxpB+5Ezbl1WqjFUM/8/bNMvLb/1UI7oVhmNn5x6qfMzRlow/z9yZh+Lan+sr+nkDFmDuHWm8PpzBk5TJ6xwzn92aE/pyHbyM/hcqW+dGIoPxatxG2U2VMJqfRr+qr6fEc4l8NaF53DqB8LoEgc4gv0kjd6Yd7bzNt2OSKl7nv0jhRC/U0gMwDF4YG+a62oIoUW8Tkhhn0VF6hdlIlXv7zUWwPUOMwh5H3lfRsZywIxfxUrVeG4WAINz7LwKume9qAqZ99/OhyMMH1bRiu34aqDdhWyLY2itxx/vnHu06kPqGGy9eanvwWaoQUM8jsc1WdscVJdZntG6rrrDrmYBDDv7uUekJOd84xh8QZ1rtcRer5tFWsa/Xqev+FLOY+imDgXZ72GSPVuzDcaoeqHflr2TqK8FkgsHcc6XrP0Zdhq8kTdvgQQq7EhyL/oZ7fj3bMuMapL+hAIEL5+5z7PHsQlkvz8Ldr/O3Eh73UiCpb4fPU13cXZYq9kScQvDncGsHmiy4s/uxacaAQvJ2w7/g2U/B53Z6rrQ9iONoVgP3PRYxqX8JhMz19mMLkSp6Ntwv7VvJUHx5pJ9TQsKyXWwSCVwq1+B6JoCcQvKb0wbEzg/BVzZyn5TyiZ4LI7KfePN+1ZrCh3VMRuE75Gj7HF4FPIBAIBKuIBf6rc+iLDsDYZYSZPR6wOjHzXgiPIkvfsFw92Ew7dC82rL3nBsIHqy/j1CKGOgUCgUCwrhA9PoFAIBCsK0TgEwgEAsG6QgQ+gUAgEKwrROATCAQCwbpCBD6BQCAQrCtWHvjYdDO71Nk7hpUZWtYlyqu03t/45hsLW6CzB1O6uQD11FvstDNa30OhiMz1eMfTzb0prFyOglWlmEHsd823Z68VL8e/vHqbfDnlXHHgy/7gxbg5hAKblqY0B0/jTyeQPmV9CwKD4OWRwJRrGCF1mSO20n7tSspNEPbWGWzl+p7z7Ur3LSQ5haFPQkjzTcFyWRq8Xre6uOLAx2YBt+/qZzM3Ql7DrCF5pP5YwaS+gnWIC7NSAZPqXJtsdn3+Z2uEvXVKOtm+dN9K9s5CKkyu7iTWAuL1q4stA1/+2lH0sUmq2VCmsQ9Hr6kFSFNrvA++yxT8Tg/IiwkGfueHlkDnOgcwchOIHLbK5w7NRDBiNGLkFj+Fkzm9mXe12XCYF9EHIQzLkxjTz6zO7l2l+MdU9bguf83JXvaiT51gucuIvhPx6gzobJ63w1FkvhvGZj4psdFxFFHt7OrlDGbcfBLYd8x0fRqGtlZSKevSVa7V3LuYxMzhvsrktkb7hNwCZUMQPeczdO0QrOzYDqXnU741gd12dbLWLljdIWQqE80qMgxpZfQB9aAeFJE8PwwrnwBaf41CbkF/zdQfTcawX+QRPVbNs9U9VV2AkvEshoCDy9q4GcOXcrC2Ndt3dUi0eG0EPQdmUL4/jgF58cpAkyBYx95+4D0Zku+Ue3PjvDZCtonQUrk9Y+mpdmClsmmXS8nS/ftgVXVdmZ2+PplLu2H9cARxfsqa2HZdioh+3gP3D2SbvC5bT/xfmOlfugJG+fIwuuReN2vVk27+iNfoVr9czLLK8KKI2Im+6gTllO7QDzxdtW5equrBvINsQVvAVvbIjp8gWavpm/kk+ixtzYiCXOe+iWvS4rJ8EsXRSplrdNr03orMJm5RfdjB6yyzmfPJFvrR8Jf+3rXylOX9IT9eL22eP1W2S/xaDbU22TlN6mIz8hqfUaccTW2c+RtVvqyMHw5hpnZxbDZzS0MW/JLJ5JZm/+TLvD+dkzwmg+SJVtfMX7I0fkOqy92rLP7HJhk+u8G3GClpzGKQ/HH2N1tCHhJ2BqUUXza+EPVIJjil2cfKtvR4VnJ2O6TgPU3+DDZp7J6y2YxSJiUtqsvRlxLS6CZN3tiy+XTv/rMpqSQvyV+SEidtEvaH6S9le/6QQTIdmpMK/Pijb53yNdry1eXemGQzeKQ5VYSlgvQop24oS+izdHPyjUpS4XFBvidbit+wySb1H59Xjsn3JR4vSinlZNpXkGb3afXBZbg9KC3y9ORyaMtWWpSCpBfnxRw7gai9huS+MCrZNXJnecGheWWDSBw36WSxeIaOV2Sl6N1xdlHZpjze+IyOwy5N/imf0ASWF815TC+9k5RiOyy1N1W+jq8T1byedVCaVFZVno3gNlEpB7cZdPdLwbRS0tK9oCInVZQs/TSdz9MuJUclGzzSPN/WyrFA6ZtMdEw1hbWy7SbU1uVSxE31b5qkplKSwmRf/d+yPYp8YfFJc9z+WPkdMEn+BXlz2WWQ76vVyd85KfeU/11bN8me5g6ZJAzOVvLZ3B6V48y+Vb9SepyTZLHX2JesHypPxd89nZVcrG5YqP7yMheueCSDwS8l5K326oJWZkqa7eiVX0s2MsdlUfqTrjUslffYAs8vq9vbSadksypy/vbPSo/47WWfqvFHTW2ybWrrXr262AhNOSsyWmo3jW2cbHS/vsyyflVb4jQJfIqR1wa1UsSlM7KVBD7pz0lyFFVHwAKtwTJG4Y+hOGC9sJQ8OS4o92NKsnytnK2SOG5Ysq8ddOWQK5cmX4wMOTXVwP8Ok7HWOu6E5De0odzbY5KFGZpakbWwY7X35cgGaRmVEnWOadEaripDX4xvMvg95jTp1Lumldwr5//DzndJYdUIGTmqgOq+emWSj7+CwFdXvryxpTqPRsg24aMcVUl9bZFwcI5vMVpVcH15KnLMTEoOcliTGWU/gx1bE9tuwpLzZN1q5K/VKy9rbbqyTI4oUlpuGWQfwwIf93s66tVNuT6S/LL0dyt7rFt3OTX2Jetnu9beuE/UOFWdTlvdu4HM5g5C0/BsRGt5y39X6jFH9jfN/JZSJvX+zWyyfWrrQat6oWV5MqraLtfRGd5AbUCToc4cctQjdWzVj9/JC0jejCPFt1fEFi/8OyMIXVXeo4pHQrB+6pVXy1awo0+3hJQBjn470nx1YfZ8Mf9NX6VLy34D35WRf9J6nbTirRl4dyhdb/bzXuYHVHr7lDUFVboNQLkAeS3rfA5ZyqVdu+QGLLDpthuwPYDoySy81E3vOzyF2APNO2Qk8HztfbXscVbXsuOUH0YRcPZUyjFwunZlYjvsH/I/GSYzzBYbbE2fxy6Vu73XUpG7jr8ySLMhSb42mPyzsrUbs8ixUZh6ZbJYl7eu4UqpK18HBvaUEU+2MfzSS7LkfzJMZjMsm5qMb78oIvmdF31cN9YPvIjwQxWeheHtDwBn5zC6le8j1tS226XbBd9nWcz8rOg9fzWE+H4v3BvkTZla/+Ag/wDKO5PmcstgOBBC2DGNnnet2H0ihHS+5j3LWh1uIB1uTSPDstnKHuvW3SbY7ZoZ/g0wmZQV1uvS6t6cJT6VypIrlvhWc2qvtW/rq8g79yQvr76uY/sAnOU4EuwN6rplN6B/lx3xBY1Hb2CTL5NWMmps4wZ4vg/DcbEHxg92I/BTGrXmw1j55wwrgq2U60b0Uhj5F3FEf7LBf7jBYomc8t8FGDaY+RYp/twjZaFD7a/VGly3RmDbFULPT2SQjynA0y98kB9bc0zoP5NAqZBCcFsKgW1GbD6RXN4r1E9CGPrQh9zxRKUciTPN5Sfznll5GalDtHLX4wG1EWv0ULMW11uK2dxYkskTNgz83IPwn4puco/DJKkaridhPuVH8avhJZ93vA627fx8FDg/gyTymIsk4TnSfHb9crkIvGuCkW8vqwzd1C//OYfS4xjJKwSXlQIglacxZZSKBhje5ZtrbI+mDc0k8Arqgkbeq0ITm3wtaGXjGz0IPy4hd41q248uWK27EaopR5PAZ4Odul7pB3qDK9+OIzPoBLUzVgXDAT/8yQjmLkcR+sgPr85AMkjd43/KKG8HDWxTWgOs5ZVJdh40ssk4ioeCGOtVDThPrSX+ZztQj8VGbaes7poiCp2ssLzBDtfJMBaz07D8d1p5UUNe4j+15EWThqTjiPeOI7i/6nzzj9voubSE5K7r3JWRuV+Vuw6ShZ3cYqL24bEKK9NDkpW2TM+L7T/MX03s1FNYIt80Er8b4OyvU7YVkUXiZhGe02OwV8wsR5ZWw6FpTJ+cxvzZMgIHpyp5e2W2XUvvCEY/oh7YL3MI3/XDt5fv56Tv60cB2Juhht4euUe/3DKoGCwO+C5Qoy7uReJCVO7VyJAOdSuF51NI5gfgYL6jlT3KdZd6h2vh0FvdexWo9ceZe6mKvFlvj/WyddxJIG5wYoDJZpOd+nu1ZS8juZCBc5fGozewydeF9mzcAMt2HyYXcrhxMIGpa3q5Ne3xuY75kTs9QtGSm+6zKHyfx+E5PryMoSojTO8vrSjodsL35SICx0JwfuFbkm7k7ATS/APm4rVRBG664DugnGU/NgbnNQqWFPnVylV+QoptUdGtG8nJLcSRlC8qI391HOML8qH22OCGd38S46eiKMpGUUb2UhAzS7xaHZ5kkH5SdQXFZAJpkxVyX4oUFdgewcgXMd49L6N4P7vUWarIgZKCHw+45bsTGL1UTXsl6OXug/+3qtx1bPAgcLyAiSPjSKqBn1r9mbv8Q+DtXvgsMwic59ts+O/MJJb1iazZDMNDcnptRc069rbFi9HBCAKnkhW9Zb7xYeK9cfjVTyZWDStTDzkV7vjZQpynxhu+iWo/OYdJBOD9r5LfV2HbZpMB2XS6plHCRmWcCB0LIPulD07dMDE53nNBRPlYUvn+BPzfWTF6WPkgYLllKD+gc4qVK5C5FUfZqu3VRBA8n0aZ6ZDsKfpVAPF9Pgwz82xlj1R3/UdyGD82VbHvMtXJ/GpMktDq3qtA5sK4Tt6+b4wVedsOjsL5SwCBW1yDbEHWzyZgPu1XPtHodmHkOJX9RAhZniG5bv/ugb9O3a61SbxIY2JHH6XfaWka+P5l0tzGyV5I3lXzyVAdLMP6nr5P3Hyo8+NpZKMORAb5a6MfBGH8MYuwpofRPhZ4qZKYzvTIaQ18V43Ajn95YSi74N1XO4Rgx+jnBgTtyni5+YsyxpPh6kfyG32YvzcJw7c91deH91AlaNHzMhyYxKwjjAH5NXMzXEkP4t93si6wAZ4fExh/7ldeC37HhkAxgJkj/HAznsURGNR8fnCqTK2SIP92yIbR3xPw56krL+fNCOt+MlL5WB22BxD+MoeR95W0bGcsCMX8TYei2sLgx9x/m8i9hv4LWczvTcJtVc7vMtvhvZjlDtSO4MIc+q7wV7zfJSfaP4nJ7fLBzvh4HKEDcQyzz2veYc9OmlHP3siJxxYxmvfzV9mNcN6m3sQC9cpqHPrKIRs5NwvHZbYYJ5OJC4lDccwO8sO1dJOt/zIJfDWE8Tu0/Qpsu/+rENwLwzCz+x2rStew1w1n2Qqfp/r0XcVzZhixvYo9G3ewxUcTCKq6XWYZitkQvLbqq+oDv7owH9E0intH4e8OKnXkHTP8z8eR+NlTGb5vbo8GuC5mEN4ShpN/pmXcRg2SVZodqPm9V4oT09dayXsUueP88xqqa6lPEkh8XX38wfI391EEA/w5pPWMEaE/w3DXq9u1NlnOInWXGiXZTkvT2Pcvh+Y2XkT2ohc29TnruwOY2zOPuUP6wN4lsUHoVwz7XmYzVRD92D/7hiuAvj/Xx7MigeC1hX3fdqoPj8ipVgeE2Tdpm5E6KyG8j+96GdTNi0DQGa/45RbiWRTjp8sY+6LFA2+BQPDyYcNlpyJwnfKJQCN4a3iFgY/16KgravWj/O18tbsuEAheA5T5FtnsIHN7biB8cDmPNwSC15PXYqhTIBAIBIKXxasf6hQIBAKB4CUiAp9AIBAI1hUi8AkEAoFgXSECn0AgEAjWFSLwCQQCgWBd8XoFvidJRO+0M+/XcmCfTyiLmr5drE658pe91QVWTyeR/yOK5ErmeHxbKGYQ+331ppxqjvIJgfc3vvnKeRV1Zu1kwCbKUBa5fpUUkbkeR2aVZopZXV43+2uXzmX6WgW+7FU/hk/NN56b8g2hfHkIPedXNi3PS+VFDKOeJHxJZTb53GkL5r4cxvjvb6gmnkcwpFlJe0UkpzD0SQhsFfw3hTfJ/t64urJiEphyDSPUwUTWb6KMXm6eO5fpaxX4bF+mIP3v0omq3zTYDPVvFPI6Yv0YUCcR6LbBT0HwxpE3VBN3Ey3m8eyAvbOQCpN8LtU3gzfJ/t64urJiXJiVCpjsYFL0N1FGLzfPncu0aeAr35/B8IfqZLFdMO8IIC7PT1qvS1yzj82pdziK4vUAeuQhtKP4iQ01/CuiHzZirfOuAcw80QxFUA/E22VVJkbVkD5lhfFzLtBiElNuPhlrlxF9x6LIa5fPeBZDwMHzbtyM4Us5WFv6cVaGHkzcomt38Imk37Fi+HxSN8ls8Y+pqlx0x4uIft4D9w9lZE4PKIsknmhhAHI5Nlcn8XVPIam5GZNJzzdJxE70KRNi1zlHJf/dALqcIX2PmeQ73GS4qnhtBAP7gsggAi/Lr2uGpKDRJdOjdbymx5PGuNWIkZvKliyPD5S8sZk+jl5ro6f4Io/oid2V4dUusxcRtUzNdMvtKvPdMDbLk9R2weg4iigflmXl6TkwQ7Y7jgF5kUqyWdpfb5hLv4/ZnBdRZjd8cu6j12k3u5+298jyfYxPuE0/vS5I75p8sQmU+0j/dVTVnL+iOFqx3Rp51uaHUdnXuf2Vb01gt10zabo71HAZmsb+gGhhx0tpkde8pv7WqYMt6387tEgje9mLPrLzynGtLlU7vDRcsWGdPBqiHz5uXr+byIjboXqNtg60In/tKPpUG/1gGFN/NM50q7pd/GMGXlVPJKOe//m/G+RZ8a1T9zOYcSky7/svt+IV+8ClQ/JL81UzZsNmbqnPojS2ySB5ogW+XZIK2ZykbNVbSr5mH1vGf5NN6t8zLaXYsvv/0O/xtNRfszR/KeKSsHNaYovKV5a9J258ZpAsX6fkvxVS0pjFIPnj7O+cNDsIyXGWLy//T0GaO2iQbP9ZZFuEkhft8RufUdpLlt2vRbkOFp80l+ML1z+dlVywSWP3lE3p8azk7HZIYwtcLqVFKbgdkp3upVJdBr8VvBxfJ6QCkw/ldvGsQ0JvUFqUt7lMYJF8V3KVsszug6as85JHLdffYcmNfmn6sXKEoZVvQ/6clOzwUEoqGl3+c0PyGyzS2G3liMztMcli8Es3ZJ0q8gjeU+U1J3kMGnk1IHHcJGF7ULENovRYta0WumV2RWbbfzYllbjMEidtEvaHlfMZ7JzeSSpFFa1tqej3MTnaJNtOpzSd5imx9GvSYvk2HZqr6usMpaHe+96YZDN4pLlKlSlIj3LqRjtw+zNRGk+VPaU/yf4MJsm/oGzXK1vtvvbtj3i8KKVUW+e2Vb1WY1tN/UFrO27E0rxqZFCpg7U21ar+10ev79ZplDIpaVH1VaWENLqpxr9p7ZBdf4hsenC2eV3TyZTnqWn9rq9P2Q73z0qPuIgKUY9k0tpeIxb8kklrX/eCVPfd3Cdr6j2jVd1mx2GSPGreyd5zT5Vz6+uV5LulX/L/qpaV/bPKPpDRJF8qTQKfEmg8V+pJskZAMjX7ZMNwSbO6y3PS9E5IroiaiZIUpgI4LyqmojPMuF8yWMYoFxzubBPsb+aotccYpNDK+exc5si1lS7HhNFe4Ks1srmD1TymvrYscaC6vBFtO556+VQDPHd0skxqHR0ZebWC6ZWuv7diVFV5N6BZ4CNqGyFMBobjSmlZ/vQNFFYpaxstNVCAdjXSRSvdynZVI7MMVV6N/OsFB51tcfT7mBxJVj/W2Ls2rX/YOfqGm2JXfJ9sB1Wn0jn17U+2uSM8n3XKVruvbfurw1KZqHpq4g/asONG1HeQS/OvrYMtbaQBurItIw1dXuvZoWzXDmkyy7froq+vcp6a1u86Mqpbf/S+tBEsLb0/0PoIfb1neWtWt+v6Qk4jvVpOVmqpwhr4wGb5Umky1OlA4NoosofN1I32Yup6Rln4sRN6nXDq5ra1YPjfTsQuR5XhznwYIbbA6cE6Y5CDXviKIczx4c7kz1PAlz7lWUsmhUx+An28ayz/ds2gnM8ix47nssj39unXWLNY23526Niqn4feQOnkiiX579yTvLzSsY7tA3CW40h0+vZbvXyS3Af2lBFPagazHHb9zPjs/KdFKDnS4zriR/b7EOQlH5/MIXTTXWedw85wenwo/jTHhzuTCP0XlcUv2YrP+W/6qnqg38B3ZeSfyJqoTz6HLJXTXm+5qVa6ZdTKrJvKVy6gwDeXjx3OXU0mY5afhcbgVdf6Yj8rWxeQ8sZGgLYHED2ZhddqRN/hKcQeLO9d0Fr7s2/rA0jOa/GqQPlhFAFnjzIkRb+B040WC23iD9q14w5oVgfbspFWtJFG8dYMvDsUubCf9zI/oFJb5g1U5q1pZDpdb7WD+i1Tt/4Y0L/LjvhCim/XI4sMVeKYpzpc3dVlxdGbdKROfW1Vt+v6whY4d9U8LV8DH9hOvpo+4zPtDCLxdwmps31IneiB0R5AcoWv4VoO+uD6LYwopZP/LYL4fi/cG/hBHf3wfQmEoszdJhG+VLMQZu8kqAUgv4VY/YWx7hc3GvRjFFOYucXG8sNIHvLBU1e+HfCxj9LkjZBb1Fix+ODVrKZBLbsaPdBPt7Zih7zWuvWA2pI1eVPXjDSh/0wCpUIKwW0pBLYZsfkEX4F9pbyrXYF8lXgSwtCHPuSOJ5B7nJN/iTONHcZa+INlsxo20iyNWyOw7Qqh5ycKhFw24YPyVU0oo1Q0wPAu33xNoR5dTZklLJ7UNzRUVr1uvya0fquTWtP2vaMIZ3KYfm8K0/yFhqUUUWixsrLMBuqB7I8h/FsW85fjcB9wN1wx3EE9DSPracjO1gNvLz9gs8F2P9G40lltsDzMIqvtoT4v6h+OLxPWkmAtIR13EogbnBjodMFcO7V07lPLU9eTTiPxuwHO/vqG2Bo7Rk44ELoSwVwkDf+R1TBSB7yfGuVGSPJKCNZDXrqLgm2TDZlkh86det82KmemXg+5lW5XkWKhwz4i5dtOjbBEq9emN9jhOhnGYnYalv9Od/yGafqBvpeUuZeCoben4YhFmWx7WaTjiPeOI7i/2svNP27RQ6vnD9bEjpuwGjbSIo1sMo7ioSDGelXvlKeeBP9Thcqc1pY5n0IyPwDHWi+cvclONbK2/pSRXMhQj6qPb9eDeq4fUjfidntd0lZ127rRstQXdsoa2E47+WoS+PLI3MlXhzOeJZC4a4L1fbahCDB6OYqifLyMzDd+TLTxMh/rkrNgF/tlBNGbHvgONBmG6/XCY4hi/OwcbJ/7Ks4WvSMYG4zCfziErKqV53mk7/MMbPfCZ5lB4Dz/8PhFEckzk1iNT1dtB0fh/CWAwC3ubNhCnZ9NwHzaX3nl3WwyIJtOtw60W7wYHYwgcCqpkaMPE++Nw9/Bq7m1WI6MwHnJh8Bfo/AN8p0rxP6JB8Zr5CSv2kju1V6B/dgYnNf88FLLWFVF+QlVymZvmFHjx38kh/FjU0hzx1N+kkGe/d1Kt+1gNsPwkJySRgHWjZTnq2FEeeOsfH8C/vMdpMnY4EHgeAETR8aRVBt55SIyd7mdURnST9RMs5fVEkibrDCzjetH0WUcobDZmsyFcUTzSjosn75vjJWhZcVhhxC5z+/zLArfCb1lt21/rIF4n4KfKpO7Exi9VM2/nib+YAV23HZetayGjbRIw7qRnO5CHEn5WBn5q+MYX5APaYggeD6tyIR8TPSrAOL7fBhe5a+Alsio24WR41R/TlTzXrzmg/93D/wHmt3cAM8JPwr/48W46r+obMX7VF/rNABa1W3HvwNwkB8f+Y3sgu1gdeGhIr9X6QOb5UulSeDLIf7VQOX10a4PAiifSyAoZ4YE+OMN+DNe5fg7Nox3TyF8RL6wJYYDPniuxxD/zAeXbmy3Fjt8nwOx6+RsD2qjvwW+2CImN8ygp/JarhOBm+o4tR3BhTn0XeGvnb/rRKh/EpOrsdjtRh/m740id5y/Bk1ppz4hJ/B1NRj0fxWCe2EYZnb8WLP2vlKO0byfvxJthPO2F4mFsZox7w7Z4IJ7sAzrp15qGa4SvVSxumOIbaKKoG3RyvKYhOHbnurryHvIATTt/RvguphBeEsYTrNyjXHbOOJy5Wul2zb4eByhA3EMs7TfYc/g6I4HQ7jxWQbe95U0bacNmPrZp5zfAf0Xspjfm4TbyvNmtsN7kX1IQDyLIzCo+TTgVBmTC0G5QZS5m4DhiLuN7wGdmL42jNheJR3jDrLjKNU71XZ7g5i/aMc0f1XbuCeG4cikTs9t29/2AMJf5jCiyuSMBaGYv8EITDN/sHw7br+uaFkFG2mRhuHAJGYdYQzIx8xwJT2If++Uj1XoHaU6EYSNnfOOGf7n40j87MFqL9lbT0bMDuc+imCAP2+2njEi9GcY7lY3/3ga2ZgLyYOqnZphP0IBtF7Pt1Xd3jKKeNKP3AmbctxoxdDPyojBK/WBTfKl0iWxQVvB2wX7DvKdAPr+VJ89CV4teYScThQvCn28NbDv+E714RE1gtdgMFewxrR+xid4w2BDBQFE9o3DJ5zsawK1auMi6AkErwsi8L1FyDORdBnRF3XhxhoMuQgEAsHbgBjqFAgEAsG6QvT4BAKBQLCuEIFPIBAIBOsKEfgEAoFAsK4QgU8gEAgE6woR+AQCgUCwrlh/ge9JEtE7HU5V9aZTzCD2O59Wqy2KyFyP153GaH3RiRzqLMRcu2Dsa8HSRTtff2pkK1hFVsMe1tJfNM9f/o8o0m0uwKuleeBjq6O/lpW3DvXyWmdf9qofw6fmsa5CX3IKQ5+EULMGcRMSmHINI9RqMua3DLbCv965rk85vOnEDneh53y11pcvD+m2BavNq6onWYSPDyPwe+fevHngu5voeGb5V0a9vNbZZ/syBel/fVjleWRfb/bOQipMtjFPpIoLs1IBkyuYKPvNI4/UH7UVaD3K4e0jnXxjvNgbyquqJzaM3pZw40jn3rxh4CteG0HPgRmU749jQF6IMYD/67sBdDlD+t4S9aqGeVeUzRzScz6J+Ak+OXSXEZvdIf2SE8Ukptx8gmc2y8ixKPLq8RdFxOjaykS4xs0Y+qG6vETxjykMf6Ae68PRa0pO6uX11zr7mPnLs5scVmezZ91oL6L3ZzD8IV+cUZOuDM+v0UhpGI0w80Upe061nmdfkUcGme+GYGVp7+C9zxd5RI+pMuqC1T2FZGUacyVPIW1ZP6DW1IMikueH+USu7Bq9XLOXveizqgtMklxPxKszo+uG3diwUQ8mbsUQ2MEnqn3HimHSW3Umdf3wglyOb5I63ejzTGHj2lH0yfIxK7JicrINI1JvGKJp+cskr2FsVicOfsdcLcszTZ7pZ/xwCDOaVqaSB34dyWzqj2oGm5chjSnnAEZuApHDSt6HfmDSqhlmeZ7EhLNHM1Ez0ws/1pA8Zvq7sPuSPqiWLw83GAqtN7TTuT5kGZ/YXbGXLrMXEc3xcppsvk5dkmlazjbsR9Wv0Qyr2QijVZHp5k8iFd/RTFdsxZMZ1UfI+k/DsKwJMYuIft4D9w9kU6cHFJskW9JxZ5zq5lGSsIqir65/RaqPBvIh7O4aQkQeysuSjfSRL+B5J9kFblbzXtb6EvqZd5Df0epFhdXJw1FkLlXr9JJzuRxVPRgdRxHV1qeWadQbIm4xbNyG7qfuk35cin76/ru0njSVQTP/z2B1nE/Azvz/8KUcrA3jWk1ZVHlo/McSmamwmVsawpbX1y75/ndYcqNfmn7Mt4lSxCVh57S8BLy8RDwsku9KTpIXty8tSsHtkEzH1eXmlWXuHWcXleP/FKS5gwbJ9p9F+Wgp4qb7BaVFdRn6v3NS7in/+/Gs5Ox2SMF7fNn8p3OSx2CTxu4pm0vyyqizT85jZVl6tmQ9KP9BKfW3sqeUHJVscEthebskhfdDsp1MKPmV9PltBbuXYZNN6j8+L+VYArxcieMmyXRoTirI2yVp8QzlaX+Y34PnaTvJQd5RkhInbWx2Han/bEoqsWuYXHshOS8qC+8zSpmUtMjLIJUS0ugmSJ5f+bZODo+kSboWFp80J2eKeDoruaCRZc1S/kv0Snqb3UdyUeVwb4xk5pJmVV1lgpK9IsOlNC0/S8vgkeYKbIMoFaRHObah6MJOtqNSepzjaRALfslkout4Hkr39HloWQYul4rMZPRyYPa7eJtfTxR+JNuvkWs9mct2zeuIApWF7t3/bXVPldp7MjrUB8FkzGyoYtdMVvJfVfuqHKuRVTvlbGY/i/8he91HfQCum8WzWvsmmuqqJM0fMujs49G3Ttn+9bppzPwhspNz1Vpfu60nIfkNFmnsNt/MkZ+xWCQLPNK8altMl4OzXH9kr2nyX/yY4i/UcxelsU0GyROtGK9UyKpyr4Glqa3TzBceIp1V7sPryf5Z6REXXCHqkUzautEyjXo2XbuvUxsn/7elX/L/qtoe+0ebRjMZNPf/at60x298xmy9tj6o1JSlVh6Uiuw7tbbH6ezllg0e+A4lMXNZbafmEb4Ug+sLzdBhbwBjByzK0iYGO8Z+GIPhu5DSonoYxlRmDKGv7crxbhPcn/uQuxTmz594G0ttAWywwPKe8mf28hQWT4aqC0O+58bIpzmEIu0/uWqE59QYHHyVcsNOH3xbY0jcZVs55P4E+nf186VaTHA4bMj+kdD0jppTLrsxdcEFC0uALbPxIoZp6jnPfO+GSV52wwD7p6NwXlNWpVfxnRmDXREi+j/xkHw9CJx0wMCuIbl6DtsRX0ixE2QMWx2wqyutG/rh3EX9mJoFTbXYT4zBLWeKeI/KfDCLZFLfK9Gh1SvpzXfEg+ythNKCz2aR7XXCyXUFyouD+tepemP+rcpPJlCSz2P/EAYTbBY+6yjbRz+1JW7YaOFpUJvz4gwGvg/BzfNg6PVhdDCK8G+aV3qalaEtLLBv59cTpl1OZRFNvt0IeRmuP2YQVntx+TBCv7kwsowhmgrNyvI8guB3Vkxe1tg1k5Xyp4zntOZYrxveis0zWpezmf1k/8rCTteourH3OoCbqcoz5qa6eh7FzC82jJ+u2ofteBB+NTOrTj9cB/JIppW8l29GEd8bRJDyE/tD3oXk71FYdvZxH0f2+hH5L142w04npZBG5i+2Rfln5lbpwRhg2qSXux4PxtU6zXzh9zNw3SQ7YWlxHY6f88HGy27aH8LMnghmrmottkkay6KV7sso7Z/C9D7V9uSdGprIoJX/vxPC5H0Pgierx52nyTewv9tGIw9Kpf/fPtivJyq2p9LxW52uI35kyWhlQTyZQ+gmVZp9qpgIh12/TMdHfZRxEhxTRIb+z0+gT+7m8t+uGZTzWQoxlM0DIYQd0+h514rdJ0JI88U4GWxF3fw3fdXr6DfwXRn5J52swVUPO/qqS+kRBhJaGcri3FZlxeKkKrYi0uksTL097U8AvYcqhtY4/sqQEmLw8nW05J+VrRlHMqjYsx12um8Fkxlmiw22JUZWpXhrBt4dypAS+3kv8wMNcGzVjx0xQ8kV5ZBTn1q9srw8LSpBSl4cNV4danuQpjL2wb6Jb2tpVf7tAURPZuG1GtF3eAqxB6oNGOD5PgzHxR4YP9iNwE9pVM0jiwypKOapDq90dVlx9CYd0dpHszK0QzkrDx/2cBlbd423DHoy3S74Psti5mfl7PzVEOL7vXCrDZXl0Kws+RxJhBpCDVeDaGbzRBvlbGY/8srdC9Whz8x9Us4ONb8tdFU37xbY1nBliz5y7vGbCfqrjOjlGNx7vHDutWEuxup9FgnK27CLr3jIFrX+zos+VTYfeBFRjhAOBK6NInvYDKPDi6nrmerCvfXopTrC9KaywYGBrRREmbDryoEc+S59g7dpGsuhDd07qSPQmCYyaOH/kcsiX1sei5U3ONqk9vpuik3lAlTTVuk48GHQj1FMYeYW6YZa6clD1JptVoHLZaoAZpjU2Ng7Ceo2syFWzS8MFzvWTf2an3MoPY5R3A7BZaUA+FO112I/96jmOvr9LF+5RrAFd+fh/IkCrpmMwGxDoDyNxLn2XxOpjwfzteWQWixb8x7JkP+5hFsjsO0KoYdklXtMvVT6hQ/yYy8DtjjqhQK8ZiNVFgrS/XNwxefga2ixzcpvQv+ZBEqFFILbUghsM2LziaTciMRGD8KPS8hd8wA/umC17kZI8yzM82ttmhIWT+od9PLJI+TaDN8zPxJZRca5hSCFkPZwfj4KnJ9BktKZiyThoR6aprn4GrGycjLsp+cx+dQLM3vWazZjgK0WckX/Qtna6qozLIMu2K9Rw+1FHPPUEx+mhrxt0A38Rs2xfByx+264+IsbyRM2DPzcg/CfXDaPw2TNVUw7g0j8XULqbB9SJ6iRZg8g2fZr/tSbKlIj5F2+uSxWksbKdc9oKoNm/v8l0nngIzGMnHAgdCVCFTgN/5GaLN+m1gb/U4a9WWmwo4dZvdwzSLQ0BIPFAd+FBHJxLxIXotTy4a3IJHeAL5H8tSmEdoTJEZMRUJP4UZS6ztoWRadQC8ZO7i+xiq/+ZpNxFA8Fq8PAZMC5ZXzbsnySCJ3JYyxNQekxta4oaE0ONgjT7ZZ/gx2uk2EsZqdh+e+05u1cAyzbfZhcyOHGwQSmrjHrIAfLeua3l9vMbYcU9QrsmiE4glqqjQeTa+gdwehHIYR/mUP4rh++vXx/Ozwvtj20LkMytlG/OqN7QaZdVlhOxp0QgvkxpP5W6kzh9iScFXNooSs573Q/nf0WUWi6ov8K2eKE2xRH/IcYohTwnKwhv32YAkAY0atJxAed6JNlwXp/RXmYWHkMQVDPTDvwKEO9DPveUYQzOUy/N4Vp6jHW5X4KaW2PMJ9CMj8AB2sAbrJT36lWh2UkFzLU4+rj20SzNOrSTJaroHuVejJo5f+tNlge0v205enU9tukeeCj1prhIQm25s6WIyNwXvIh8NcofIN8p8qDSQSv5pUAVc5g4ssZWL/0Ka/SU+UfG4zCfziErBrBnueRvs/H1x+QoovqgTIyt+IoW00w0pb92Bic1/zwUq+mcsYTOl+tIPXy2iD/nWDpd8Lxm7fyBiL7Vd+ozGJqx9I39pqywYPA8QImjowjqRpguYjM3U4+MNdj3Ugt5QVqsSpCR/7qOMYX5EMvCTuc+6hMDs0QRs3bbhValf9JBuknVUkUkwmkTVaYmT3QOVXzyJATKMP6HrMO6pmf8KPwP16M31LvWUbxPtlH261tI0zvg2yxUfAkh2zJIL7A03+exsTXoQ50ZoHvCydCxwLIUn1wNmw8kXPYlEHoMpfHC/Zm4qjmrcM22OCmBmkO48emkOblL5Nc823JYqXlJCiQuJ5PoE99M5B+Rof6Zl8LXVHevfuTGD8VRVGuY2VkLwUxo61iLyhPO8i+brWXK7PJgGw63cSBOjCwJ4PwxTgGDg7xnqkDQwdID98nyIE7+T4K2lTVkgu8AV7OI3pqXNMoyyNzh3yf6rifJZC4a4KV7Ko+EQTPp5XzmZ6/Ihnt82GY3azbhZHjpMMTVV9ZvOaD/3cP/Ae0fecmafBGRvRyVZaZb/yYaOiuVkH3zWTQwv9juxc+ywwC56u2nzwz2Zntt0nzwPfxOEIH4hg2k/G+w57DcDa44B4kp/Opl8yjhoNBDP/ugpk7vznHHBJn1LOo8scWMblhBj2VV5md5CCV5zDFbAhemzr2b8TAry7MR/gQyUYf5u9NwvAtdZ15ZbLuISWrzrNeXhvlv12ehLCb8j9MPRm1W86G4Eb+PIqRn0hZVAFTd/rh3qs1xNb0X8hifm8SbqtSji6zHd6L2WW3bAwHJjHrCGNAlqkZrqQH8e87eyS8EpIn7PAhhFyJD138Qz2/H+2YcVFw4+doaVr+Z3EEBqufLFhPlal3F6SGUxHZi17Y1GeD7w5gbs885g5x2X88jWzMheRB9Voz7EeogrUd+CzwngvCdIYt5sueH9e2cx0IREaR+5ynbw/Ccmm+o5cuDHupN1G2wudZUms02BG8Pgs7e5Ypl9OJ2P4wJrfzw21hgOsiOfItYTiZ7VM6xm3koNuSxQrL+SKJwDYf8H0OJXUoi3p+IfsMhk5za2iqK/Z4IYHx537llfp3bAgUA5g5Il+pUM4idZcCZba9GtP/VQjuhWHFJx2r7wWce13I3Adcg9W63L/HjcyDAvk6dQiW8nZuFo7LA4puzC4kDsUxW2n85xD/akDzKUAA5XMJBBt939Y7Cn93EDZWb98xw/98HAnNAtKsnsx9FMEAt3nrGSNCf4apd8pPYDRNg8nyBvwZb0WW491TCGtlqWPlNt5cBs39v2z7C3Pou8I/dSLbD/VPdmj7bUKG2Tn/1HvlWqr5VODN59EFR93yVF6PXvBLNjpe+6rs+mJe8tV73fjPScnOXvPmmwJC84nDW0vMV7eMb5tvWDGrYQvrwZ7WiGU842Pd5QAi+8bha/YyxluA7aMBGH4LI6oZEy/fncD4Lzbq5VErkFquj352UbtqPdMHx07qXVzVDNWyIaAzQWT2D3X4KvJbDBv2PxWB65RP/zbm28Y2B/rvhxG5Xx0gK+ejGD+boTojrEHwetBR4JNnPWFf27O3tDRd8reWwSDip8oIsBkuzKz7b4Tt00X4FlII9vJz1j0W+K/OkU2w4R8jzGwIw+rEzHshPIq8rm8uvkyU2SXkYf89NxA++JbXmo1+RKNU1l1GKrNZHrKyDs7AevERlV1Yg+D1oIt1+/jfAoFAIBC89SxjqFMgEAgEgjcXEfgEAoFAsK4QgU8gEAgE6woR+AQCgUCwrhCBTyAQCATrio4Dn/xJQ2UhV0FnFJG5Hm86jdaqy5ctzlh3wdNXx9thQ3l50Vp59okuK8bv8N2CJrRYBFXQnCdJRO90MD1iMYPY78ufCvFtpnngex7B0CtwmmwF393mLvScr72zsgp5ZXXdD4cxo/lQVoEvG8Knaurq8urmeiveDFSP1a78vOYkMOUaRkidoHnV5ZvGuFVfXsEa8dsovAs+pP5hU7TlEGw2rdLDKfTU2GEnpE9ZX3mweB3y0B5vSh3oPJ/Zq34Mn5pfOil2I5JTGPokRHdaa968Bk3zwMdWVuB/vizyl4dh2xOHqc4H4vlLwxj42YbwY2UOwNxPdoQcQwhVZnIvI/ZvtmyIDZMZdX5NzZIXT0IY/j9xDN9UjpV+60N4FwWil7aSgQuzUgGT6tx9qy1feWZ2/rdgTck+IHeyawAONtl0wwmnV4M8Un+8aqW+DnlokzelDiwjn7YvU5D+V7+8U1P2zkIqTCoLBAj0sA/Y61GI+iW7BRJgkCwbLfQblW7QfnnOvYOz0vyXDslAl7MkLPsnpYR2ff1CQprcb5GPsesdn85JOXkp+BaUbkj+j/3SDUqrMh9mhZIU3gfJFdHPjJn62lI9796YZINLCmvzooHl3fAZK0UV3X2ezkuj200835AMW1zS9D3lUH1S0hjJyBfjm0Tu2366lvLwN9/Bl9tX8l2d43RF8q1HelJybjLI55vk9CjvWdovz+cXlOa+dUuWbl6uj3zS3GPlMpl/ctLcpx3eT4aVxyPNMbltVa5VZVFITkrujco+GBySL5pTDhBL5m1sYS+PIh7JYVHKJh//8oZUyV4znS27XIScJ1udawvS3PF+yW6i/d0mWXeu71vMlthq3tKG5U9Jk4M8DyamU/VejeT+SAofckgWg7KPyX00Xi1w6d605N6iypHsZDvZnHq44zw0oaFOHkmTvZA8F+n4Rzwf3RbJfS5R1SejhT00tK1GdaDjes2hfEyTPFUbMGwNkjT4IZYHVZZLysDKaZeCC5r7as9plM8W+tPXG24DWp3W1DP9XJ4t8sRQ64uB7NpkkAwWRd+2A2HyYs3gev2Vb9bC0zU18j8sn4fmpEJsVLLL5/gqdSUX9UkOVR4b3dJkUi8P+9kbmjrOfcPjOcmn2leNDFUaBj6ZOpOgysKHSfJcySmTM/9DjuCgQbL9Z1E+rjp6x9nFBsfbY2ngI+FuJ+FG+San8KOrYgyNJpVWmTsIyXlRr8LqNRRY99M9Kd8qpcc5qdAiYCeOU+D6Wq0OrOxkLBTQKkYgT+jtlGbl21YDn8yy5NuEeg6W3YMMwHE2JZXkspSkxTN0j/1hJX0icdwkmZjhNTjeGFYem2Tb6ZSm0/xslsbjWcnZ7ZCC9/i+p3OSx2CTxriz0Vfg1vZSyqSkRbUhUUpIo5tU+TbX2fLLxfP0NTkF9dqzZCfUgFjkaevL0IKmga9V+es5lQZyZ/lMUzo8j6XkKDUE6b7y9qI0Rs7WE1WdQEkqZElW8t/LyUMjmulESQcmctg5nu8a22iZlxa2tVTWy6vXaj6Y/ShZJXk9Lih54nkYW+CyLC1KQfJN1XvwclrIwVfKOSu5SGeN88lopr9am2M2QPfYScGY1w3lfHe10b0k8DXP0+J/bBL2zVZks3i23frS3D7kerh/VnrEEypEPZLJQDagmiLL5yab1L9nWimLqpsFv2RitvJU2SzdC5LMquWr+ErVpuXysDJW7atwxUOB3C8l5K0qywt8NfskKggGZ8lUCKZQy1ilZSRDBTDU7mvB0sDHFbOdnA8XYClHkZ31mrgxyNecmZOmqbVoMLCIr20tNlBOpYxKj9J+hle4dmHXq2X/O0yC90mzF52S4TgXta7sbQa+ZvJtRsPAV608MhkyINUY5MCs7aESOarYtfvqolQ+14+qBSuwMlQbAwraBoKuAi/DXqq20URnKynX7THJUiszys0Y9Tr9C8qWrgytqOvkOC3LX89u68t9KVp7U/LvuVLnmmXloRHN6pGSTm291jVIW+SllW0tlfUy63VdG1Bgo0xLdM/OrzjYNsvZyCYqaPWnlL028Ol1QgF4a9VG9f6ldZ6W+Fx2vWl0SdBYShP7kH2ixufJKDqpyEL2US5ptsY0WX70I3xKY0TdJ8tju9ZXcl1rGjm1MlRZ3ucMDrt+hnn2jONpESX2dyaFTH4CffKLJfy3awblfBbqqkvLxX46Ia/v18dfbrF9noXziH5ts8yFMAznsiiVSpD+ycKf92LgTDsrcxvg+T4MB1sH7YPdCPyURr6d16F2OOG8GUfiBVD+LYzYfie8g9SOujovP1Rmq6PjwNDSdQub0Uy+y6G3T79qfLeBMltAgf39V4byGYNXXeeO/axs7ULSV1vPIOxw7tJPvJy5l0H+m75qevQb+K6M/JM6FtCGvRRvzcC7wwrrB8rPe5kfaKazlZQrl0W+VmakwYE9ZcSTq/yq17Lry1K5ywt3she7uJysH3gR4YfktdaujSJ72Ayjw4up65nqYqGrWmdb1yPHVv36FAaSc67IrbtFXjqyLZll1uu6NqCQe5KHfZudb3G2D8BZJj+gWTG9aTnr0VR/9bCjT5cNA92jjIJcsevTLE+2TTZkFpLKuphE5j55sB01vqhT8jmqcQ7YdSv5GNC/y474QopvE73kR3XmnEWGbh/zqOuzsp8VR2/SEa2u7dr8GWCiNFg5WrE23/H1ToKisPwCSfWneclkuXRb4L6YqixwmYuOwvY8Q2WvFtR+ahK+LeTYGXS+71M3stdiJEYb7BR98nm918s+pKC4zaYIb6MH4ccl5K5RW+pHF6zW3Qjplv6vg4X6EL1RxP8A4tdjcB1ww7DFCTdo38M87cvAved1f7zsAbUja/S1iNEVLDtFLcea9Oj3cwMLaGYvt0Zg2xVCz0/k+B7n5F/4oHyVQlOdrX651oRVqi/JE+zFrh6E/1TklHscJglUMe0MIvF3CamzfUidoEBgDyCpflqzmnV2OfVIS4u8dGRbjJXm5yXRSn9rjf30PCafemE2UtA1mzHAVuG50sHLNGsA9SKX6HrxZPPAZtrA/X8TVj/w2SiI3E9UK9Ra8jyG6UtWuPcpzZ6+XU5kszUtctaqfd8EI/3HWmmJ9KK8WyX7JwVOh7Y/ZoBluw+TCzncOJjA1LVWLXwbnPtM1HqZQewqBbxBJnQHho8UEP5tDsmb1JLZoZz5WmKxUrsxiYT6icUqILcck8n2vh9qYS+sx1w8FMRYr2rMeWpx8z8r1NHZSsplp5b+fep5qD0imTQSvxvg7G/dmuyIVasvWSRuFuE5PQZ7RVS5pa++U2/fvncU4UwO0+9NYZpa0GtTZzutR5wWeenItnR0mB+rDZYlNqDA/Ajreeq4k0Dc4MTAshtVbepvLbkTQjA/htTfFHSp21i4PVnTC1sGm+zkDdPI6BoaZSQXMnDu6uPb9aDg+yE1Bm63M1rXOc0DH0V9w8MU0p186tY7grHBKPyHQ8iq1vk8j/T91VVhOR/HlNuL2IFpBPinD5YDfrgvBzB+i2f4WRLjZyNwHhySWy22g6MYuBTABP/2jy0qG7g0gNGDzJmVkbmbQVHNczlDyinD+h4Lmc1x9DuRicwg3u/BEG8eOVzDyFycQaLXBWejJtNy5NuMDSYylzTSD/h2O2zwIHC8gIkj40iqC+6Wi7IsOncuCvZjY3Be88NLvbSKOJ+Q8df7bKSFvVg3km4W4kjKx8rIXx3H+IJ8iGiis5WUa4sXo4MRBE4lUZQdH1t82YeJ98bhVz9FWS1a1hcjTO9T2L3fygGQoyBRJRd4UGCLAZ8a13wuk0fmTr46vPksgcRdshdKe/XywFh+PZJpkZeWtrWkDiwzPxQkA9sjGPkixodGyyjez8qBiPkR5y8BBFQ/wxYZ/mwC5tP+9j8dWJLPVvp7CWxxwvV8An3vVIeRjY4A4ivxT90ujBzPYfxEVZ/Faz74f/fAf6BZX9IAzwk/Cv/jrfpzWQek61VooDUPfB+PI3QgjmH2wfc77PlIO1jgiy1icsMMevizuK4PnAjc7PxpwVJiOKoqxB5Aal8M2R9d1QVxTW6EkwFkj/MZNaxuZD5JYO5TLuCNPswteJHaq4wbGwfn4PzfOfg2soNFZC96YVOfCb07gLk985g71Ew5nMEhuJhT2OusDgvsdMH9IIPCPmfjMfJlybcJFi8mz5oQtLMyDGDmL76/Bf0Xspjfm4TbystutsN7MVsZ6+8YkvP8vUkYvu2RFyJlaVr3UAXSrGRfpbm9GA5MYtYRxoB8zAxX0oP49+pK3s11tvxyKXkazfthlZ2AEc7bXiQWqDVe55lPe0QwxGWh/pQJGlrVFwu854IwnWGLQLPnWY16KuQozs3CcZktCExpmF1IHIpjdpAfRg7xrwZgVp3aBwGUzyUQlAP5auWBsYJ6JNMiL61sa0kdWG5+bBj9PQF/fgQ2OR9GWPeT82aH5DyMIqf6mXedSJGfSXxd89yvGUvy2Up/a8yLJALbfMD3ucqjJIl6fiH7DIZOJ/lJzYn8i5VF8+OTc7B6OPdRBANcB9YzRoT+DMPdqjf58TSyMReSB9ki4OxaM+xHSAerEPi6qIDsdXeBQCAQrFeuH0XXV3Y8ooCubaiz6QU3U0Oj6TPUN5C1eblFIBAIBG8O2xzovx9GRDMFZDkfxfjZDNx71RGWtwcR+AQCgWC9s9GPaLQPc7uM6DKa5eFW6+AMrBcfIXyw9VuSbxpiqFMgEAgE6wrR4xMIBALBukIEPoFAIBCsK0TgEwgEAsG6QgQ+gUAgEKwrROATCAQCwbpCBD7BmsM+gu06HONbgteBV62T/B9RpOtNYafym7cy88easGrpx+Dt6sHUazjp9arRUlZZTG3rgvc3vlnMIPZ7O1MetiG7J0lE76hT560ezQPfWhufQCBYe55HMPRa1eMswseHEfhddWhpjFu95AbfPsqXh/jUdOuI5BSGPgmRVldO9qofw6fmV32ybtHjEwjedu4mXu5kxy2xYfS2hBtH+HyZ+RSSq9+ofy1Is/U41xt7ZyEVJtufsLsJti9TkP539ZdG6ijwseGRnvNJxE/08QlijdjsDlWX7nhRRIyOVSbCNW7G0A98Rvd6vUfdPtZd7sHE71EcdfDFB419CNwsIn/taGXx2eXOFt4y70T51gR229UJUbtgbbNs5fszGP6wumCieUc1j03TJJSyGWH+wAwjWweLLUBpG0aEDwMV/5jC8AfqPftw9FrVQzS773Jpnl82NOFFVHvfmjxRCsh8N8wnd1bylDY0nKa7KbLOvokjeqyqs74TcRSfLLURLbJM2cTf9fLHbO5wFMXrAfTIeTxa6Wlo7azrg2FM/bEMYa4g/fy1AHarun7HDO9lfryYxJSbT4jMZHAsinybOileG0HPgRmylXEMyIubko3IRzgv4hgh+xu5xbc5mdObOxoKZT2brh2a+i2nS/ZzStPuvzUCo3WcegKaobG7U9jdP0J5isAr529IM7l6GWmNLRkdRxFtNjzaBKaPig/5cBihZ1a9M32R19gZs/spJCvqUWx6s6o70o1sh/yojiKV+0Mrdl/6/yD6eQ/cP9C1pweUek3XyPB7qb5kSbm4DWUu6evR2vi9mmFKmXr7coifr+ZHL58adH69tezKabLdBj5OPyTPY8StGAI7uI96x4phKl8lPVWPRjOsZiPZm+JTN38S0fca2cwtDdEtXc+XeodF8l3JKcv4lxal4HZIpuPK4vSliJvOD0qL6nL9f+ek3FP+d01aMnWWxofJI83xawo/utisMpLl0JyUYzf8pyDNHTRIBn6/TmiVd5nHi1JKvhFB95ply9jzpfgbl21RGttkkDxRdd38klTI5qTKKvpN0pTujUk2tuS+KqNMULLDLYX/5tuPZyVnt0MK3uPXP52TPAabNHaPbbS473Jpll95GX/S0c6glOJ5LCVHqQzVPJdIpwaNDkt/TlMZ6JpD88qODlB0ZqqW8ems5GL3t1D6PI+FK3Q/g1+qaHHBL5lMbmn2T43MTBo5MZvbZJP690wrZVD1KV+nyfe9Gl20y3LTZ8dBuk7zfDP7krOck2YHITnOLip2y+uA7T+LbItorZN6dU+WLdfJ4n9skuGzG/LfCilpzGKQ/HG+2Q45slWyZW15DBaLZKnxH0rdVeq651dlv/TnJMnCQyXRwPJM5XKcTUklWYYlafEM5Xl/WJFDJ8jpa+vRDcm/lWSmyVviuEkykZ8p1LsXq6cG0l2lqhWkR4pyCCZ/uzT5J/35z6I0ST7FcU7VDR09pK0/CvK99s9Kj3h2ClGPZNKmz8ver5ad6fyQScLgLFlDZ7T2ezW6kKnZV9FF1QYTJyndSn7qnK/KtqXsSA/bNbZbUy+0dqreBxZfpf4rPkH1iYotY98s1yNtn61vM50HvpoKJN0ekyzwyUZbilCgYsGh9i6MmrRkdPuUQjkuaM74O0yFskvBDN9m1EunDVrlvR5aoTcum+IkPFdUZTZHp8glZWGGYJJGk8oWO9fydUrZ4CSOG/i+zu67XHT55YaqryRUkbaSk1xgf5eksC5QKrA8V9NoH/ne27Xy4elTBayicTwN7i/rTq2kTOassVEjNuagXBGtcpWAo9/XBstKv36+ZZjTtoyRtjXIQUXd10onRJ06o9OrGng0Qbqafruw+lu9Z+prC9XlWclvcEqzsuC15a1xlA0DnyZPDNYw1DZy2oTlpdb+chedVZn8w2SoCdoMbSBnfoI5b7WBqkO1vwLpmAXPeV3jc0ng4z5NsVcVRf/Oizys1Su7fJ1Dmszy7TaR9dzU79XoQqZmX8v81DlfvWdL2TW3Xb3/Ue5TW0/mDlZlt0TeLC+m0SU20/kzPoddv77cR31wIoXMX2zttBDCjmn0vEtd/RMhpJUVHDvCvkWT+gYTTHQ3m7xe3irQJO+M8sMoAs4eZViCfgOnqwtvNi6bA4Fro8geNsPo8GLqeqa62CfRLE1ltel4dcjgQRpp9MG+Sdlkqzznv+lTuvT8N/BdGfknbG2y5vddLk3zK2NHn27ZMQMM3WUUCuzvHHJZytlW/dCm5QP9dkfYtTozwGQisW1qlF79+xt2OGG/GSdNc3qdNStLZ5FJAzFPddi4q8uKozfpiCzrDuk4/fr5lsmQfeYn0Fe5jn67ZlDOZ+kqlWY6aYMtXvh3RhC6qth0PBKC9VMvWVgn2DAwSNcuMHtJY+4nI1x7fHAdiCN6k9J9kUL8phPuwQ4mPO6luqBd/7Cbri0X0G6xVHJP8vKq6VosFs1A518ZynEMXnXNPvazsvUxScZsfGx7ANGTWXitRvQdnkLswVK/ljrjxNDlYYQvatYHrUc+R6k6yM/xbRkD+nfZSXYVC11a9g0ODGxNI1NbHduhhd9riyX5oT60pY38tJRd57a7pH5TvnLFkvy3vEL/QnXoM3OfKt6OmvITK3+5pVymm5hhYvbcbYHn5xxKj2PwIASXlYLET5VR/2VCwW8D/3O10eb9SQhDH/qQO55A7jE5Ivolzmg00qRspp1BJP4uIXW2D6kTPfIiuUm2WGKrNHuDmL9QgNdspCBjhrl/Dq74HHyaOkmtF2VRSO2Pr43V8L7LpVV+XxNMG9ZmtnhqeS6R9eLJOsFomSw7/d5JUBu25towVm+FNGr/f+FG9FIY+RcUqH6ywX+4c73373Ej83sC+YeUBtWS4V7AudeF2PU48EcM0V4XnKv9lsKq4QH1K2pkvIhROUCZ0H8mgVIhheC2FALbjNh8gq+ULpNBLO/F2N4QvJ/HNPtXkzJKRQoK7/LNlaD1eyuinfy0kt3qYj89j8mnXpjZ+xJmMwaiLty4svTlmM4D322K8vxPGfbGmMGOHk3KBosDvgvkPONeJC5EqYVTn/LzRk9H14hmeU/HEe8dR3B/tb2Wf7w05w3LRq1R+95RhDM5TL83hWlqzbdOM4nQmTzG0iUKMtSSJeOYHKyeK7deki2MpN59l0ubMmgMGRv58exfusfIKLbd9VgpNtipm5J+oM9z+XYcmUEn9aUbQfn+kLRxeznN6XZolb4it9p8y8ijAomVNWjawHDAD38ygrnLUYQ+8sOr65G0yeAQXNSznrseQ/bAkNxjNOzzwvVLFDO3E3R8YEnL+2Vg3WhBNltjE1rfY7FSvyOJxH2+3Qjq5bhOhrGYnYblv9Oal4TsGP9+FMGfqeF62Qvfb0382ibqKVH/MqP7dq2MJPWUnbs0Fno/hbR2BEd+83UAjuXopQ2fraeIgrqivQrlR/tSHp5TL7mT/DSU3SpzJ4Rgfgypv6nhTn6ncHuyZvRFofPA92ASwat5xRmXM5j4cgbWL33yq6vlByTgouqmy8jciqNsNcHINuUKHKoudPgsCt+Jl/zlTpO8M89juU+Onyu8fHcCo5fUsjQrWx6ZO5SmahTPEkjcNcH6Pv3dIk1WYZz7CphwaIZYNG8p2o+NwXmNnBD1LCt3fkL5kN8Aa3JfCsdTO7qw+5I+ALWkZX5bYYD7oBvJ06OIqmk8JEP8ocN8rADXMT9yp0cQesjzzezs8zg8x4ebvBJtgOeEH4X/8WL8luq0qFV8n2S9KgGnVfokt8+op336KKbu8nw/J/0+ob97RzA2GKUeWAhZVRV0LH2/A5lSy9fwkBxpE3+Mbid8Xy4icCwE5xfLfH18Qz+cvWnMXEzB9wl/mX0DG95M0L403HsavOC+geyWgkH6Ad9eZRweH6w/BDBR8T1JjF/Q+J4NHgSOUz08Mo6k6vDLRWTu8o+wn5CTZ7rgFJMJpE1W6jPVYHJj5gr1cA/7EeOyNlO3KptOV4be0O3CyPEcxk9U9Vm85oP/dw/8B7RSjyB4Pq3U7xdFRL8KIL7Ph+HlKKaZ3+ONsig1eIqyLyHf9o0fE0vMqyY/n1MZ28lPu7JbLbY44Xo+gT7+9in71fsSoPPAdzCI4d9dMHMnPeeYQ+KM8jSgmKWuvk19jmHEwK8uzEd4JWLDehftmOavoRv3xDAcmezwOcIKaZJ3NhYd/jKHkfcVYdnOWBCK+cklKTQuWw7xrwaqnzl8EED5XALBnXRRizSTJ+zwIYRciQ+t/EM9vx/tmHFRBWQnbPRh/t4kDN/2VF+z3kNKlCtnk/u+SCN1px/uvR3Wkhb5bQfDwRASp8rwW3kaXxUR+N7Hj74EPp5GNupAZJDr6oMgjD9mEdb0YuvCrou5kDyofsphhv0IOafV6mm1SN+wdxaZiA1hNd9m6kXIDSALfLFFTG6YQU/lUwgnNY46ePb48ThCB+IYZp94vMOeXdXH8S8vDGUXvPuWOwZmkxtymfsuuJgdyljg3AtkHrgwNMh31WLxYvKsCUE7K98Aqp8zrBLkexJskdUdqu8JYeCc3vf0X8hifm8Sbm63TP7ei1klYD2LIzCo+cSH7HtyIVj3OzXTvhmE98UwdDgiX9v/VQjuhWHF5xxTJM/uNfdRBAP8maL1jBGhP8Nwa020dxT+7iBsTOfvmOF/Po7Ez57mzw8b0czvsUbZjzfgz3gVX/KODePdUwgf4Yc5huNzmFpOfjqQ3Yp5kURgG/ma73MoqcPV1PML2WcwdFr2qFXoYNvo37B5s3j98j4v+Za83UXUe8OtUxb8ko3K2uH7iIJ1zptcv98qtG9FrpB1pdOYr67c6slg5S+3CJZJHxw7Mwhf1cxpV84jeiaIzP4hOPmuZUG9i0c/uzrqqQnWOc+iGD9dxtgXq/fKjEDwUtnmQP/9cPVxGlHOk12fzcC9V+9RReB7ZVjgvzqHvugAjF1GmNkQgtWJmfdCeBTxiKAleEmwmV+Y7flR/nYewe18t0DwprHRjygb0t5lRJfRLD8esg7OwHrxEcIH9R61i3X7+N8CgUAgELz1iB6fQCAQCNYVIvAJBAKBYF0hAp9AIBAI1hUi8AkEAoFgXSECn0AgEAjWFWsa+Mp3JjCgzjbhVmYyeL2pWYCxmEHsd/U7u3qLM64l7DXzHkzp5vTTo1+kUdCY1rJcMU+SiN5ZnanZVkOv+jSKyFyPr9L0a68YXZ18DXmexgR7nZ75vHeGEXn9nd66ZA0DXxYzR8Zh/rGgTB1zxQPD5SH0nO9k0uNXTHIKQ5+EoFlDetXJfzeALuMI4uqcm68FSpBXpxliP+OHuzF+/SXVYraCM7vn5/Un1ypfHpaPv062lL3qx/Cpef0qz68NCUy5hhFqNQnzm8BLqJMrIfuDF+PmEArM55Xm4KmZ0yt2+PWy23Z5U/PdiDUMfBmk7tvh3ME13w2kk2s2J/fasHcWUmFybeaVk8lg+kIRjt4ZzPC10F4nKsvo/MOWPrIg4urD+Mtynjv74fghhNiSBkEZ0atx9O98vZZLsn2ZgvS/y5zcec1xYVYqYLIyf+YbzJrXyZXB1tC07+pX5rDUrl8neK1oGvjK92cw/CHvttPPvEMzy/WLPKLH+iqTJBsdRxGVVw0g7lKrbIcPEXLs47ussH5wHP+vz3vg/qGMzOkBZZHTE/9vRP7Vhb7/aloRN0dg7LJi/A7fJpJfGGE9pbTvyrcmsNuumfDUHdIslcGGs7yIPoshIE9224Wj15UjxT+mMPyBso9N0nr0Wpvtctbz2DZF/Z86vMgg9H+s2PxFvDKEm792FH2ViYSHMfVHix4Sm16n7MbkCb4WGt9dH5Ldd8OwcnkzXaQN2kVe6g3n1exjstlRlZ/xwyHMtBPI2NJHB0II7ssiep1L43kSE84ezSTZ1KPQzK6vyNwIo9UKo9HMF7btwfgf2uP82no6eeGEc191cdQKT0KYvu6Fz823Oc1to4ZiHCMfWrH7El+shdtyZSJw91R1cWC590syvJ/BjMsqH9fZLEc/tMhtUVt/6pSx+McMvHzSdjbxec//1OvHtKHXDm2D5bXnmyRiJ6r1V1/m1vpTkcv9r4h+6PF5BENssmnuDxrXiwayfVHU5a3LuBlDP3Bd1dbJZn6Iwc4/HJXls5nnQX+OIjv1GJuAue9EtU7XIpeFTfYt50ur0zT1qvvgu0zBj/u4wO/8UAc0Tp/B7apDH6foO66xcaNSxidRHFXtj65RV4VpDdfbH3EEKtdvxrBanxgNfU29R0a1+5RyhrRlkv1LEcnzVTtvWsdbwWZuqc+iNLbJIHmi6kL6JamQzVWW1U8cN0mm/bPSIz4TciHqkUxsifnKuvvqkvx8k6hdFl5e/n9fuDKZcuK4QbJYLJpz2FLz1WXopceLUirHz/6nIM3u06bH7meTbDud0nRaPYd+j2clZ7dDCt7j+57OSR6DTRq7p2zqabKEvu5YgcpC5T80X5EHmxjaZKousV+6F5TscEvhv5Xtetz4zCDZ/rNI+WR575emH/MDMnr5lSgvBm36f05TuaCZfHWpvPX7SlJ4P8nrLN2PU3pM+mQyWkKNHGToepK344Iq75y0eDtX0V3hR1dVVn+HJTfpYjTJjxZqZN5KJ1zuqYhbwuAs3anK4n9IxySzWltqbRtcDv8sSpPbqRznqnKQbfnQHJdFSVo8Y5ewX7VLxQZtW/ol/6+8vHVkpp8Il92PdLMzKKW4/kvJUcmmtQcmA5gkzxWeZqkg5Z7yOy5Jq5le6dIObUNOHxbJp96by0u2RUYr/Wl5PC31w6Wz81KEbGHntKK3pvWivmxLTO+9QWlRlfPfOZIN/7tmAueWfoidT7roP5uSSly/iZO2qn7vjUk27fmkh0e5Sq3WI5fFLc3+yW/G7Nak9ZEk6Vq7rKHp8ZbpMz127uMUfZOtqek8nZVczD4tVG5eZwpXyIYMfikhby1Fn2/FP8Diq1zP9Oqgeyi+upmvqedbavfx+rOdbEBOnutMq8fSohSka5wXtd6hfZr0+KgNx5pxlYhqgGmTRenCU4su+B31zM75YONToJn2hzCzJ4KZqzUt9yZYBl2w/57g4/VpzF+1I3B2GNnrcaX3k48jdt+JgY/kE4CNbLl7fsNuE5y77PLQQpUs7Mfm4P9IPYf2XJ7C4skQxnr5vvfcGPk0h1Bk+U8JMuedGMqMI/Gjq7IsR+ziDAa+D8H9nrJt6PVhdDCK8G8NhjBJhjM/8JWuu13wfUYtxou65SI1lKlHGIHtVLCa/hY/gp/p559rCdMl/dQcGTaSPtsZjmFrk/3khf83J/wH1J6EBfbtlsqcoqZdTtjZYpVsI5+j//vh3MmPmhzo25JF8rbSomxXJyZ5cdQQ5iqt8wzCvxjqrw7e0jYY1JP49wCC9nnET/I0XsQw/R31Tr53c1lQ7/bTUTivhRGtvAxSRmn/FKb38fK2OYTlOTUGxwblb8NOH3xbY0jcVbbT348jfiiM8AGepsEEy3s8/x2xTNvoDWBMvTfJy3fEg+ytBK93zfWnY+MwvDtjGjun/FyOwflvZf3D1vWinmz5MdX3bLCQbPjfWtr2Qx6Mn3TAwPXb/28f7Ne536Fbldj/6r1IDzZLzYM5mTIi52ZgPTUJ3xZ+M7Lb0PdORL6bazFa0w7tpr9MH7dds8D0e1549wH2L8bh5nXGdMALdzmOhG5koTn2E2OV6w29Ywh9bcDMj3zUY7m+RoPvzBjscvKks088ZE8eBFQ9GuzwkB+IL6TYCR3TJPA5ELg2iuxhM4wOL6auZ6qLnlLFyNJxu271XcocOZuOMrJlAE7EEWdDZHfmEDK44DrkgvtmFHHmdG7TsUE3nNx5lB9GEXD28GEXKwZO1zo2Ozk8vdEy55f/pk/pLvPfwHdl5J90sJ6ZhuJVLwa+AiYvj8JeUWQWGbKxmKc6LNzVZcXRm3SkwX3Kv5Fj3Vld6dp5wIfc+RllHb4l5JDLkka26tevtnzQyXrWBni+D8NxsQfGD3Yj8FMaedUqG8CGouWyGK0Y+sWG0J/z8G3kB8tZRE/sRg/XhXXXuBL0GOqK1uqQdTGN1EMTHHZFN23rpNsJ9xFNg+DmDKYs9VcHb20bQOoMNVguDyN8sdpgwV8ZcoAxePnaaPLPytasyyKn8WbOXZ0+VbKjTxefDVRhy1AXo889ycO+bTWeUy7TNhx2/WrozJafFpUg0EJ/eiwY/rcTsctRxcnlwwj9Rg25gyzstVcvamVrOBBC2DGNnnet2H0ihHQjQ23XD/X2aeoq0U3etFyArIrtAURPZuG1GtF3eAqxB40qRX05G3ZQg+9mHMtzv1raTX+ZPs6u1Td1YigJ26YWNtKC2rw6KK+gvGSX4WuWYof9Q/4nw2SG2WKDrcPg2Yimz/hMO4NI/M1ebOhD6gQVwh5AclVfie6H60CGjDSPLAU7HBwmAyXntC+Geaocyd+jsO91Ki8MPAlh6EMKDscTyD0mI6Ff4kx7joO66MpLGtrfz8tbfiWWNGP8syICB5c++6Ou+pL7LJ6sZ1x5hL6lltEfI7CqxuqcQblMFZ7KvWZs9CD8uITcNQ9AvVWrdTdCTVp41fKU8Cg+CbfaEmX5d22G75kfiayii9xCkEyVs8GDUMyJ0I4umCkImW0BlL9N6F6uaFcnzs9HgV/CclCN/TQDV73VwduyjQxieS/G9obg/TxWaYkqeDBfmxdpEaN1Auy6oA39abEc9MHFGnLkG/K/RRDfT70H3lhltF8vON3Utv85h9LjGGkmBJeVAuBPtbVttTCh/0wCpUIKwW0pBLYZsflEssY+Xn+W4+NMG9T6vDqUy0XgXROMbKNDX9MW75mrDdYV0vqtTvZiw95RhDM5TL83hWnmmDfZqZ2VRkZXkDKSCxlqjfTx7fZw7nUhfnMOsetZDLvYqsAGuA+6ELk2gwR1f5z9vIKkqffXq+muE/nHrSsDa9VkkqtnyJ4L0xhly7eUAxg+r/YqqJdBrZPk7aW9jLrcn8bUH26E/9Yb6uJ/rJj5ruZFARlKn8SQ/Us/oFJUuw+NeF6s85DeAMt2HyYXcrhxMIGpa8txKCnSmR3jp9XhQSKf1TQE8pj7bwh9kRIKFIQKhUeY+7QaiDrSSa+XnN8UZq5FELrsxnC91cHbsg3K7/ejCP48B9dlL3y/ccmovZuX/Kq/daOlzlBsm+j0ukzbaEpz/S1hgxve/Wy4M4v5y3G4D7jJyhgd1osaDBYHfBeoMRP3InEhuqShuZp+CBvscJ0MYzE7Dct/p+usUm+DndxT+oE+F+XbcWQGnejwbnVYfvqr7ePaJX1fr1f21r6ht0fTMG3X1xRReMb/fEk0CXx5ZO7kq8ObzxJI3DXB+j793e3CyPEcxk+EkOXSLl7zwf+7B/4DS9rjFcwmA7LptM4Zy1359Axm0j54P+b72PBmcgahO2641FYm1W7LfXJwXEDluxMYvdRa1fZjY3Be88NLLUb17PITqizaN786pduOsauTwCkvpuQ3Galrf8KPwv94MX5LLV0Zxft0nzo95HQkhNxnfng0rWKG/dgo+q9Rr2/JAwPWGHAjeXoUUbX8D0MI/qA90UYVIEPBgX/c+6KIKPWWqp9Bl5G5m0GxIoQMOYgyrO/J7bMOscJmYT11Xlb20e7XIU3Fs2Bg0KEf4nrHWnnrqzOd2DFywoGQx4fYp0tlJtOJbZjcmLniQuywHzGWferdBI4XMHFkHEm18rFnmiSrBimsCo5/B+D4ZQQjv1EdYzvYPR8uUTzRSq/t2EanNNffUigPFOxiVJ7oTQ98B9TGSWf1QqX8gI5XDRWZW3GUrbwnoWWZfkjHkwzST6qaLiYTSJuol8u3tbiO+ZE7PUI9F37+syh8n8fhOa48z1wpy01/TXxcG2TOBRHlY5jl+xPwf2fF6GE2bN3M1yiNoejlKIpybKFzv/FjYiXmynhBPmhHHwK31Js2p0ngyyH+1YDmdfUAyucSCPJA1H8hi7mPIhjgz0asZ4wI/RmGu0lftP+rENwLwzCz9I7xNtUWJ9zFDDL7XNVvcyxOuLrZviE41R7F9gDCX+Yw8r5yP9sZC0IxP1WtFmz0Yf7eJAzf9lRfV98TqDjJZbOVesFngcDecaSZAj+eRjbmQvKg+gqvGfYjVCFrK/iLOEL/NWL08zprrFNeR/bT8TovCBkOhpA4VYbfysv/VRGB7338KMOO4PVZ2Nm4Orv/u07E9ocxWVlYtIjsRS9s6rOsdwcwt2cec4eWU2UdCERGkfucl9UehOXSPPxcGfmfdqMvOoxUpUdLPYfkCDLHqFKzonWoE8sBHwbKJoz+u8G69B3ahmnfDML7Yhg6rMwmxGx5fm8Sbi7bLrMd3otZXQNt1dkyiniSHN0JmyID9hz153ot4lZ6bcc2OqOl/upgIB15rscQ/8xHdZfvZLRbLzQUsyF4bWrQNWLgVxfmI/W/kVyOH9LxLI7AoOYzGJLj5EKw/neCrCxRByKDPG8fBGH8MYuwZqShHTJfba7cT/l5lYbMctNfKx/XAs+ZYcT2KrIz7mCLalN8kO2yma+hxtCPN+DPeJXY8o4N491TCB9h162AchapuxTss+3V2i4ybLEQrWAVyWJqx2akTksUXPguGfZtTgB9f67jZ2dvBEJ/glaw7+7IRs7W2sibQ+tnfAJBR9jg2GFA7Ko6lEG8KCP9zTgim9xwCaf5miP0J3j7EYFPsOo4z8Yx/jwgz7BgZrNQvGuDL+ND4rbmzU/Ba4vQn+BtRwx1CgQCgWBdIXp8AoFAIFhHAP9/lADXr/by4mkAAAAASUVORK5CYII=;" parent="d-dwPR9BG6M5_yMjoHCZ-2" vertex="1">
          <mxGeometry x="40.5" y="53.579999999999984" width="143.62" height="73.42" as="geometry" />
        </mxCell>
        <mxCell id="8edfGr-UJgzJI8FCnGSd-52" value="---Ver comentarios---" style="text;html=1;align=center;verticalAlign=middle;whiteSpace=wrap;rounded=0;fontStyle=1;fontSize=8;" parent="d-dwPR9BG6M5_yMjoHCZ-2" vertex="1">
          <mxGeometry x="40" y="134" width="120" height="20" as="geometry" />
        </mxCell>
        <mxCell id="d-dwPR9BG6M5_yMjoHCZ-5" value="" style="rounded=0;whiteSpace=wrap;html=1;container=0;" vertex="1" parent="1">
          <mxGeometry x="-842" y="508" width="185" height="27" as="geometry" />
        </mxCell>
        <mxCell id="d-dwPR9BG6M5_yMjoHCZ-6" value="" style="whiteSpace=wrap;html=1;shape=mxgraph.basic.roundRectCallout;dx=165.6;dy=22;size=6.67;boundedLbl=1;flipH=1;container=0;" vertex="1" parent="1">
          <mxGeometry x="-839" y="218" width="179" height="137" as="geometry" />
        </mxCell>
        <mxCell id="d-dwPR9BG6M5_yMjoHCZ-7" value="&lt;b&gt;&lt;font style=&quot;font-size: 7px;&quot;&gt;IMG&lt;/font&gt;&lt;/b&gt;" style="ellipse;whiteSpace=wrap;html=1;aspect=fixed;container=0;" vertex="1" parent="1">
          <mxGeometry x="-834" y="243" width="20" height="20" as="geometry" />
        </mxCell>
        <mxCell id="d-dwPR9BG6M5_yMjoHCZ-8" value="IMG" style="ellipse;whiteSpace=wrap;html=1;aspect=fixed;fontStyle=1;fontSize=8;container=0;" vertex="1" parent="1">
          <mxGeometry x="-780" y="336" width="18" height="18" as="geometry" />
        </mxCell>
        <mxCell id="d-dwPR9BG6M5_yMjoHCZ-9" value="Username" style="text;html=1;align=center;verticalAlign=middle;whiteSpace=wrap;rounded=0;fontStyle=1;container=0;" vertex="1" parent="1">
          <mxGeometry x="-759" y="338" width="61" height="14" as="geometry" />
        </mxCell>
        <mxCell id="d-dwPR9BG6M5_yMjoHCZ-10" value="&lt;b&gt;&lt;font style=&quot;font-size: 7px;&quot;&gt;IMG&lt;/font&gt;&lt;/b&gt;" style="ellipse;whiteSpace=wrap;html=1;aspect=fixed;container=0;" vertex="1" parent="1">
          <mxGeometry x="-834" y="266" width="20" height="20" as="geometry" />
        </mxCell>
        <mxCell id="d-dwPR9BG6M5_yMjoHCZ-11" value="&lt;b&gt;&lt;font style=&quot;font-size: 7px;&quot;&gt;IMG&lt;/font&gt;&lt;/b&gt;" style="ellipse;whiteSpace=wrap;html=1;aspect=fixed;container=0;" vertex="1" parent="1">
          <mxGeometry x="-834" y="289" width="20" height="20" as="geometry" />
        </mxCell>
        <mxCell id="d-dwPR9BG6M5_yMjoHCZ-17" value="Inputfield" style="rounded=0;whiteSpace=wrap;html=1;align=left;" vertex="1" parent="1">
          <mxGeometry x="-809.5" y="221" width="145.5" height="109" as="geometry" />
        </mxCell>
      </root>
    </mxGraphModel>
  </diagram>
</mxfile>
